<svg width="384" height="128" viewBox="0 0 384 128" fill="none" xmlns="http://www.w3.org/2000/svg">
<g clip-path="url(#clip0_474_3146)">
<path fill-rule="evenodd" clip-rule="evenodd" d="M2.38439 42.8028C5.26963 42.8028 7.28019 43.4091 8.52871 44.6477C9.92579 46.0337 10.5512 48.3231 10.5512 52.0698V98.8683C10.5512 105.344 9.18292 108.233 1.10713 108.233H0V111.105H36.2931V108.247L35.198 108.233C27.1989 108.138 25.8497 105.266 25.8497 98.8683V52.0674C25.8497 48.3326 26.4728 46.0527 27.8699 44.6691C29.1304 43.4114 31.1769 42.8005 34.122 42.8005H36.2907V39.8882H0V42.8005H2.38439V42.8028Z" fill="black"/>
<path fill-rule="evenodd" clip-rule="evenodd" d="M118.46 87.231C118.46 87.231 117.83 84.3093 117.739 82.6736V61.2987C117.598 48.8341 119.311 42.6292 108.326 42.6768V39.8762H133.596V42.6768C122.283 42.6316 123.706 48.8365 123.641 61.2987V111.209L120.044 111.171L65.4764 54.5184C65.4764 54.5184 66.0899 57.4355 66.1809 59.0735V94.0755C65.8718 106.844 67.4654 108.387 75.7568 108.237V111.155H49.4135V108.237C57.7169 108.247 59.3489 107.151 59.3393 93.0342V93.8782V59.3825L59.2722 53.9075C59.5813 46.8205 56.9429 42.71 48.8887 42.7766V39.9737H73.1424L118.46 87.231Z" fill="black"/>
<path fill-rule="evenodd" clip-rule="evenodd" d="M209.935 38.5164H207.15L207.021 39.4625C206.831 40.8747 206.271 43.2402 204.648 43.2402C204.186 43.2402 203.033 43.0238 201.734 42.4343C196.093 40.0093 188.784 38.5164 182.63 38.5164C170.656 38.5164 159.793 42.7718 152.033 50.5031C144.907 57.6066 141.008 67.2754 141.063 77.7239C141.113 87.7327 145.079 95.9655 153.198 102.905C161.377 109.847 170.541 112.807 183.857 112.807C194.95 112.807 201.301 111.226 211.047 106.036L212.753 105.118V86.4441C212.753 78.4847 213.735 77.2461 220.263 76.9846L221.325 76.9442V74.1698H189.434V76.9442L190.495 76.9846C197.766 77.2651 199.139 78.5584 199.139 85.139V102.444C193.745 105.974 189.824 107.315 184.881 107.315C177.564 107.315 171.053 104.51 166.055 99.5553C160.2 93.7427 157.344 85.2768 157.344 75.7103C157.344 65.4044 160.109 56.6129 165.808 50.9643C170.344 46.4639 176.369 43.9653 183.241 43.9653C189.381 43.9653 196.513 46.578 201.404 50.427C205.382 53.6578 207.445 56.7841 209.003 61.9501L209.24 62.7322H211.962L209.935 38.5164Z" fill="black"/>
<path fill-rule="evenodd" clip-rule="evenodd" d="M349.617 110.912C351.39 110.646 353.271 110.686 354.685 109.397C360.676 110.31 366.749 108.841 371.458 105.567C373.938 103.582 376.174 101.279 377.983 98.7611C379.574 96.5454 380.83 94.4794 381.642 91.9975C382.248 90.4664 382.728 88.8736 383.09 87.238C384.798 79.5258 383.9 70.9007 381.369 63.5665C380.906 62.2043 380.377 60.8848 379.802 59.6272C376.643 53.1512 372.344 46.1642 365.725 42.0679C361.997 39.7619 358.565 36.1935 356.459 32.499C355.313 31.4768 354.216 30.1217 352.735 29.8768C353.14 30.5401 353.585 31.1891 353.696 31.9641L353.609 32.0735C352.037 32.1187 350.806 31.2937 349.73 30.2952L350.916 29.2278C350.468 29.0019 349.955 28.9163 349.459 28.8022C344.932 28.2911 341.208 30.3642 337.192 31.3627L337.129 31.5838C339.595 32.6726 340.111 35.3685 341.546 37.192C341.901 36.7688 342.507 37.0779 343.003 37.0398C343.719 37.0802 344.393 37.5937 345.088 37.4131C345.109 36.8187 344.771 36.3456 344.664 35.8131C345.088 35.6134 345.603 35.7893 346.077 35.8131C347.376 36.5667 349.459 35.68 350.269 37.4131C348.788 37.5058 347.398 37.8148 346.008 38.15C346.099 38.7063 346.66 39.1485 346.614 39.7072C345.426 39.2175 344.168 38.9084 342.845 38.7539L342.778 38.9512C344.46 40.9078 346.77 42.0679 349.126 42.755C352.514 43.5324 355.495 41.9324 358.766 42.4887C366.799 46.138 373.66 54.4849 376.643 62.4063C376.789 62.7867 376.931 63.1719 377.063 63.5641C379.562 70.7985 380.037 79.6898 377.532 87.2356C376.2 90.3737 374.733 93.3359 372.383 95.8868C371.493 96.9733 370.511 97.9409 369.442 98.7587C366.075 101.36 361.925 102.508 357.645 101.343C357.376 101.16 356.837 101.115 356.928 100.651C357.077 100.031 357.216 99.403 357.338 98.7587C358.045 95.1427 358.376 91.3389 358.184 87.5351C358.179 87.3735 358.174 87.2094 358.17 87.0478C357.932 81.5251 356.823 76.5612 354.779 71.7851C353.465 69.044 351.908 66.0556 349.945 63.3739C347.602 60.1764 344.695 57.4139 340.961 56.035C338.673 55.4335 335.847 55.3194 334.122 57.2094C332.888 58.2816 332.375 59.7247 332.552 61.308C330.623 62.5205 328.455 63.1742 326.094 63.3739C325.517 63.4239 324.925 63.6354 324.323 63.6283C323.753 63.6545 323.197 63.6307 322.65 63.5641C319.811 63.217 316.938 61.6955 314.754 59.96C314.709 58.8023 314.642 57.7134 314.596 56.4891C313.345 55.8448 312.308 54.6205 312.221 53.1726L312.332 53.0633C313.053 53.2844 313.676 53.6386 314.328 54.0166C314.036 52.2811 313.698 50.5694 312.828 49.055C312.018 48.7198 311.21 48.4536 310.451 48.0518C309.576 47.4788 309.013 46.428 308.883 45.4747C309.667 46.2307 311.033 45.9645 311.639 46.7633C310.582 43.6703 310.566 40.1328 308.835 37.3061C307.961 35.2164 305.672 34.2583 304.103 32.7249C303.496 31.9879 303.252 30.9656 302.154 30.8515C301.256 30.6304 301.189 29.6319 301.033 28.9829C301.591 29.0495 302.061 29.4275 302.531 29.5154C301.232 26.0944 300.086 22.2859 296.568 20.1058L295.964 20.4862C294.596 20.6859 293.137 20.7762 291.771 20.8214C292.377 19.9323 293.451 19.5519 294.304 19.1477C293.316 18.4155 292.504 18.2396 291.27 18.0399C290.553 18.7483 289.257 19.1073 288.337 19.307L288.222 19.2167C288.198 18.4155 288.016 17.4384 289.231 17.2363C288.064 16.68 286.13 16.9059 284.941 17.2363C284.608 18.1041 283.645 18.8838 283.714 19.9109C283.022 20.6217 282.528 21.5798 281.807 22.0909C281.785 20.3768 282.521 18.7983 282.835 17.3528C281.826 17.7308 280.8 18.2657 279.81 18.7317C278.222 17.8188 276.544 16.9082 274.84 16.2164C274.687 16.1499 274.347 16.0857 274.414 16.3733C275.873 17.417 275.308 19.3783 275.463 20.8642L274.543 20.1106C274.095 18.9766 272.801 18.154 272.578 16.9082C271.052 17.1983 270.076 17.5977 268.663 18.1992L268.468 18.3109C269.52 18.3109 270.417 19.1311 270.932 19.9584C269.341 20.044 267.927 19.4235 266.357 19.2642C266.201 19.1121 266.065 18.929 265.818 18.9528C265.034 19.2428 264.359 19.7968 263.668 20.3317C262.12 21.846 260.548 23.515 259.81 25.5191C260.328 25.6047 260.977 25.5833 261.358 25.8947C260.508 26.4058 259.767 27.276 258.938 27.7633C258.646 28.9211 258.691 30.2382 258.622 31.5029C257.97 32.4848 257.098 33.3478 256.673 34.4437C255.281 38.9084 254.924 43.8747 255.125 48.9457C254.675 49.3712 254.09 49.6399 253.668 49.9727L253.714 54.5087H253.824C254.025 53.5554 255.171 53.0229 255.866 52.3762H256.091C255.979 53.3985 255.844 54.4231 255.823 55.4692L254.524 56.5366C253.22 57.673 254.32 59.3847 254.21 60.8111C254.301 61.1844 254.363 61.7431 254.634 61.8334C254.792 61.2771 255.284 60.8777 255.6 60.3856C256.158 60.2548 256.652 59.8055 257.167 59.7437C256.875 60.8563 256.499 61.9451 256.046 63.0126C255.83 63.1528 255.578 63.3406 255.363 63.5689C255.133 63.8137 254.948 64.0871 254.9 64.3914C255.914 69.6621 257.5 74.8685 259.314 79.8301C258.085 81.9008 257.385 84.3376 256.36 86.4748C256.211 86.772 256.079 87.0787 255.957 87.3877C254.927 89.9743 254.613 92.8676 253.331 95.3519C252.811 95.0001 252.25 94.7267 251.672 94.4842C249.247 93.683 246.443 94.1942 244.675 96.0437C243.103 95.7537 241.488 96.02 240.253 96.8449C239.369 97.4987 238.686 98.2951 238.293 99.2223C238.025 99.8689 237.903 100.573 237.943 101.341C236.937 102.028 236.398 103.093 236.062 104.165C235.593 106.566 236.443 109.067 237.833 110.917H349.617V110.912Z" fill="white"/>
<path fill-rule="evenodd" clip-rule="evenodd" d="M334.771 60.8848C334.747 61.4625 334.323 62.1115 334.704 62.5989C335.243 61.9974 336.142 62.0188 336.859 61.7549C338.852 61.5766 340.76 62.1971 342.62 62.6464C342.152 61.9094 341.836 61.0916 341.321 60.4212C340.285 60.1549 338.718 60.8658 338.541 59.3538C337.911 58.8188 336.921 59.2016 336.276 59.2396C335.646 59.689 335.131 60.2405 334.771 60.8848Z" fill="white"/>
<path fill-rule="evenodd" clip-rule="evenodd" d="M266.229 41.6746C266.219 41.6656 266.206 41.6566 266.197 41.6543C266.197 41.6566 266.197 41.6656 266.201 41.6746H266.229Z" fill="white"/>
<path fill-rule="evenodd" clip-rule="evenodd" d="M274.383 61.4507L275.73 60.1622C275.845 60.1622 275.931 60.186 275.998 60.2763L275.885 62.744C276.535 63.3455 277.342 63.5452 278.193 63.5904C278.262 62.9223 278.778 62.4563 279.07 61.8763C279.317 61.4103 279.161 60.7185 279.652 60.3833L279.806 60.5402C279.966 61.2724 279.923 62.0974 280.304 62.7416C280.35 63.0959 280.414 63.5428 280.458 63.8542C281.445 63.9018 282.339 63.6308 283.103 63.2765C283.058 62.4326 283.352 61.7408 283.482 60.961C283.688 60.6923 283.235 60.205 283.798 60.2288C284.112 60.8944 284.673 61.5838 284.987 62.2947C286.286 60.9824 286.825 59.2707 287.139 57.4924C286.76 56.9765 286.175 56.9765 285.725 56.6461C281.915 55.4217 277.021 55.1745 273.343 57.0668C273.105 58.5836 273.419 60.2525 274.383 61.4507Z" fill="white"/>
<path fill-rule="evenodd" clip-rule="evenodd" d="M238.744 103.202C238.607 104.919 238.744 106.526 238.851 108.216C239.213 108.772 239.865 109.419 240.509 109.464L240.627 108.328C240.893 106.744 240.042 105.066 240.94 103.732C241.568 103.932 242.191 104.243 242.735 104.533C242.998 103.064 242.622 101.353 241.209 100.463L238.744 103.202Z" fill="white"/>
<path fill-rule="evenodd" clip-rule="evenodd" d="M244.279 100.803C243.405 103.404 242.753 106.618 243.812 109.355C244.413 108.958 245.044 108.577 245.578 108.021C245.47 105.927 245.178 103.692 246.431 101.956C247.528 102.292 248.273 103.338 248.695 104.362C249.437 103.423 249.684 102.135 249.392 100.887C249.437 99.9118 248.311 100.135 247.775 99.7311C247.957 98.9085 247.93 97.9552 248.807 97.4893L246.117 97.7555C245.424 98.7302 244.663 99.6907 244.279 100.803Z" fill="white"/>
<path fill-rule="evenodd" clip-rule="evenodd" d="M249.82 108.485C249.935 108.689 249.82 109.041 250.045 109.086C250.383 107.22 251.907 106.007 252.739 104.362C253.139 103.806 253.115 103.026 253.767 102.603C254.644 102.603 255.271 103.228 256.125 103.295C256.393 103.494 255.986 103.67 255.966 103.891C255.789 105.408 255.204 106.663 255.317 108.218H255.47C256.659 106.977 257.467 105.627 258.341 104.203L258.495 102.938C258.696 101.424 257.038 100.447 255.962 99.8238L256.925 98.5994L255.581 98.1311C254.009 98.288 252.595 98.9323 251.497 100.159C250.134 102.648 249.911 105.461 249.82 108.485Z" fill="white"/>
<path fill-rule="evenodd" clip-rule="evenodd" d="M255.854 95.2807C256.369 95.4376 256.839 95.0145 257.352 95.2379C259.417 95.9916 261.572 96.7713 263.117 98.4854L264.958 103.133L265.878 100.266L265.272 98.7065C264.757 97.5939 263.343 97.6842 262.377 97.6391C261.977 97.1945 262.401 96.681 262.538 96.2602C263.005 94.6816 261.054 94.7672 260.271 94.1277C260.318 93.1696 259.149 93.5024 258.497 93.4121L258.274 93.1458C258.143 92.9461 257.807 92.9461 257.625 93.1007C257.577 93.0365 257.491 92.9913 257.539 92.8772L257.04 92.9913C256.348 93.5928 255.876 94.3702 255.854 95.2807Z" fill="white"/>
<path fill-rule="evenodd" clip-rule="evenodd" d="M257.153 90.1671C257.22 90.4547 257.4 90.7448 257.622 90.9207C258.634 90.6544 259.595 89.9674 260.762 90.3858C262.267 91.6981 263.834 93.077 265.655 93.7926L266.302 93.6785C266.707 93.8163 267.153 93.8354 267.424 94.2799C267.673 94.8814 267.047 95.238 266.841 95.7254C267.853 96.46 267.448 97.7747 268.078 98.6614L269.693 96.5266C269.314 95.5899 269.715 93.9899 268.234 93.9019C267.742 93.6547 267.404 93.165 267.426 92.6086C266.465 91.7409 265.276 91.3653 264.308 90.4761C263.525 89.8509 263.055 88.8928 262.044 88.6717C261.351 88.2961 260.592 88.094 259.784 87.9181C258.274 87.697 258.142 89.4729 257.153 90.1671Z" fill="white"/>
<path fill-rule="evenodd" clip-rule="evenodd" d="M259.305 85.7832L259.575 86.2063C260.695 86.1374 261.708 85.65 262.808 85.6714C263.546 86.1184 264.512 86.097 265.272 86.4726C265.878 87.2952 266.53 88.2295 267.421 88.7882C269.242 89.0521 270.249 90.9896 270.877 92.4113V91.7219C271.145 90.7685 270.853 89.6535 270.493 88.7882C270.045 88.3412 269.396 88.0488 268.926 87.6494C268.835 87.3617 268.902 87.2262 268.993 86.96C268.296 86.2254 267.265 85.8236 266.415 85.2483C265.226 83.5342 262.938 84.0025 261.121 83.5342L259.305 85.7832Z" fill="white"/>
<path fill-rule="evenodd" clip-rule="evenodd" d="M259.269 69.4602C259.468 70.152 259.712 71.0198 259.844 71.752C260.471 70.3731 261.71 69.755 262.807 68.6186C262.177 68.1931 261.396 67.9934 260.701 67.8602V67.8198C260.208 68.3072 259.446 68.7969 259.269 69.4602Z" fill="white"/>
<path fill-rule="evenodd" clip-rule="evenodd" d="M263.343 76.78L264.351 75.7577C265.362 74.7355 266.191 73.5539 266.347 72.2416C265.63 71.8184 264.689 72.1061 263.994 72.3509C263.743 73.8011 263.367 75.2252 263.343 76.78Z" fill="white"/>
<path fill-rule="evenodd" clip-rule="evenodd" d="M264.081 79.918C265.631 80.0084 267.13 80.3151 268.388 79.4545L269.641 75.4462C269.241 75.4224 268.834 75.2465 268.455 75.3796C267.629 77.2055 265.964 79.0051 264.081 79.918Z" fill="white"/>
<path fill-rule="evenodd" clip-rule="evenodd" d="M264.536 65.723C265.544 67.1946 267.226 68.8397 268.953 69.3033C268.752 67.4371 267.14 66.1438 266.308 64.5438L266.261 64.0089C265.611 63.3837 264.826 62.9653 264.152 62.6277C264.045 63.6999 264.337 64.7245 264.536 65.723Z" fill="white"/>
<path fill-rule="evenodd" clip-rule="evenodd" d="M270.004 80.0965C271.193 80.301 272.469 80.0965 273.567 79.7589C275.162 79.3857 276.037 77.6478 276.573 76.2927H274.578L272.424 78.3824C271.576 78.8294 270.764 79.4998 270.004 80.0965Z" fill="white"/>
<path fill-rule="evenodd" clip-rule="evenodd" d="M269.762 63.7C270.1 65.4354 270.836 67.014 271.849 68.507L272.117 65.1906L269.762 63.7Z" fill="white"/>
<path fill-rule="evenodd" clip-rule="evenodd" d="M277.114 72.3535C277.248 71.2409 276.781 69.9523 276.651 68.8183C275.976 68.3714 275.032 68.4166 274.34 67.9744C274.383 69.7312 275.77 71.2195 277.114 72.3535Z" fill="white"/>
<path fill-rule="evenodd" clip-rule="evenodd" d="M275.073 83.6601C276.486 83.2132 277.852 82.7235 279.15 82.0103C279.979 80.8358 281.237 79.7613 281.414 78.3848C280.384 78.6724 279.486 78.342 278.525 78.8103C277.943 79.854 277.581 81.0355 276.462 81.7892C276.285 82.5428 275.454 83.0587 275.073 83.6601Z" fill="white"/>
<path fill-rule="evenodd" clip-rule="evenodd" d="M277.268 86.3966L278.95 88.5743C279.848 88.8643 280.969 88.774 281.753 88.2628L281.147 86.2825C279.961 86.7318 278.55 86.5939 277.268 86.3966Z" fill="white"/>
<path fill-rule="evenodd" clip-rule="evenodd" d="M280.074 70.6393L280.723 73.5777C282.29 72.3082 282.609 70.461 282.57 68.5044C281.672 69.5267 281.147 70.1519 280.074 70.6393Z" fill="white"/>
<path fill-rule="evenodd" clip-rule="evenodd" d="M284.491 75.8267C284.515 76.2475 284.627 76.6492 284.874 76.9844C286.62 77.6049 286.8 79.7184 288.417 80.5196C289.469 80.9856 290.676 80.4055 291.599 79.9847C290.904 79.2073 290.116 78.6676 289.447 77.8474C288.975 77.6477 288.503 77.3577 288.527 76.78L284.491 75.8267Z" fill="white"/>
<path fill-rule="evenodd" clip-rule="evenodd" d="M285.88 86.3277C286.645 87.1954 287.675 87.64 288.75 87.8824C288.573 87.6376 288.865 87.8825 288.908 87.7279L287.56 84.7966C286.889 84.8133 286.194 84.9488 285.566 84.906C285.61 85.391 285.725 85.8783 285.88 86.3277Z" fill="white"/>
<path fill-rule="evenodd" clip-rule="evenodd" d="M288.259 72.6197C287.629 71.1742 287.365 69.4174 287.188 67.8174C286.515 68.6162 285.82 69.1297 285.193 69.9499C284.9 71.5974 287.27 72.0016 288.259 72.6197Z" fill="white"/>
<path fill-rule="evenodd" clip-rule="evenodd" d="M290.994 71.11C291.802 72.1537 293.572 71.7971 294.564 71.4856C294.089 70.6844 292.57 70.2185 292.302 69.3507C292.144 67.8173 291.835 66.3267 291.337 64.9241C290.551 66.8141 289.605 69.0631 290.994 71.11Z" fill="white"/>
<path fill-rule="evenodd" clip-rule="evenodd" d="M292.406 75.8267C294.651 77.4529 296.846 79.3405 299.986 78.6511C300.211 78.4941 300.592 78.5155 300.637 78.2279C299.715 77.6478 298.732 77.2032 297.788 76.6731L296.715 75.1135H296.221C295.008 75.5153 293.705 75.6675 292.406 75.8267Z" fill="white"/>
<path fill-rule="evenodd" clip-rule="evenodd" d="M292.454 93.8711H292.607C293.956 92.8037 295.548 92.4471 297.139 92.0001C297.568 92.1546 297.297 92.623 297.678 92.8037C298.644 92.4019 299.811 92.4922 300.796 92.157C301.987 92.2046 302.952 92.226 303.913 92.7371C304.673 93.7356 306.111 93.6286 307.101 94.2919L306.942 92.7371C304.858 90.3098 301.603 90.1315 298.603 90.179L298.534 89.8652C297.817 89.8652 297.012 90.0221 296.338 90.336C295.375 90.3764 294.455 90.8471 293.532 91.1347C293.103 91.9811 292.768 93.001 292.454 93.8711Z" fill="white"/>
<path fill-rule="evenodd" clip-rule="evenodd" d="M294.253 66.5263C295.128 67.6627 296.426 68.5281 297.907 68.2404C297.147 67.5058 296.27 66.7236 296.225 65.68C296.45 63.6996 294.253 63.5451 293.177 62.5181C293.532 63.8565 293.491 65.3448 294.253 66.5263Z" fill="white"/>
<path fill-rule="evenodd" clip-rule="evenodd" d="M294.026 97.8103H294.287C295.478 97.071 297.206 97.6297 298.373 96.8499C299.022 96.5147 299.066 97.4062 299.518 97.6511C300.616 98.3191 300.75 100.318 302.298 99.8549C304.158 100.811 303.688 103.062 303.755 104.707L305.483 103.64C305.325 102.772 305.816 101.721 305.255 100.967C304.831 100.014 303.667 99.9238 303.106 99.144C303.779 98.0077 302.255 97.4775 301.939 96.6526L302.03 96.5384L304.402 96.8499C305.215 97.3396 305.502 98.2311 305.751 99.0537C307.613 99.3651 308.062 101.455 308.713 102.791C309.094 101.878 309.25 100.899 309.634 100.012C309.655 99.2748 308.668 99.2748 308.177 98.9443C308.038 97.8103 307.525 96.7381 306.518 96.0511C304.453 95.5399 302.639 94.4036 300.374 94.4036L298.488 94.9836C297.455 95.2285 296.358 94.9171 295.574 95.6255C294.402 95.7135 294.314 96.9854 294.026 97.8103Z" fill="white"/>
<path fill-rule="evenodd" clip-rule="evenodd" d="M295.21 88.6407L295.639 88.8404C296.554 88.4149 297.477 87.9275 298.442 87.5709C299.943 87.1477 301.11 88.8404 302.368 87.773C302.837 87.4378 303.238 87.9275 303.599 88.1962C304.139 89.1756 305.394 89.1091 306.336 89.3754C305.866 88.1082 305.284 86.3704 303.645 86.1659C302.995 85.8782 302.231 85.9068 301.603 85.524C299.878 83.634 298.756 87.0788 296.87 86.2348C296.199 86.9742 295.37 87.6613 295.21 88.6407Z" fill="white"/>
<path fill-rule="evenodd" clip-rule="evenodd" d="M295.639 99.4769C296.355 100.074 297.093 101.101 298.212 100.965C299.608 101.612 299.024 103.433 299.786 104.391L300.591 103.678L300.523 103.635L300.638 103.523L300.686 103.59C300.909 102.919 300.593 101.74 300.212 100.963C299.697 100.611 299.091 100.986 298.6 100.651C298.53 99.9404 298.082 99.5838 297.567 99.1393C297.208 98.873 296.736 99.2296 296.333 99.2058L295.639 99.4769Z" fill="white"/>
<path fill-rule="evenodd" clip-rule="evenodd" d="M298.443 72.3533C299.183 73.5801 300.615 74.3361 301.761 75.18C302.7 75.6056 303.933 75.7126 304.944 75.4915C303.981 74.7141 303.105 73.8249 302.3 72.8859C301.986 72.4413 301.916 71.8874 301.492 71.4856C300.433 71.6877 299.25 71.6663 298.443 72.3533Z" fill="white"/>
<path fill-rule="evenodd" clip-rule="evenodd" d="M299.679 64.3918C300.714 65.6565 302.305 65.1478 303.761 65.1906V65.0384L301.519 63.165C300.889 63.3671 300.22 63.921 299.679 64.3918Z" fill="white"/>
<path fill-rule="evenodd" clip-rule="evenodd" d="M258.394 43.4088L259.692 47.4146C259.668 45.1443 260.723 43.2543 260.5 40.9411L261.465 39.5146L259.422 40.1375C258.885 41.1598 258.439 42.1868 258.394 43.4088Z" fill="white"/>
<path fill-rule="evenodd" clip-rule="evenodd" d="M259.269 36.467L261.037 35.4423V32.8391C260.297 33.2861 259.889 34.0421 259.312 34.6435L259.269 36.467Z" fill="white"/>
<path fill-rule="evenodd" clip-rule="evenodd" d="M295.643 40.5181C295.214 41.0745 294.567 41.2076 294.031 41.3193C294.97 39.6052 295.421 37.2207 294.678 35.2856C295.174 35.1096 295.713 35.024 296.183 34.753L296.135 34.7102L297.371 33.638C299.008 32.5254 298.38 30.4143 298.986 28.8358C298.179 27.5876 297.934 26.0756 296.765 25.0272L296.834 24.9868C295.912 23.829 294.253 23.9598 292.993 23.3821C291.335 22.8258 290.057 23.9598 288.869 24.7205C288.354 24.8061 288.668 25.4741 288.107 25.4528C287.793 26.2777 287.409 27.1668 287.187 28.0774C284.965 27.7636 282.569 28.0132 280.795 29.2565C279.851 28.5695 278.708 28.434 277.608 28.1225C276.803 27.968 275.883 28.258 275.303 27.8087C274.452 26.8554 274.268 25.1175 272.808 24.8751C272.295 24.6968 272.185 24.1428 272.185 23.6507C271.22 23.4962 270.364 23.054 269.422 22.8495C267.992 22.2029 266.849 23.2299 265.77 23.917C265.3 24.119 264.761 24.1832 264.316 24.4543C263.508 25.6976 262.744 26.9671 262.228 28.3436C262.386 29.4776 262.878 30.4809 263.465 31.4366C263.98 32.8844 265.593 34.0184 266.961 34.5985C266.312 36.7999 266.312 39.4269 266.961 41.6522C266.961 41.6522 266.923 41.6783 266.923 41.6735C266.923 41.6783 266.851 41.7354 266.851 41.7354C266.635 41.7354 266.408 41.7782 266.23 41.6735H266.202C266.515 43.7989 267.524 45.658 269.154 47.2532C269.739 47.4577 269.604 48.1447 269.854 48.5917C270.007 48.789 270.029 49.2122 269.961 49.3905C266.468 49.2788 263.347 50.1465 260.544 51.7251C259.827 52.0817 260.143 53.0635 260.076 53.7506C262.049 52.4621 264.179 51.504 266.532 51.0832C267.541 51.0166 268.684 50.7717 269.65 51.038L269.763 52.9518C267.095 54.3307 264.179 55.1318 261.89 57.4022C261.936 58.0893 261.804 58.8928 262.005 59.4729L264.047 57.823C266.017 56.3372 268.08 55.0653 270.347 54.2427C270.954 54.9559 271.584 55.7119 272.391 56.1541C273.757 55.2864 275.238 54.6445 276.808 54.2427C277.639 53.753 278.957 54.1975 279.497 53.2204L279.88 51.1949C279.811 51.1497 279.77 51.0642 279.655 51.0879C278.603 50.4865 277.908 49.4428 277.996 48.2161C277.639 48.392 277.237 48.5061 276.808 48.5275C276.448 48.4372 276.115 48.3516 275.957 47.9926C275.933 47.5457 275.708 46.88 276.156 46.5472C277.613 45.6556 279.499 45.6105 281.339 45.7484C282.705 45.9243 284.682 45.8553 285.15 47.4624C285.087 47.9284 285.128 48.4395 284.658 48.751C284.165 49.0172 283.606 48.7272 283.153 48.5299C282.799 49.6187 282.193 50.8454 280.956 51.1973L281.117 52.4906C281.27 53.0707 281.315 54.024 282.238 53.8243C284.368 54.3354 286.25 55.4266 288.112 56.6058C288.739 55.9806 289.233 55.2673 289.679 54.6255C292.998 55.7357 295.871 58.2058 298.605 60.4976L298.72 58.629C296.118 56.3372 293.223 54.7134 290.218 53.4439C290.333 52.8424 290.467 52.2624 290.486 51.6205C294.055 51.8178 297.436 52.909 300.379 54.6255L300.331 53.0231C297.237 51.378 293.851 50.2868 290.149 50.2416C290.014 50.0371 289.971 49.7519 289.995 49.5498C291.79 49.2597 293.065 47.4149 293.496 45.8102C294.412 44.7665 295.739 43.6301 295.425 42.0753C295.466 41.9493 295.512 41.8114 295.557 41.6783C295.677 41.286 295.778 40.8795 295.643 40.5181Z" fill="white"/>
<path fill-rule="evenodd" clip-rule="evenodd" d="M298.764 46.2355L300.601 45.6554L300.8 44.6332C301.32 43.1426 300.223 42.0299 299.679 40.8484L298.764 46.2355Z" fill="white"/>
<path fill-rule="evenodd" clip-rule="evenodd" d="M303.4 53.2894C304.275 54.2427 305.127 55.7808 306.677 55.3101C306.562 54.6682 306.203 54.1357 305.98 53.5556C305.573 53.0849 305.441 51.7512 304.634 52.2219C304.028 51.8201 303.874 51.1497 303.489 50.6172C303.314 51.4398 303.424 52.4644 303.4 53.2894Z" fill="white"/>
<path fill-rule="evenodd" clip-rule="evenodd" d="M303.716 59.8032C304.054 60.2739 304.145 60.8754 304.476 61.2962C305.082 61.6932 305.98 61.6314 306.718 61.5624C307.391 61.4079 307.818 62.1401 308.446 61.7146C307.665 61.2272 307.195 60.3357 306.45 59.6938C305.573 59.0044 304.636 59.6058 303.716 59.8032Z" fill="white"/>
<path fill-rule="evenodd" clip-rule="evenodd" d="M304.905 70.1521C306.451 71.065 308.42 71.9565 310.482 71.6451C310.705 71.531 311.089 71.5548 311.132 71.2861C309.855 70.8392 308.513 69.572 307.172 69.3058C306.429 68.1718 305.466 69.5958 304.524 69.5055C304.546 69.7741 304.814 69.9762 304.905 70.1521Z" fill="white"/>
<path fill-rule="evenodd" clip-rule="evenodd" d="M309.566 89.7961L309.904 90.5117C310.242 92.8273 311.718 94.9598 310.91 97.4964C311.584 97.9624 311.787 98.7398 312.211 99.3627H312.324C312.839 97.4299 312.482 95.4258 312.211 93.4882C312.412 91.7313 310.618 90.7067 309.566 89.7961Z" fill="white"/>
<path fill-rule="evenodd" clip-rule="evenodd" d="M309.952 67.0137C311.119 67.9052 312.98 67.9932 314.322 67.5486C313.471 67.0827 312.532 66.5715 311.833 65.9463L309.952 67.0137Z" fill="white"/>
<path fill-rule="evenodd" clip-rule="evenodd" d="M315.485 73.8464C315.37 74.7831 316 75.5605 316.674 76.0264C316.92 75.4701 317.323 75.0042 317.366 74.3813C317.167 73.4232 316.628 72.5578 315.754 71.9136C315.595 72.5341 315.418 73.1308 315.485 73.8464Z" fill="white"/>
<path fill-rule="evenodd" clip-rule="evenodd" d="M315.555 83.9882C315.397 85.0319 316.561 85.1698 317.054 85.7475C317.459 86.2348 316.786 86.57 316.786 87.036C317.637 88.1248 318.13 89.373 318.13 90.8208C318.468 89.4657 318.983 88.17 319.167 86.7698C319.076 85.7927 317.51 85.9924 317.754 84.9035C318.2 83.7909 317.663 82.6997 317.371 81.7012C317.28 81.5419 317.078 81.2305 316.903 81.3208C316.491 82.2337 315.485 82.8756 315.555 83.9882Z" fill="white"/>
<path fill-rule="evenodd" clip-rule="evenodd" d="M318.627 78.6938L319.791 80.9404C320.309 80.8786 320.639 80.3841 321.044 80.0322C321.361 79.0956 320.529 78.4941 320.285 77.7381C320.079 77.2032 320.285 76.4923 319.902 76.024C319.612 75.8481 319.272 75.558 318.936 75.6436L318.627 78.6938Z" fill="white"/>
<path fill-rule="evenodd" clip-rule="evenodd" d="M320.127 72.7791C321.047 73.333 322.099 74.1342 322.591 75.1112C323.379 77.3816 324.635 79.4286 325.552 81.63C325.89 83.1658 326.159 84.5351 326.585 86.0495C326.743 86.4442 326.652 87.2239 327.283 87.1598C327.46 85.4694 327.798 83.8457 327.819 82.0865C327.261 81.3542 326.516 81.0428 325.823 80.5935V80.4413C325.914 80.0609 326.228 79.6164 326.7 79.6877C326.899 79.4595 327.505 79.2407 327.239 78.8413C326.072 77.6859 326.14 75.6913 324.275 75.3323C323.628 75.0661 323.468 74.4004 323.405 73.7775C322.528 73.0477 321.225 72.7957 320.127 72.7791Z" fill="white"/>
<path fill-rule="evenodd" clip-rule="evenodd" d="M321.201 84.837C322.346 85.8782 321.946 87.3926 321.852 88.7953C321.675 89.6416 322.751 89.1519 323.088 89.5965C323.781 90.6211 323.378 92.1117 323.129 93.2243C323.738 92.309 324.432 91.5079 324.902 90.5094C324.878 90.129 325.369 89.9531 325.352 89.4871C325.551 88.8404 324.792 89.1305 324.478 89.0592C324.21 88.9926 323.917 88.8143 324.004 88.4601C324.588 87.3451 324.051 86.0114 323.826 84.9011C323.558 83.9859 323.941 82.7663 323.512 81.9651C322.796 82.9446 320.664 83.168 321.201 84.837Z" fill="white"/>
<path fill-rule="evenodd" clip-rule="evenodd" d="M323.288 69.037C325.286 71.0411 326.742 73.0524 328.894 74.99C328.942 74.127 328.827 73.321 328.781 72.4747C328.465 71.878 327.883 71.431 327.389 70.9865C325.801 70.8296 324.97 68.7042 323.288 69.037Z" fill="white"/>
<path fill-rule="evenodd" clip-rule="evenodd" d="M328.515 79.6423C328.56 79.842 328.651 80.018 328.737 80.22C329.612 81.6465 330.441 83.1109 331.049 84.6467C330.87 83.0039 331.993 80.9523 330.51 79.6875C330.309 79.1526 329.636 79.3309 329.209 79.3737L328.515 79.6423Z" fill="white"/>
<path fill-rule="evenodd" clip-rule="evenodd" d="M333.897 95.8965C334.527 96.1794 335.332 95.6682 335.938 95.3164C336.499 95.1809 336.971 95.4923 337.398 95.7823C337.575 96.1366 337.398 96.4694 337.46 96.8046C338.809 97.1826 340.13 97.6723 341.321 98.4497L341.697 98.0741C341.788 97.116 341.028 96.4314 340.309 95.8965C339.84 95.6231 339.14 95.7823 338.809 95.3568C339.032 95.0049 339.032 94.47 339.008 94.0683C338.265 94.0683 337.795 93.8448 337.189 93.4882C336.813 93.3788 336.473 93.0674 336.159 93.4882C335.04 94.2466 334.973 95.3568 333.897 95.8965Z" fill="white"/>
<path fill-rule="evenodd" clip-rule="evenodd" d="M335.469 67.8958C336.027 67.7436 336.614 67.582 337.084 67.1849C338.581 65.8275 340.759 66.738 342.505 66.7166C342.172 66.1151 341.698 65.5184 341.274 65.0025C340.646 64.7577 340.061 64.4676 339.345 64.4676C337.819 63.5809 336.791 65.0691 335.622 65.8013C335.311 66.4076 335.155 67.2943 335.469 67.8958Z" fill="white"/>
<path fill-rule="evenodd" clip-rule="evenodd" d="M335.512 72.4746C335.512 72.4128 335.512 72.3415 335.579 72.3225C335.78 72.5008 335.555 72.9216 335.893 73.0095C336.475 72.7242 337.014 72.3225 337.551 71.9468C339.056 71.9468 339.952 70.5014 341.429 70.5014C343.894 70.9436 346.344 71.4333 348.493 72.6339C348.34 71.1884 347.082 69.8761 345.807 69.2271C345.086 68.9822 344.525 69.365 344.01 69.762C342.505 70.7011 343.293 68.4069 342.239 68.3594C340.87 68.7873 339.456 69.2509 337.935 69.1201C337.036 69.4506 336.406 70.2708 335.399 70.1852C335.354 70.9198 335.241 71.8113 335.512 72.4746Z" fill="white"/>
<path fill-rule="evenodd" clip-rule="evenodd" d="M336.545 77.4408C337.012 77.9281 337.796 77.8378 338.474 77.9281L340.422 77.1745C340.446 76.8179 339.84 76.7252 339.972 76.3306C340.511 75.7291 341.254 76.1499 341.922 75.9026C342.869 75.7719 343.832 74.8376 344.769 75.527C344.748 75.6364 344.817 75.7956 344.728 75.9026C344.431 76.5944 344.93 77.0152 345.466 77.2815C346.566 77.486 347.597 78.4868 348.697 78.0375C348.587 77.127 348.34 76.283 348.112 75.4129C347.194 75.256 346.545 74.5 345.692 74.1862C345.308 74.5428 344.817 74.8114 344.345 74.7663C342.617 74.3669 340.554 73.2994 338.807 74.3906C338.177 75.1443 337.055 74.9232 336.204 75.2536C336.252 76.0167 336.339 76.749 336.545 77.4408Z" fill="white"/>
<path fill-rule="evenodd" clip-rule="evenodd" d="M337.283 90.6638C337.146 91.0418 336.768 91.667 337.46 91.843C338.897 91.8905 340.735 91.1559 341.858 92.2661C342.237 92.5586 342.057 93.1553 342.036 93.5357L343.916 95.0952C344.098 94.1585 344.431 93.3122 344.455 92.3089C344.302 91.5981 343.94 90.9063 343.315 90.4403C342.079 90.4403 341.36 89.0068 340.038 89.1898C339.345 89.0305 338.742 89.6415 338.042 89.6415C337.728 89.953 337.551 90.3333 337.283 90.6638Z" fill="white"/>
<path fill-rule="evenodd" clip-rule="evenodd" d="M337.822 80.1772C338.112 80.7739 338.452 81.7558 339.011 81.8223C340.333 81.2446 342.26 80.8856 343.743 81.5109C344.237 81.5988 344.237 82.1552 344.127 82.5141C344.886 82.9587 345.809 83.3106 346.614 83.8027L346.391 82.469C346.343 81.0211 344.505 80.8856 344.393 79.4592C342.89 78.9719 341.208 78.8173 339.617 79.1953C339.097 79.6637 338.361 79.5971 337.731 79.7326C337.69 79.9085 337.798 80.0179 337.822 80.1772Z" fill="white"/>
<path fill-rule="evenodd" clip-rule="evenodd" d="M338.205 87.3854C339.08 87.1406 339.636 86.1825 340.58 86.0969C342.015 86.1207 343.294 86.6936 344.187 87.9203C344.731 88.2746 344.616 89.1899 345.309 89.1899C345.107 88.0963 345.467 87.0954 345.424 85.9828C344.477 84.428 342.153 85.6262 341.277 83.8027L339.619 83.9121C338.431 84.2021 338.747 85.5834 338.584 86.5177C338.45 86.8077 338.181 87.0288 338.205 87.3854Z" fill="white"/>
<path fill-rule="evenodd" clip-rule="evenodd" d="M346.43 97.116C347.127 98.4949 348.655 99.5433 348.809 101.124C349.168 100.699 349.415 100.211 349.662 99.7454C349.638 99.2984 349.12 99.2984 348.917 98.9442C348.715 98.3665 349.032 97.8554 349.12 97.3395C348.83 96.5145 348.133 95.7371 347.35 95.2498L346.43 97.116Z" fill="white"/>
<path fill-rule="evenodd" clip-rule="evenodd" d="M349.195 93.6023L350.807 95.7823C351.5 94.6911 351.5 93.0912 351.231 91.7741C351.078 91.5292 350.783 91.1298 350.381 91.3081C349.772 91.9334 349.686 92.8867 349.195 93.6023Z" fill="white"/>
<path fill-rule="evenodd" clip-rule="evenodd" d="M342.62 32.7014C343.204 32.9914 343.765 33.2577 344.457 33.3005C344.931 33.058 345.538 32.8797 346.12 33.0342C346.949 33.5691 347.957 32.9225 348.918 32.9676C348.07 32.1688 347.102 31.6791 346.12 31.2131C344.862 31.477 343.856 32.3638 342.62 32.7014Z" fill="white"/>
<path fill-rule="evenodd" clip-rule="evenodd" d="M351.393 34.7933C352.576 34.9026 353.429 35.9463 354.236 36.8212C355.247 36.9733 356.009 37.6842 356.613 38.4211L356.232 37.2396C355.964 36.058 355.223 35.1451 354.464 34.2156C353.388 34.2821 352.329 34.3701 351.393 34.7933Z" fill="white"/>
<path fill-rule="evenodd" clip-rule="evenodd" d="M267.697 25.0295L268.346 25.0961C270.098 25.9638 272.923 26.4084 273.079 28.9213C271.313 29.6131 269.607 30.5498 268.195 31.9691C267.119 30.8779 264.941 31.4793 264.584 29.5679C264.922 27.7659 265.569 25.5003 267.697 25.0295Z" fill="black"/>
<path fill-rule="evenodd" clip-rule="evenodd" d="M269.384 36.3124C271.421 36.1365 273.395 36.4194 275.507 36.2458C276.022 36.4669 276.559 36.9139 276.805 37.425C276.738 39.8262 275.998 42.1203 275.885 44.588C274.967 44.9708 274.069 45.7244 273.846 46.7253C273.014 46.9678 272.274 47.4623 271.466 47.8355C271.107 47.0819 271.174 45.9455 271.807 45.325C272.679 44.0983 274.946 44.3883 274.761 42.4532C275.346 41.5165 274.785 40.3159 274.809 39.3364C274.584 38.6042 274.361 39.5813 274.002 39.5575C273.285 39.7097 272.545 39.7572 271.919 39.4054C271.445 38.9109 270.862 38.5139 270.728 37.8458C270.1 37.5344 269.362 37.0446 269.048 36.398L269.384 36.3124Z" fill="black"/>
<path fill-rule="evenodd" clip-rule="evenodd" d="M271.85 50.8191C272.808 50.9499 273.821 50.5291 274.65 50.995C274.47 51.3065 274.001 51.4396 273.62 51.5299L272.118 52.2217C271.557 52.0839 271.871 51.1947 271.85 50.8191Z" fill="black"/>
<path fill-rule="evenodd" clip-rule="evenodd" d="M275.775 32.2377C276.735 31.9262 277.77 31.2844 278.8 31.5958C278.06 32.3304 277.478 33.2861 276.92 34.1729L273.848 34.1087C274.179 33.3099 275.03 32.6418 275.775 32.2377Z" fill="black"/>
<path fill-rule="evenodd" clip-rule="evenodd" d="M284.768 31.5056C286.042 31.2845 285.975 32.9296 287.142 32.9986C287.346 33.2648 287.638 33.5073 287.523 33.9067C286.85 34.173 285.865 34.0422 285.099 34.2182C284.09 33.6619 284.744 31.9264 283.148 32.0381C283.062 31.9074 282.88 31.6387 283.105 31.5484C283.601 31.3748 284.246 31.439 284.768 31.5056Z" fill="black"/>
<path fill-rule="evenodd" clip-rule="evenodd" d="M283.961 37.4703C284.519 36.6881 285.375 36.6263 286.18 36.467L291.989 36.5788C292.236 36.7999 291.766 36.9996 291.766 37.2682C291.407 37.601 290.889 37.6914 290.575 38.0052C289.815 38.029 289.878 38.9134 289.341 39.2937C288.509 40.1163 287.302 39.7407 286.336 39.6052C285.998 39.3603 285.619 39.0251 285.461 38.6471L285.193 38.9134C285.531 40.1615 285.44 41.5427 285.684 42.8075L287.074 43.7228C287.098 45.7697 289.521 45.2134 290.575 46.3498C290.328 47.082 289.835 47.7049 289.3 48.3301C288.447 47.5052 287.481 46.9679 286.451 46.616C286.362 45.4131 285.039 44.7046 284.296 44.1008C284.095 41.9207 284.05 39.6955 283.695 37.582L283.961 37.4703Z" fill="black"/>
<path fill-rule="evenodd" clip-rule="evenodd" d="M286.067 51.1947H288.76L288.422 52.5974L285.729 51.461C285.667 51.2399 285.909 51.1733 286.067 51.1947Z" fill="black"/>
<path fill-rule="evenodd" clip-rule="evenodd" d="M290.911 25.99L292.907 25.3647C294.052 25.8973 295.128 26.5677 296.18 27.3213C297.012 28.8381 296.873 30.8802 296.494 32.5706C295.888 33.241 294.565 32.5706 294.074 33.638H293.983C293.24 31.5483 291.136 29.6821 289.183 28.7216C289.497 27.6565 289.835 26.6129 290.911 25.99Z" fill="black"/>
<path fill-rule="evenodd" clip-rule="evenodd" d="M337.685 110.755H349.65C351.421 110.489 353.305 110.532 354.716 109.238C360.707 110.154 366.782 108.684 371.491 105.415C373.976 103.423 376.209 101.122 378.014 98.6091C379.605 96.3934 380.863 94.3227 381.676 91.8431C382.279 90.3097 382.759 88.7192 383.121 87.0812C384.829 79.3714 383.933 70.7487 381.407 63.4074C380.937 62.0451 380.413 60.7328 379.835 59.4728C376.677 52.9969 372.382 46.0121 365.759 41.9136C362.028 39.6051 358.598 36.0343 356.492 32.3446C355.347 31.3176 354.247 29.9625 352.768 29.7176C353.173 30.3857 353.619 31.03 353.734 31.8074L353.643 31.9191C352.075 31.9643 350.839 31.1417 349.763 30.1361L350.954 29.071C350.503 28.8499 349.988 28.7572 349.495 28.6502C344.963 28.1391 341.241 30.205 337.23 31.2083L337.163 31.4294C339.626 32.5182 340.141 35.2094 341.579 37.0376C341.939 36.612 342.545 36.9235 343.036 36.8783C343.753 36.9235 344.426 37.4346 345.119 37.2563C345.143 36.6572 344.81 36.1912 344.695 35.6587C345.119 35.4542 345.639 35.6349 346.108 35.6587C347.407 36.4123 349.495 35.5208 350.302 37.2563C348.821 37.349 347.431 37.6557 346.041 37.9909C346.13 38.5472 346.691 38.9941 346.648 39.5505C345.457 39.056 344.203 38.7517 342.878 38.5924L342.816 38.7897C344.498 40.7486 346.803 41.9064 349.159 42.5982C352.545 43.3756 355.526 41.7757 358.797 42.332C366.832 45.9812 373.691 54.3282 376.677 62.2496C376.823 62.63 376.962 63.0151 377.096 63.4026C379.595 70.6369 380.068 79.5354 377.566 87.0764C376.233 90.2193 374.767 93.1768 372.416 95.7325C371.527 96.8142 370.542 97.7817 369.473 98.6043C366.106 101.205 361.956 102.349 357.681 101.181C357.415 101.008 356.871 100.96 356.959 100.494C357.11 99.8762 357.249 99.2438 357.371 98.6043C358.083 94.9836 358.407 91.1798 358.22 87.3808C358.21 87.2167 358.208 87.0527 358.201 86.891C357.966 81.3708 356.856 76.4044 354.81 71.6307C353.501 68.8896 351.941 65.9012 349.979 63.2172C347.637 60.0172 344.728 57.2523 340.995 55.8735C338.706 55.272 335.878 55.1626 334.155 57.055C332.919 58.1225 332.406 59.5679 332.583 61.1465C330.654 62.3637 328.486 63.0198 326.125 63.2172C325.548 63.2671 324.953 63.4739 324.357 63.4715C323.784 63.4977 323.225 63.4715 322.686 63.4026C319.839 63.0555 316.969 61.5411 314.785 59.7985C314.74 58.6479 314.67 57.5519 314.627 56.3323C313.374 55.6857 312.344 54.4589 312.252 53.0159L312.367 52.9041C313.084 53.1252 313.712 53.4818 314.359 53.8622C314.067 52.1267 313.733 50.4127 312.859 48.9006C312.051 48.5654 311.239 48.3015 310.479 47.8974C309.604 47.3197 309.044 46.2737 308.914 45.3156C309.696 46.0763 311.064 45.8077 311.67 46.6089C310.618 43.5159 310.594 39.9784 308.866 37.1517C307.992 35.0596 305.703 34.1039 304.134 32.5657C303.527 31.8335 303.283 30.8112 302.183 30.6971C301.287 30.476 301.217 29.4728 301.061 28.8309C301.622 28.8951 302.092 29.2755 302.566 29.3634C301.263 25.9353 300.12 22.1338 296.599 19.9538L295.993 20.3294C294.627 20.5339 293.168 20.6195 291.799 20.6646C292.406 19.7731 293.482 19.3975 294.335 18.9933C293.345 18.2611 292.535 18.0828 291.299 17.8807C290.582 18.5963 289.288 18.9482 288.368 19.1479L288.258 19.0623C288.234 18.2635 288.047 17.2793 289.259 17.0819C288.095 16.5256 286.166 16.7467 284.975 17.0819C284.637 17.9497 283.68 18.7271 283.743 19.7493C283.053 20.4649 282.559 21.4183 281.838 21.9318C281.818 20.2177 282.549 18.6367 282.866 17.1937C281.857 17.5693 280.831 18.1018 279.846 18.5725C278.253 17.6596 276.575 16.7467 274.874 16.0597C274.716 15.9907 274.378 15.9242 274.445 16.2118C275.902 17.2579 275.339 19.2144 275.494 20.7074L274.574 19.9538C274.126 18.8174 272.83 17.9948 272.609 16.7467C271.083 17.0368 270.107 17.4385 268.694 18.04L268.497 18.1494C269.549 18.1494 270.445 18.9719 270.963 19.7945C269.372 19.8848 267.958 19.2596 266.391 19.1074C266.232 18.9505 266.101 18.7722 265.849 18.796C265.063 19.0861 264.394 19.6424 263.697 20.1773C262.151 21.6869 260.579 23.3606 259.841 25.3599C260.359 25.4503 261.008 25.4289 261.389 25.7403C260.541 26.2514 259.798 27.1192 258.967 27.6089C258.677 28.7667 258.72 30.079 258.653 31.3485C258.003 32.3256 257.129 33.1934 256.702 34.2822C255.312 38.754 254.953 43.7156 255.156 48.7889C254.706 49.2097 254.121 49.4831 253.699 49.8136L253.745 54.352H253.855C254.061 53.3939 255.204 52.8613 255.897 52.2171H256.122C256.012 53.2393 255.875 54.2616 255.854 55.31L254.553 56.3775C253.256 57.5115 254.354 59.2208 254.239 60.6448C254.332 61.0252 254.394 61.5815 254.67 61.6719C254.823 61.1156 255.317 60.7138 255.629 60.2264C256.189 60.0885 256.681 59.6464 257.196 59.5798C256.911 60.69 256.527 61.7812 256.074 62.8487C255.861 62.9889 255.607 63.1815 255.391 63.405C255.164 63.6498 254.981 63.9304 254.938 64.2323C255.945 69.5053 257.531 74.7094 259.35 79.6709C258.114 81.7369 257.416 84.176 256.388 86.3133C256.242 86.6129 256.11 86.9148 255.986 87.2262C254.955 89.8152 254.641 92.7037 253.359 95.1928C252.844 94.8338 252.286 94.5675 251.703 94.3227C249.276 93.5239 246.474 94.035 244.706 95.8799C243.134 95.5898 241.519 95.8561 240.282 96.6786C239.4 97.3396 238.715 98.1336 238.324 99.0631C238.061 99.7074 237.934 100.409 237.977 101.177C236.966 101.866 236.426 102.934 236.093 104.001C235.621 106.407 236.472 108.905 237.862 110.753H337.685V110.755Z" fill="white"/>
<path fill-rule="evenodd" clip-rule="evenodd" d="M381.407 63.4098C380.937 62.0476 380.413 60.7352 379.835 59.4752C376.677 52.9993 372.382 46.0146 365.759 41.916C362.028 39.6076 358.598 36.0368 356.492 32.3471C355.347 31.3201 354.247 29.965 352.768 29.7201C353.173 30.3881 353.619 31.0324 353.734 31.8098L353.643 31.9215C352.075 31.9667 350.839 31.1441 349.763 30.1385L350.954 29.0734C350.503 28.8523 349.988 28.7596 349.495 28.6526C344.963 28.1415 341.241 30.2074 337.23 31.2107L337.163 31.4318C339.626 32.5206 340.142 35.2118 341.579 37.04C341.939 36.6145 342.545 36.9259 343.036 36.8807C343.753 36.9259 344.426 37.437 345.119 37.2587C345.143 36.6596 344.81 36.1937 344.695 35.6611C345.119 35.4567 345.639 35.6374 346.108 35.6611C347.407 36.4148 349.495 35.5232 350.302 37.2587C348.821 37.3514 347.431 37.6581 346.041 37.9933C346.13 38.5496 346.691 38.9966 346.648 39.5529C345.457 39.0584 344.203 38.7541 342.878 38.5948L342.816 38.7921C344.498 40.7511 346.803 41.9089 349.159 42.6007C352.545 43.3781 355.526 41.7781 358.797 42.3344C366.832 45.9837 373.691 54.3306 376.677 62.252C376.823 62.6324 376.962 63.0175 377.096 63.405C379.595 70.6394 380.068 79.5379 377.566 87.0789C376.233 90.2218 374.767 93.1792 372.416 95.7349C371.527 96.8166 370.542 97.7842 369.473 98.6068C366.106 101.208 361.956 102.351 357.681 101.184C357.415 101.01 356.871 100.963 356.959 100.497C357.11 99.8786 357.249 99.2463 357.371 98.6068C358.083 94.986 358.407 91.1822 358.22 87.3832C358.21 87.2191 358.208 87.0551 358.201 86.8934C357.966 81.3732 356.856 76.4069 354.81 71.6331C353.501 68.892 351.941 65.9037 349.979 63.2196C347.637 60.0197 344.728 57.2548 340.995 55.8759C338.706 55.2744 335.878 55.1651 334.155 57.0575C332.919 58.1249 332.406 59.5703 332.583 61.1489C330.654 62.3661 328.486 63.0223 326.125 63.2196C325.548 63.2695 324.953 63.4764 324.357 63.474C323.784 63.5001 323.225 63.474 322.686 63.405C319.839 63.0579 316.969 61.5436 314.785 59.8009C314.74 58.6503 314.67 57.5543 314.627 56.3347C313.374 55.6881 312.344 54.4614 312.252 53.0183L312.367 52.9066C313.084 53.1277 313.712 53.4843 314.359 53.8647C314.067 52.1292 313.733 50.4151 312.859 48.9031C312.051 48.5679 311.239 48.304 310.479 47.8998C309.604 47.3221 309.044 46.2761 308.914 45.318C309.696 46.0788 311.064 45.8101 311.67 46.6113C310.618 43.5183 310.594 39.9808 308.866 37.1541C307.992 35.062 305.703 34.1063 304.134 32.5682C303.527 31.8359 303.283 30.8137 302.183 30.6996C301.287 30.4785 301.217 29.4752 301.061 28.8333C301.622 28.8975 302.092 29.2779 302.566 29.3659C301.263 25.9377 300.12 22.1363 296.599 19.9562L295.993 20.3319C294.627 20.5363 293.168 20.6219 291.799 20.6671C292.406 19.7756 293.482 19.3999 294.335 18.9958C293.345 18.2635 292.535 18.0852 291.299 17.8832C290.582 18.5988 289.288 18.9506 288.368 19.1503L288.258 19.0647C288.234 18.2659 288.047 17.2817 289.259 17.0844C288.095 16.5281 286.166 16.7492 284.975 17.0844C284.637 17.9521 283.68 18.7295 283.743 19.7518C283.053 20.4674 282.559 21.4207 281.838 21.9342C281.818 20.2201 282.549 18.6392 282.866 17.1961C281.857 17.5717 280.831 18.1043 279.846 18.575C278.253 17.6621 276.575 16.7492 274.874 16.0621C274.716 15.9932 274.378 15.9266 274.445 16.2143C275.902 17.2603 275.339 19.2169 275.494 20.7099L274.574 19.9562C274.126 18.8199 272.83 17.9973 272.609 16.7492C271.083 17.0392 270.107 17.441 268.694 18.0425L268.497 18.1518C269.549 18.1518 270.445 18.9744 270.963 19.7969C269.372 19.8873 267.958 19.262 266.391 19.1099C266.232 18.953 266.101 18.7747 265.849 18.7985C265.063 19.0885 264.394 19.6448 263.697 20.1797C262.151 21.6893 260.579 23.363 259.841 25.3624C260.359 25.4527 261.008 25.4313 261.389 25.7428C260.541 26.2539 259.798 27.1216 258.967 27.6114C258.677 28.7691 258.72 30.0814 258.653 31.351C258.003 32.3281 257.129 33.1958 256.702 34.2846C255.312 38.7565 254.953 43.718 255.156 48.7913C254.706 49.2121 254.121 49.4855 253.699 49.816L253.745 54.3544H253.855C254.061 53.3963 255.204 52.8638 255.897 52.2195H256.122C256.012 53.2418 255.875 54.264 255.854 55.3125L254.553 56.3799C253.256 57.5139 254.354 59.2232 254.239 60.6473C254.332 61.0277 254.394 61.584 254.67 61.6743C254.823 61.118 255.317 60.7162 255.629 60.2289C256.189 60.091 256.681 59.6488 257.196 59.5822C256.911 60.6925 256.527 61.7837 256.074 62.8511C255.861 62.9914 255.607 63.1839 255.391 63.4074C255.164 63.6523 254.981 63.9328 254.938 64.2347C255.945 69.5077 257.531 74.7118 259.35 79.6734C258.114 81.7393 257.416 84.1785 256.388 86.3157C256.242 86.6153 256.11 86.9172 255.986 87.2287C254.955 89.8176 254.641 92.7061 253.359 95.1952C252.844 94.8362 252.286 94.57 251.703 94.3251C249.276 93.5263 246.474 94.0374 244.706 95.8823C243.134 95.5922 241.519 95.8585 240.282 96.6811C239.4 97.342 238.715 98.136 238.324 99.0656C238.061 99.7099 237.934 100.411 237.977 101.179C236.966 101.868 236.426 102.936 236.093 104.003C235.621 106.409 236.472 108.908 237.862 110.755H277.491C276.908 110.068 276.369 109.11 275.962 108.287C275.113 107.016 275.696 105.216 275.605 103.747C276.412 102.13 277.232 100.504 278.154 98.9229C278.341 98.6044 278.528 98.2929 278.72 97.9839L280.539 97.2944C281.502 97.2944 282.312 96.605 283.23 96.8475C284.464 98.0742 284.464 95.6255 285.655 95.5138C288.435 95.1572 291.193 95.4235 292.76 97.7604C292.76 98.0718 293.259 98.0718 293.144 98.3619C292.784 98.4689 292.446 98.2478 292.068 98.2478C290.364 97.827 288.365 96.7548 286.686 97.7129C286.621 98.1123 286.535 98.5188 286.453 98.9182C286.369 99.3437 286.293 99.7598 286.257 100.159C287.354 100.471 288.274 101.25 289.103 102.094C289.664 101.006 290.853 100.516 291.907 100.159C292.827 100.359 293.836 100.383 294.601 100.96C296.015 102.254 295.317 104.455 295.185 106.1C296.46 106.811 297.874 107.215 299.173 107.902C298.567 108.442 297.764 108.661 297.023 108.929L294.872 108.504C294.625 108.328 294.196 108.328 294.107 108.016C293.391 108.77 292.516 109.773 292.068 110.75H322.789C322.384 109.837 321.915 109.127 321.354 108.283C320.724 106.947 320.975 105.121 320.906 103.697L323.777 99.358C325.344 99.3366 327.12 98.7565 328.821 99.0466C328.907 99.0085 328.989 98.9657 329.068 98.9158C329.775 98.4308 329.99 97.3039 331.042 97.4442C332.924 96.9355 334.361 97.7818 335.775 98.6258C335.727 98.7375 335.682 98.835 335.632 98.9158C335.04 99.8549 333.932 98.8064 333.125 99.0894C332.787 99.446 333.283 99.8668 333.348 100.271C333.64 100.668 333.055 100.623 332.857 100.692C332.387 100.758 331.872 100.647 331.51 100.271C331.421 100.157 331.488 100.026 331.311 100.005C330.903 100.668 330.321 101.272 330.165 102.028C330.678 102.52 331.373 103.007 331.622 103.633C332.138 104.367 331.217 104.921 331.04 105.568C330.973 105.698 330.767 105.698 330.702 105.568C330.228 105.301 329.828 104.631 329.31 104.807C328.859 106.79 329.466 108.77 329.197 110.75C330.072 110.955 331.102 110.705 332.044 110.75L332.428 106.566C332.828 103.854 334.448 101.583 336.353 99.5102C338.411 98.1146 339.739 100.872 341.261 101.828C341.51 101.873 341.421 102.14 341.529 102.294C341.507 102.741 341.038 102.917 340.724 103.052C339.78 103.383 339.085 102.361 338.502 101.759C337.944 102.361 337.695 103.159 337.045 103.63L337.268 103.694C338.014 104.431 338.725 105.209 338.888 106.188C338.797 107.075 338.349 107.943 337.539 108.392C336.938 107.365 336.441 106.231 336.041 105.185C336.063 105.232 336.015 105.251 335.972 105.299C334.735 105.629 334.407 107.008 334.201 108.123C334.268 109.215 333.439 109.659 333.659 110.748H349.653C351.424 110.482 353.307 110.524 354.719 109.231C360.71 110.146 366.784 108.677 371.493 105.408C373.978 103.416 376.212 101.115 378.016 98.602C379.607 96.3863 380.866 94.3156 381.678 91.836C382.282 90.3026 382.761 88.7121 383.123 87.0741C384.829 79.3715 383.933 70.7487 381.407 63.4098Z" fill="black"/>
<path fill-rule="evenodd" clip-rule="evenodd" d="M278.493 104.705C279.367 104.148 280.781 104.013 280.979 102.724C280.625 102.456 280.309 102.12 279.904 102.032L278.984 102.299C279.051 101.764 279.343 101.165 279.528 100.587L282.484 99.6313C282.077 100.965 281.923 102.634 281.787 104.17C282.055 106.44 282.393 108.865 283.56 110.755H280.373C280.016 108.665 277.815 107.149 278.493 104.705Z" fill="black"/>
<path fill-rule="evenodd" clip-rule="evenodd" d="M285.38 102.032H285.557L287.706 103.97L288.02 103.903C287.845 106.174 287.73 108.399 287.706 110.755H285.377C284.903 108.554 284.119 106.238 284.21 103.861C284.613 103.259 284.881 102.501 285.38 102.032Z" fill="black"/>
<path fill-rule="evenodd" clip-rule="evenodd" d="M290.175 104.172C290.603 103.618 290.781 102.679 291.631 102.572C292.237 102.589 292.798 102.679 293.251 103.105C294.034 104.082 293.267 105.332 292.982 106.309C292.666 107.8 292.125 109.355 291.634 110.758H289.37L290.175 104.172Z" fill="black"/>
<path fill-rule="evenodd" clip-rule="evenodd" d="M324.196 103.48C324.69 104.105 324.845 104.949 325.586 105.506C326.237 104.617 326.393 103.235 326.079 102.101L325.43 101.455C326.261 101.257 327.133 101.188 327.964 101.034C327.605 102.213 326.927 103.281 327.044 104.659C327.066 106.664 327.401 108.668 327.581 110.755H325.116C324.22 108.796 323.322 106.93 323.389 104.659C323.657 104.258 323.837 103.789 324.196 103.48Z" fill="black"/>
<path fill-rule="evenodd" clip-rule="evenodd" d="M334.805 60.7329C334.781 61.3106 334.357 61.9524 334.735 62.4469C335.279 61.8455 336.173 61.8669 336.892 61.6006C338.888 61.4199 340.793 62.0452 342.653 62.4921C342.183 61.7551 341.869 60.9326 341.352 60.2669C340.319 59.9983 338.749 60.7115 338.572 59.1947C337.944 58.6622 336.959 59.0425 336.307 59.0853C335.677 59.5299 335.164 60.0862 334.805 60.7329Z" fill="white"/>
<path fill-rule="evenodd" clip-rule="evenodd" d="M266.26 41.5177C266.251 41.5132 266.242 41.5042 266.228 41.4951C266.228 41.5042 266.233 41.5087 266.233 41.5177H266.26Z" fill="white"/>
<path fill-rule="evenodd" clip-rule="evenodd" d="M274.416 61.2986L275.763 60.0101C275.878 60.0101 275.967 60.0315 276.031 60.1171L275.921 62.5872C276.571 63.1886 277.373 63.386 278.227 63.4335C278.296 62.7678 278.811 62.2971 279.104 61.7194C279.35 61.2535 279.195 60.564 279.686 60.2336L279.844 60.3857C279.997 61.1227 279.954 61.9453 280.338 62.5872C280.383 62.9438 280.446 63.386 280.489 63.6998C281.478 63.7449 282.377 63.4787 283.137 63.1197C283.091 62.2757 283.386 61.5863 283.515 60.8113C283.721 60.5426 283.269 60.0505 283.829 60.0743C284.146 60.7423 284.704 61.4294 285.02 62.145C286.319 60.8327 286.863 59.121 287.17 57.3379C286.791 56.8292 286.209 56.8292 285.756 56.494C281.946 55.272 277.06 55.0271 273.381 56.9171C273.134 58.4244 273.448 60.0933 274.416 61.2986Z" fill="white"/>
<path fill-rule="evenodd" clip-rule="evenodd" d="M238.773 103.05C238.636 104.764 238.773 106.371 238.883 108.064C239.242 108.62 239.896 109.267 240.546 109.307L240.656 108.171C240.924 106.592 240.074 104.916 240.972 103.58C241.6 103.778 242.227 104.091 242.766 104.379C243.035 102.912 242.651 101.196 241.238 100.304L238.773 103.05Z" fill="white"/>
<path fill-rule="evenodd" clip-rule="evenodd" d="M244.313 100.644C243.438 103.25 242.789 106.457 243.843 109.2C244.449 108.796 245.075 108.418 245.611 107.864C245.501 105.77 245.209 103.54 246.464 101.8C247.561 102.135 248.304 103.181 248.726 104.201C249.471 103.269 249.715 101.975 249.425 100.734C249.471 99.7526 248.349 99.9785 247.81 99.5767C247.988 98.7517 247.964 97.8008 248.841 97.3301L246.153 97.5963C245.458 98.5782 244.696 99.5291 244.313 100.644Z" fill="white"/>
<path fill-rule="evenodd" clip-rule="evenodd" d="M249.853 108.333C249.966 108.53 249.853 108.889 250.081 108.934C250.414 107.063 251.938 105.853 252.772 104.203C253.172 103.654 253.153 102.869 253.802 102.449C254.675 102.449 255.305 103.072 256.158 103.138C256.426 103.34 256.019 103.518 255.998 103.74C255.82 105.256 255.238 106.507 255.348 108.066H255.504C256.692 106.818 257.5 105.475 258.375 104.051L258.528 102.786C258.734 101.272 257.076 100.295 255.993 99.6695L256.958 98.4428L255.612 97.9768C254.042 98.1313 252.628 98.778 251.531 100.005C250.165 102.491 249.942 105.306 249.853 108.333Z" fill="white"/>
<path fill-rule="evenodd" clip-rule="evenodd" d="M255.887 95.1286C256.4 95.2808 256.872 94.8623 257.385 95.0811C259.451 95.8394 261.603 96.6168 263.151 98.3286L264.991 102.981L265.912 100.107L265.305 98.5544C264.788 97.4418 263.376 97.5321 262.41 97.487C262.008 97.04 262.432 96.5289 262.569 96.1081C263.038 94.5271 261.088 94.6151 260.304 93.9708C260.35 93.0175 259.182 93.3456 258.531 93.26L258.308 92.9937C258.174 92.7893 257.838 92.7893 257.656 92.9462C257.615 92.8796 257.524 92.8345 257.57 92.7251L257.078 92.8345C256.379 93.4359 255.909 94.2133 255.887 95.1286Z" fill="white"/>
<path fill-rule="evenodd" clip-rule="evenodd" d="M257.184 90.0101C257.253 90.2954 257.431 90.5855 257.654 90.7661C258.665 90.4999 259.633 89.8057 260.795 90.2312C262.3 91.5436 263.867 92.9224 265.686 93.6333L266.338 93.5239C266.738 93.6547 267.186 93.676 267.455 94.1254C267.704 94.7268 267.076 95.0787 266.877 95.5684C267.884 96.3054 267.483 97.6154 268.109 98.5045L269.722 96.372C269.345 95.4353 269.746 93.8353 268.269 93.745C267.771 93.5001 267.438 93.0128 267.457 92.4565C266.496 91.5887 265.308 91.2107 264.344 90.3192C263.553 89.6987 263.086 88.743 262.08 88.5195C261.382 88.1392 260.62 87.9395 259.815 87.7659C258.308 87.5377 258.174 89.3183 257.184 90.0101Z" fill="white"/>
<path fill-rule="evenodd" clip-rule="evenodd" d="M259.34 85.6262L259.609 86.0541C260.73 85.9852 261.737 85.4978 262.837 85.5168C263.575 85.9614 264.541 85.9376 265.303 86.318C265.909 87.1429 266.561 88.0725 267.452 88.6288C269.271 88.8951 270.277 90.8374 270.905 92.2567V91.5696C271.174 90.6115 270.881 89.4965 270.529 88.6288C270.079 88.1842 269.424 87.8966 268.957 87.4996C268.866 87.2095 268.933 87.0716 269.024 86.8077C268.327 86.0731 267.296 85.6714 266.443 85.0913C265.255 83.3772 262.971 83.8503 261.152 83.3772L259.34 85.6262Z" fill="white"/>
<path fill-rule="evenodd" clip-rule="evenodd" d="M259.302 69.3056C259.501 69.9974 259.743 70.8628 259.88 71.5998C260.505 70.2209 261.743 69.5956 262.841 68.464C262.211 68.0408 261.427 67.8388 260.735 67.708V67.6628C260.239 68.1478 259.477 68.6399 259.302 69.3056Z" fill="white"/>
<path fill-rule="evenodd" clip-rule="evenodd" d="M263.376 76.6278L264.382 75.6055C265.393 74.5785 266.227 73.3969 266.378 72.087C265.662 71.6662 264.72 71.9562 264.028 72.2011C263.781 73.6418 263.398 75.0658 263.376 76.6278Z" fill="white"/>
<path fill-rule="evenodd" clip-rule="evenodd" d="M264.114 79.7662C265.662 79.8518 267.166 80.1632 268.422 79.2955L269.679 75.292C269.272 75.2682 268.867 75.0876 268.489 75.2255C267.66 77.0465 266.002 78.8509 264.114 79.7662Z" fill="white"/>
<path fill-rule="evenodd" clip-rule="evenodd" d="M264.57 65.5707C265.578 67.0376 267.262 68.6803 268.985 69.1511C268.786 67.2801 267.171 65.9892 266.34 64.3916L266.294 63.8567C265.645 63.2338 264.859 62.8082 264.186 62.4778C264.078 63.5452 264.371 64.5651 264.57 65.5707Z" fill="white"/>
<path fill-rule="evenodd" clip-rule="evenodd" d="M270.036 79.942C271.224 80.1417 272.503 79.942 273.601 79.6068C275.191 79.2264 276.068 77.4933 276.605 76.1382H274.609L272.46 78.2279C271.61 78.6701 270.802 79.3381 270.036 79.942Z" fill="white"/>
<path fill-rule="evenodd" clip-rule="evenodd" d="M269.794 63.5452C270.131 65.283 270.874 66.8616 271.883 68.3522L272.148 65.0358L269.794 63.5452Z" fill="white"/>
<path fill-rule="evenodd" clip-rule="evenodd" d="M277.145 72.1989C277.282 71.0863 276.812 69.793 276.68 68.6638C276.007 68.2168 275.068 68.2596 274.371 67.8198C274.416 69.5719 275.801 71.0649 277.145 72.1989Z" fill="white"/>
<path fill-rule="evenodd" clip-rule="evenodd" d="M275.106 83.5009C276.517 83.0563 277.885 82.5665 279.188 81.8557C280.017 80.6742 281.27 79.6091 281.452 78.2302C280.415 78.5179 279.524 78.1827 278.558 78.6534C277.976 79.6971 277.614 80.881 276.496 81.6346C276.316 82.3859 275.487 82.8994 275.106 83.5009Z" fill="white"/>
<path fill-rule="evenodd" clip-rule="evenodd" d="M277.301 86.2374L278.983 88.4174C279.882 88.7051 281.003 88.6195 281.786 88.1083L281.185 86.1304C279.994 86.5702 278.581 86.4418 277.301 86.2374Z" fill="white"/>
<path fill-rule="evenodd" clip-rule="evenodd" d="M280.105 70.4872L280.755 73.4208C282.324 72.1561 282.647 70.3089 282.602 68.3523C281.706 69.3746 281.186 69.9974 280.105 70.4872Z" fill="white"/>
<path fill-rule="evenodd" clip-rule="evenodd" d="M284.527 75.6675C284.548 76.093 284.658 76.4924 284.903 76.8253C286.652 77.4505 286.831 79.5592 288.448 80.3604C289.498 80.8311 290.712 80.2511 291.627 79.8255C290.935 79.0481 290.152 78.5132 289.478 77.693C289.009 77.4933 288.532 77.2033 288.558 76.6256L284.527 75.6675Z" fill="white"/>
<path fill-rule="evenodd" clip-rule="evenodd" d="M285.916 86.1729C286.676 87.0359 287.706 87.4852 288.781 87.7254C288.604 87.4829 288.896 87.7254 288.94 87.5732L287.593 84.6348C286.92 84.6585 286.223 84.7941 285.598 84.7489C285.648 85.2386 285.756 85.726 285.916 86.1729Z" fill="white"/>
<path fill-rule="evenodd" clip-rule="evenodd" d="M288.293 72.4675C287.663 71.0221 287.404 69.2604 287.22 67.6628C286.551 68.464 285.854 68.9775 285.224 69.7953C284.932 71.4405 287.306 71.8423 288.293 72.4675Z" fill="white"/>
<path fill-rule="evenodd" clip-rule="evenodd" d="M291.025 70.9508C291.838 72.0016 293.606 71.645 294.593 71.3311C294.121 70.53 292.602 70.0592 292.333 69.1986C292.18 67.6629 291.864 66.1675 291.368 64.772C290.585 66.6596 289.636 68.9086 291.025 70.9508Z" fill="white"/>
<path fill-rule="evenodd" clip-rule="evenodd" d="M292.439 75.6674C294.682 77.2911 296.882 79.1835 300.017 78.4917C300.242 78.3395 300.625 78.3562 300.668 78.0709C299.748 77.4932 298.763 77.0439 297.822 76.5113L296.748 74.9565H296.254C295.042 75.3536 293.743 75.5152 292.439 75.6674Z" fill="white"/>
<path fill-rule="evenodd" clip-rule="evenodd" d="M292.485 93.7117H292.646C293.99 92.6443 295.581 92.2853 297.172 91.8431C297.601 92 297.331 92.4684 297.714 92.6443C298.677 92.2473 299.844 92.3329 300.829 92C302.018 92.0428 302.984 92.0642 303.947 92.5754C304.714 93.5786 306.144 93.4645 307.134 94.1349L306.974 92.5754C304.891 90.1504 301.639 89.9745 298.634 90.0197L298.567 89.7083C297.851 89.7083 297.043 89.8604 296.37 90.1742C295.409 90.2194 294.486 90.6853 293.566 90.973C293.137 91.8194 292.799 92.8488 292.485 93.7117Z" fill="white"/>
<path fill-rule="evenodd" clip-rule="evenodd" d="M294.287 66.3696C295.159 67.506 296.46 68.3761 297.94 68.0861C297.181 67.3467 296.301 66.5693 296.258 65.5257C296.483 63.5453 294.287 63.386 293.211 62.3638C293.57 63.6998 293.522 65.1905 294.287 66.3696Z" fill="white"/>
<path fill-rule="evenodd" clip-rule="evenodd" d="M294.057 97.6487H294.326C295.512 96.9164 297.24 97.4751 298.407 96.6953C299.056 96.3601 299.101 97.2516 299.55 97.4965C300.65 98.1598 300.786 100.164 302.332 99.698C304.189 100.654 303.722 102.9 303.789 104.545L305.517 103.48C305.358 102.613 305.854 101.567 305.291 100.811C304.865 99.8549 303.698 99.7669 303.137 98.9895C303.813 97.8531 302.286 97.3158 301.97 96.4933L302.063 96.3839L304.441 96.6953C305.248 97.1827 305.54 98.0742 305.787 98.8992C307.645 99.2106 308.093 101.3 308.744 102.634C309.128 101.723 309.284 100.742 309.665 99.8525C309.689 99.1179 308.701 99.1179 308.208 98.785C308.076 97.6487 307.558 96.5836 306.549 95.8965C304.486 95.3783 302.672 94.249 300.407 94.249L298.524 94.8243C297.489 95.0716 296.391 94.7602 295.605 95.4686C294.436 95.559 294.349 96.8285 294.057 97.6487Z" fill="white"/>
<path fill-rule="evenodd" clip-rule="evenodd" d="M295.243 88.4837L295.672 88.6858C296.592 88.2626 297.51 87.7729 298.476 87.4163C299.974 86.9955 301.141 88.6858 302.401 87.616C302.868 87.2855 303.276 87.7729 303.63 88.0415C304.177 89.0186 305.428 88.9521 306.372 89.2159C305.9 87.9512 305.315 86.2157 303.678 86.0136C303.029 85.726 302.265 85.7497 301.639 85.3694C299.911 83.4794 298.792 86.9289 296.901 86.085C296.233 86.8148 295.401 87.509 295.243 88.4837Z" fill="white"/>
<path fill-rule="evenodd" clip-rule="evenodd" d="M295.672 99.3199C296.388 99.9214 297.129 100.946 298.252 100.811C299.639 101.455 299.057 103.281 299.817 104.239L300.624 103.526L300.557 103.478L300.67 103.369L300.717 103.43C300.94 102.767 300.626 101.588 300.243 100.806C299.73 100.452 299.127 100.83 298.631 100.494C298.564 99.7788 298.116 99.4269 297.601 98.9847C297.241 98.7137 296.769 99.0703 296.364 99.0466L295.672 99.3199Z" fill="white"/>
<path fill-rule="evenodd" clip-rule="evenodd" d="M298.476 72.1987C299.214 73.4207 300.649 74.1791 301.794 75.0231C302.738 75.4462 303.967 75.558 304.978 75.3321C304.012 74.5547 303.136 73.6632 302.333 72.7313C302.017 72.2843 301.95 71.7256 301.526 71.3286C300.472 71.5307 299.281 71.5069 298.476 72.1987Z" fill="white"/>
<path fill-rule="evenodd" clip-rule="evenodd" d="M299.712 64.237C300.743 65.5042 302.336 64.993 303.792 65.0382V64.8813L301.55 63.0127C300.922 63.21 300.251 63.7663 299.712 64.237Z" fill="white"/>
<path fill-rule="evenodd" clip-rule="evenodd" d="M258.428 43.2544L259.726 47.2603C259.702 44.9899 260.761 43.0951 260.536 40.7843L261.497 39.3579L259.456 39.9832C258.919 41.0054 258.471 42.0301 258.428 43.2544Z" fill="white"/>
<path fill-rule="evenodd" clip-rule="evenodd" d="M259.302 36.3124L261.073 35.2902V32.6846C260.328 33.1291 259.928 33.8899 259.345 34.4842L259.302 36.3124Z" fill="white"/>
<path fill-rule="evenodd" clip-rule="evenodd" d="M295.677 40.3612C295.25 40.9151 294.601 41.053 294.062 41.16C295.006 39.4506 295.454 37.0685 294.713 35.1309C295.205 34.955 295.744 34.8647 296.214 34.5984L296.168 34.5509L297.402 33.4834C299.039 32.3708 298.409 30.2597 299.015 28.6788C298.21 27.4354 297.963 25.921 296.796 24.875L296.863 24.8298C295.943 23.672 294.285 23.8075 293.029 23.2298C291.366 22.6735 290.088 23.8075 288.897 24.5635C288.382 24.6539 288.699 25.3195 288.138 25.2958C287.824 26.1183 287.44 27.0099 287.215 27.9228C284.996 27.6113 282.597 27.8562 280.826 29.1019C279.88 28.4101 278.742 28.2794 277.642 27.9679C276.834 27.8087 275.916 28.0987 275.334 27.6541C274.483 26.7008 274.299 24.9629 272.839 24.7204C272.324 24.5398 272.216 23.9835 272.216 23.4937C271.251 23.3344 270.395 22.8922 269.458 22.6926C268.023 22.0459 266.88 23.0729 265.804 23.76C265.329 23.9573 264.792 24.0263 264.344 24.2925C263.539 25.5406 262.779 26.8078 262.257 28.1867C262.417 29.3207 262.909 30.3192 263.493 31.2796C264.009 32.725 265.624 33.8614 266.99 34.4415C266.34 36.643 266.34 39.2652 266.99 41.4904C266.99 41.4904 266.954 41.5213 266.954 41.5142C266.954 41.5213 266.882 41.5807 266.882 41.5807C266.671 41.5807 266.436 41.6212 266.261 41.5142H266.233C266.554 43.6396 267.56 45.5034 269.19 47.0986C269.774 47.2983 269.638 47.9901 269.882 48.4323C270.04 48.6344 270.064 49.0552 269.997 49.2335C266.496 49.1241 263.378 49.9919 260.575 51.5705C259.858 51.9271 260.172 52.9042 260.105 53.596C262.08 52.3027 264.208 51.3494 266.563 50.9238C267.572 50.862 268.713 50.6124 269.681 50.8786L269.791 52.7972C267.126 54.1784 264.208 54.9772 261.924 57.2476C261.967 57.9347 261.833 58.7335 262.034 59.3135L264.078 57.6684C266.05 56.1754 268.114 54.9083 270.376 54.0857C270.985 54.7965 271.612 55.5573 272.42 55.9995C273.786 55.1294 275.269 54.4851 276.839 54.0857C277.668 53.596 278.993 54.0405 279.53 53.0634L279.909 51.0379C279.846 50.9928 279.798 50.9024 279.686 50.9238C278.634 50.3223 277.936 49.2787 278.027 48.0567C277.668 48.2326 277.268 48.3467 276.839 48.3634C276.484 48.2778 276.144 48.1875 275.988 47.8285C275.967 47.3863 275.739 46.7182 276.192 46.3878C277.646 45.4963 279.532 45.4511 281.37 45.5842C282.736 45.7649 284.711 45.696 285.185 47.2983C285.118 47.7667 285.161 48.2802 284.689 48.5892C284.196 48.8555 283.637 48.5655 283.187 48.3634C282.83 49.457 282.224 50.6789 280.992 51.0355L281.145 52.3241C281.299 52.9042 281.346 53.8599 282.267 53.6578C284.397 54.1737 286.283 55.2625 288.143 56.4393C288.773 55.8188 289.264 55.1056 289.71 54.459C293.034 55.5763 295.9 58.044 298.641 60.3382L298.749 58.4672C296.146 56.173 293.256 54.5517 290.249 53.2845C290.364 52.6831 290.498 52.103 290.522 51.4563C294.086 51.6584 297.472 52.7496 300.407 54.459L300.362 52.859C297.268 51.2115 293.882 50.1226 290.184 50.0798C290.045 49.8801 290.002 49.5901 290.026 49.3904C291.821 49.1027 293.096 47.2579 293.525 45.6508C294.447 44.6071 295.77 43.4708 295.456 41.916C295.495 41.7852 295.54 41.6497 295.588 41.5142C295.706 41.1314 295.806 40.7225 295.677 40.3612Z" fill="white"/>
<path fill-rule="evenodd" clip-rule="evenodd" d="M298.792 46.0813L300.63 45.5012L300.836 44.4813C301.351 42.9883 300.251 41.8757 299.712 40.6965L298.792 46.0813Z" fill="white"/>
<path fill-rule="evenodd" clip-rule="evenodd" d="M303.434 53.13C304.308 54.0881 305.161 55.6215 306.709 55.1555C306.594 54.5089 306.235 53.974 306.014 53.3963C305.612 52.9303 305.473 51.5942 304.668 52.0626C304.062 51.6632 303.908 50.9951 303.523 50.4602C303.348 51.2852 303.458 52.3074 303.434 53.13Z" fill="white"/>
<path fill-rule="evenodd" clip-rule="evenodd" d="M303.748 59.6487C304.086 60.1147 304.179 60.7186 304.51 61.1417C305.116 61.5388 306.014 61.4722 306.757 61.408C307.425 61.2511 307.854 61.9833 308.48 61.5625C307.696 61.0728 307.227 60.1836 306.489 59.5346C305.612 58.8499 304.67 59.4514 303.748 59.6487Z" fill="white"/>
<path fill-rule="evenodd" clip-rule="evenodd" d="M304.939 69.9974C306.486 70.9079 308.451 71.7995 310.516 71.488C310.739 71.3787 311.122 71.4001 311.165 71.1338C309.886 70.6868 308.544 69.4197 307.203 69.1534C306.462 68.0194 305.497 69.4435 304.556 69.3531C304.577 69.617 304.845 69.8167 304.939 69.9974Z" fill="white"/>
<path fill-rule="evenodd" clip-rule="evenodd" d="M309.595 89.6416L309.933 90.3524C310.273 92.668 311.747 94.8005 310.942 97.3372C311.615 97.8079 311.816 98.5853 312.245 99.2081H312.355C312.87 97.2753 312.513 95.2712 312.245 93.3337C312.446 91.5768 310.649 90.5545 309.595 89.6416Z" fill="white"/>
<path fill-rule="evenodd" clip-rule="evenodd" d="M309.983 66.8594C311.148 67.751 313.009 67.8365 314.353 67.3943C313.502 66.9284 312.561 66.4125 311.864 65.792L309.983 66.8594Z" fill="white"/>
<path fill-rule="evenodd" clip-rule="evenodd" d="M315.519 73.6871C315.409 74.6238 316.034 75.4012 316.707 75.8719C316.954 75.318 317.354 74.8449 317.4 74.2244C317.198 73.2687 316.659 72.3986 315.785 71.752C315.632 72.3748 315.45 72.9763 315.519 73.6871Z" fill="white"/>
<path fill-rule="evenodd" clip-rule="evenodd" d="M315.586 83.8361C315.426 84.8798 316.592 85.0153 317.083 85.593C317.488 86.0827 316.815 86.4179 316.815 86.8839C317.668 87.9727 318.164 89.2137 318.164 90.6639C318.497 89.3088 319.012 88.0179 319.194 86.6176C319.103 85.6358 317.536 85.8402 317.781 84.749C318.231 83.6364 317.692 82.5476 317.4 81.5419C317.313 81.3898 317.107 81.076 316.933 81.1687C316.525 82.0768 315.519 82.7235 315.586 83.8361Z" fill="white"/>
<path fill-rule="evenodd" clip-rule="evenodd" d="M318.658 78.5394L319.823 80.786C320.338 80.7194 320.673 80.2297 321.075 79.8731C321.389 78.9388 320.558 78.3373 320.316 77.5789C320.112 77.044 320.316 76.3355 319.933 75.8696C319.64 75.6889 319.307 75.3989 318.972 75.4892L318.658 78.5394Z" fill="white"/>
<path fill-rule="evenodd" clip-rule="evenodd" d="M320.156 72.6196C321.078 73.1759 322.131 73.9747 322.627 74.9566C323.41 77.227 324.666 79.2691 325.584 81.473C325.922 83.0087 326.19 84.3805 326.614 85.8901C326.775 86.2919 326.684 87.0693 327.314 87.0027C327.489 85.3124 327.827 83.6863 327.851 81.9294C327.29 81.1948 326.552 80.8857 325.854 80.4412V80.2843C325.946 79.9086 326.262 79.4593 326.729 79.5306C326.928 79.3072 327.537 79.0861 327.268 78.6843C326.101 77.5289 326.168 75.539 324.311 75.1801C323.659 74.9138 323.504 74.2434 323.437 73.6253C322.559 72.8859 321.261 72.6434 320.156 72.6196Z" fill="white"/>
<path fill-rule="evenodd" clip-rule="evenodd" d="M321.239 84.6802C322.379 85.7238 321.979 87.2382 321.888 88.6408C321.711 89.4872 322.784 88.9927 323.122 89.442C323.819 90.4643 323.414 91.9573 323.17 93.0675C323.776 92.1522 324.468 91.3534 324.938 90.3502C324.919 89.9746 325.41 89.7939 325.388 89.3255C325.587 88.6813 324.828 88.9713 324.512 88.9047C324.243 88.8382 323.953 88.6599 324.044 88.3033C324.622 87.1907 324.087 85.8569 323.862 84.7443C323.594 83.8314 323.977 82.6071 323.546 81.8059C322.827 82.7901 320.695 83.0112 321.239 84.6802Z" fill="white"/>
<path fill-rule="evenodd" clip-rule="evenodd" d="M323.321 68.8849C325.319 70.889 326.776 72.9003 328.927 74.8378C328.973 73.9677 328.86 73.1689 328.817 72.3226C328.503 71.7211 327.919 71.2789 327.423 70.8296C325.832 70.6774 325.003 68.5497 323.321 68.8849Z" fill="white"/>
<path fill-rule="evenodd" clip-rule="evenodd" d="M328.543 79.4856C328.591 79.6901 328.682 79.866 328.773 80.0633C329.645 81.4898 330.477 82.959 331.083 84.4924C330.901 82.8449 332.022 80.8003 330.539 79.5308C330.34 78.9935 329.672 79.1742 329.24 79.217L328.543 79.4856Z" fill="white"/>
<path fill-rule="evenodd" clip-rule="evenodd" d="M333.928 95.7373C334.556 96.0273 335.363 95.5162 335.969 95.1596C336.53 95.0264 337 95.3402 337.429 95.6279C337.606 95.9821 337.429 96.3173 337.496 96.6526C338.84 97.0282 340.161 97.5203 341.349 98.2977L341.728 97.9197C341.819 96.964 341.059 96.2722 340.338 95.7373C339.871 95.471 339.171 95.6279 338.838 95.2047C339.063 94.8481 339.063 94.3132 339.039 93.9138C338.299 93.9138 337.827 93.688 337.225 93.3361C336.842 93.2244 336.504 92.9106 336.19 93.3361C335.071 94.0897 335.004 95.2047 333.928 95.7373Z" fill="white"/>
<path fill-rule="evenodd" clip-rule="evenodd" d="M335.502 67.7412C336.061 67.5819 336.645 67.4274 337.115 67.0256C338.619 65.6681 340.792 66.581 342.543 66.5596C342.205 65.9582 341.731 65.3567 341.307 64.8456C340.677 64.6007 340.095 64.313 339.379 64.313C337.852 63.4215 336.825 64.9145 335.656 65.6467C335.339 66.2482 335.186 67.1373 335.502 67.7412Z" fill="white"/>
<path fill-rule="evenodd" clip-rule="evenodd" d="M335.541 72.3225C335.541 72.2536 335.541 72.1846 335.608 72.168C335.814 72.3439 335.586 72.7718 335.924 72.8574C336.506 72.5674 337.045 72.168 337.582 71.79C339.085 71.79 339.983 70.3422 341.46 70.3422C343.93 70.7891 346.375 71.2812 348.524 72.477C348.371 71.0363 347.11 69.7193 345.835 69.075C345.114 68.8301 344.553 69.2081 344.041 69.6099C342.54 70.5466 343.324 68.2524 342.272 68.2073C340.901 68.6281 339.487 69.0988 337.963 68.9609C337.067 69.2985 336.437 70.1187 335.428 70.0283C335.387 70.7677 335.277 71.6592 335.541 72.3225Z" fill="white"/>
<path fill-rule="evenodd" clip-rule="evenodd" d="M336.576 77.2816C337.046 77.7761 337.829 77.6858 338.505 77.7761L340.456 77.0153C340.477 76.6659 339.873 76.5708 340.008 76.1714C340.547 75.5699 341.282 75.9954 341.958 75.7506C342.898 75.6151 343.863 74.6855 344.805 75.3702C344.776 75.4843 344.846 75.6365 344.757 75.7506C344.467 76.44 344.958 76.8632 345.498 77.1295C346.598 77.3292 347.626 78.3324 348.726 77.8831C348.615 76.9702 348.371 76.131 348.146 75.2585C347.225 75.1039 346.574 74.3479 345.723 74.0341C345.344 74.3907 344.846 74.657 344.376 74.6118C342.648 74.21 340.583 73.1426 338.836 74.2338C338.208 74.9922 337.086 74.7687 336.233 75.1016C336.284 75.8576 336.372 76.5945 336.576 77.2816Z" fill="white"/>
<path fill-rule="evenodd" clip-rule="evenodd" d="M337.316 90.5093C337.182 90.8873 336.801 91.5078 337.498 91.6885C338.931 91.7313 340.771 90.9967 341.892 92.1093C342.273 92.3994 342.091 93.0008 342.067 93.3788L343.95 94.936C344.13 93.997 344.47 93.153 344.494 92.1521C344.336 91.4389 343.976 90.7518 343.349 90.2859C342.113 90.2859 341.399 88.8523 340.071 89.0282C339.379 88.8761 338.773 89.4871 338.076 89.4871C337.767 89.7961 337.585 90.1765 337.316 90.5093Z" fill="white"/>
<path fill-rule="evenodd" clip-rule="evenodd" d="M337.853 80.0181C338.143 80.6196 338.483 81.599 339.042 81.6632C340.364 81.0903 342.296 80.7313 343.774 81.3566C344.266 81.4421 344.266 81.9984 344.158 82.355C344.918 82.7996 345.838 83.1562 346.645 83.6436L346.42 82.3075C346.375 80.8621 344.539 80.7313 344.424 79.3049C342.921 78.8175 341.239 78.6582 339.648 79.0386C339.133 79.5046 338.39 79.4428 337.767 79.5735C337.721 79.7518 337.829 79.8659 337.853 80.0181Z" fill="white"/>
<path fill-rule="evenodd" clip-rule="evenodd" d="M338.234 87.2287C339.108 86.9814 339.671 86.0281 340.613 85.9378C342.046 85.9616 343.325 86.5416 344.223 87.7684C344.76 88.1178 344.647 89.0307 345.344 89.0307C345.138 87.9419 345.498 86.9434 345.452 85.826C344.516 84.2712 342.182 85.4742 341.308 83.646L339.65 83.7577C338.459 84.0502 338.775 85.429 338.62 86.3657C338.483 86.651 338.215 86.8745 338.234 87.2287Z" fill="white"/>
<path fill-rule="evenodd" clip-rule="evenodd" d="M346.468 96.9616C347.16 98.3404 348.689 99.3865 348.842 100.965C349.199 100.544 349.448 100.055 349.693 99.5862C349.669 99.1416 349.154 99.1416 348.955 98.785C348.749 98.2073 349.063 97.6962 349.154 97.1827C348.861 96.3601 348.164 95.5827 347.383 95.0906L346.468 96.9616Z" fill="white"/>
<path fill-rule="evenodd" clip-rule="evenodd" d="M349.226 93.4455L350.839 95.6279C351.531 94.5391 351.531 92.9344 351.263 91.622C351.109 91.3748 350.815 90.9754 350.414 91.1561C349.808 91.7766 349.717 92.7347 349.226 93.4455Z" fill="white"/>
<path fill-rule="evenodd" clip-rule="evenodd" d="M342.653 32.5468C343.235 32.8368 343.796 33.1031 344.495 33.1482C344.963 32.9034 345.571 32.7227 346.153 32.882C346.982 33.4169 347.991 32.7702 348.956 32.8154C348.103 32.0142 347.135 31.5221 346.153 31.0562C344.895 31.32 343.889 32.2116 342.653 32.5468Z" fill="white"/>
<path fill-rule="evenodd" clip-rule="evenodd" d="M351.422 34.634C352.61 34.7458 353.465 35.7918 354.268 36.6596C355.276 36.8117 356.038 37.5273 356.642 38.2595L356.266 37.0827C355.997 35.9012 355.252 34.9883 354.493 34.054C353.417 34.1229 352.361 34.2156 351.422 34.634Z" fill="white"/>
<path fill-rule="evenodd" clip-rule="evenodd" d="M267.733 24.8772L268.384 24.9461C270.129 25.8139 272.954 26.2584 273.117 28.7713C271.342 29.4631 269.638 30.3951 268.224 31.8191C267.15 30.7303 264.974 31.3294 264.613 29.418C264.953 27.6112 265.6 25.3408 267.733 24.8772Z" fill="black"/>
<path fill-rule="evenodd" clip-rule="evenodd" d="M269.417 36.1605C271.459 35.9798 273.431 36.2675 275.54 36.0916C276.053 36.3126 276.59 36.7548 276.839 37.2684C276.769 39.6719 276.031 41.966 275.921 44.4337C275.001 44.8094 274.102 45.5701 273.877 46.5686C273.048 46.8135 272.305 47.3009 271.497 47.6789C271.145 46.9252 271.207 45.7888 271.838 45.1636C272.712 43.9416 274.979 44.2269 274.8 42.2917C275.382 41.3598 274.824 40.1569 274.84 39.1798C274.617 38.4428 274.392 39.4246 274.035 39.4009C273.319 39.553 272.581 39.5982 271.95 39.2416C271.478 38.7518 270.901 38.3501 270.762 37.6868C270.131 37.3753 269.396 36.888 269.079 36.2413L269.417 36.1605Z" fill="black"/>
<path fill-rule="evenodd" clip-rule="evenodd" d="M271.883 50.6598C272.842 50.7977 273.855 50.3698 274.684 50.8405C274.509 51.1543 274.035 51.285 273.654 51.3754L272.149 52.0624C271.591 51.9317 271.905 51.0402 271.883 50.6598Z" fill="black"/>
<path fill-rule="evenodd" clip-rule="evenodd" d="M275.806 32.0855C276.766 31.774 277.801 31.1321 278.831 31.4388C278.094 32.1758 277.511 33.1291 276.951 34.0206L273.88 33.9541C274.217 33.1505 275.068 32.4872 275.806 32.0855Z" fill="black"/>
<path fill-rule="evenodd" clip-rule="evenodd" d="M284.799 31.3534C286.076 31.1323 286.007 32.7774 287.173 32.8392C287.379 33.1055 287.672 33.3504 287.557 33.7521C286.881 34.0184 285.896 33.89 285.135 34.0636C284.124 33.5073 284.778 31.7718 283.184 31.8835C283.096 31.748 282.919 31.4817 283.139 31.3938C283.632 31.2179 284.286 31.2844 284.799 31.3534Z" fill="black"/>
<path fill-rule="evenodd" clip-rule="evenodd" d="M283.992 37.311C284.553 36.5312 285.406 36.467 286.213 36.3125L292.022 36.4195C292.269 36.6453 291.797 36.845 291.797 37.1113C291.44 37.4465 290.922 37.5368 290.608 37.8459C289.846 37.8673 289.913 38.7588 289.377 39.1392C288.545 39.9618 287.333 39.5814 286.369 39.4506C286.034 39.2034 285.653 38.8705 285.492 38.4925L285.224 38.7588C285.562 40.0069 285.473 41.3858 285.722 42.6529L287.112 43.5659C287.134 45.6104 289.556 45.0541 290.608 46.1905C290.362 46.9275 289.868 47.5479 289.331 48.1708C288.48 47.3482 287.512 46.8157 286.484 46.4567C286.393 45.2609 285.07 44.5453 284.335 43.9462C284.129 41.7638 284.086 39.5386 283.728 37.4251L283.992 37.311Z" fill="black"/>
<path fill-rule="evenodd" clip-rule="evenodd" d="M286.101 51.0404H288.794L288.456 52.4407L285.761 51.3067C285.698 51.0856 285.943 51.019 286.101 51.0404Z" fill="black"/>
<path fill-rule="evenodd" clip-rule="evenodd" d="M290.944 25.8353L292.94 25.2124C294.086 25.7449 295.159 26.4106 296.214 27.169C297.043 28.681 296.911 30.7279 296.528 32.4182C295.921 33.0839 294.599 32.4182 294.107 33.4857H294.014C293.276 31.3959 291.167 29.5226 289.216 28.5716C289.53 27.5018 289.868 26.4558 290.944 25.8353Z" fill="black"/>
</g>
<defs>
<clipPath id="clip0_474_3146">
<rect width="384" height="128" fill="white"/>
</clipPath>
</defs>
</svg>
