<svg width="384" height="128" viewBox="0 0 384 128" fill="none" xmlns="http://www.w3.org/2000/svg">
<path fill-rule="evenodd" clip-rule="evenodd" d="M354.601 34.9999C338.365 34.9999 325.203 48.1527 325.203 64.3776H384C384 48.1527 370.838 34.9999 354.601 34.9999Z" fill="black" fill-opacity="0.5"/>
<path fill-rule="evenodd" clip-rule="evenodd" d="M354.601 93.7553C338.365 93.7553 325.203 80.6025 325.203 64.3776H384C384 80.6025 370.838 93.7553 354.601 93.7553Z" fill="black"/>
<path fill-rule="evenodd" clip-rule="evenodd" d="M90.0892 48.4976H62.7952V55.6818H72.5153V82.0244H81.302V55.6818H90.0892V48.4976Z" fill="black"/>
<path fill-rule="evenodd" clip-rule="evenodd" d="M93.1504 48.4976V55.6818H101.938V82.0244H110.724V55.6818H120.444V48.4976H93.1504Z" fill="black"/>
<path fill-rule="evenodd" clip-rule="evenodd" d="M187.319 82.0246V48.4978H178.932V68.5601L163.98 48.4978H155.592V82.0246H163.98V62.2046L178.932 82.0246H187.319Z" fill="black"/>
<path fill-rule="evenodd" clip-rule="evenodd" d="M124.704 82.0247H133.491H149.512V74.8404H133.491V68.2421H147.071V61.0578H133.491V55.6822H149.512V48.4979H124.704V82.0247Z" fill="black"/>
<path fill-rule="evenodd" clip-rule="evenodd" d="M194.005 82.0247H202.792V68.4545H216.976V61.2697H202.792V55.6822H219.612V48.4979H194.005V82.0247Z" fill="black"/>
<path fill-rule="evenodd" clip-rule="evenodd" d="M27.6816 48.4976L18.1263 72.0688H18.0509L8.49621 48.4976H0.000244141L13.7639 82.0244H22.4139L36.1775 48.4976H27.6816Z" fill="black"/>
<path fill-rule="evenodd" clip-rule="evenodd" d="M284.166 82.0247H308.428V74.5819H292.953V48.4979H284.166V82.0247Z" fill="black"/>
<path fill-rule="evenodd" clip-rule="evenodd" d="M256.113 82.0247H280.375V74.5819H264.899V48.4979H256.113V82.0247Z" fill="black"/>
<path fill-rule="evenodd" clip-rule="evenodd" d="M230.348 69.2138L234.939 57.7628H234.997L239.604 69.2127L230.348 69.2138ZM244.76 82.0246H253.256L239.27 48.4978H239.161H230.774H230.665L216.679 82.0246H225.175L227.584 76.0376H242.351L244.76 82.0246Z" fill="black"/>
<path fill-rule="evenodd" clip-rule="evenodd" d="M44.1809 69.2138L48.7717 57.7628H48.8297L53.4373 69.2127L44.1809 69.2138ZM58.5932 82.0246H67.0887L53.1032 48.4978H52.9936H44.6072H44.4982L30.5122 82.0246H39.0082L41.4175 76.0376H56.184L58.5932 82.0246Z" fill="black"/>
</svg>
