<svg xmlns="http://www.w3.org/2000/svg" width="275" height="44" fill="none" viewBox="0 0 275 44"><g clip-path="url(#a)"><path fill="#fff" fill-rule="evenodd" d="M1.513 42.207v-8.184c4.657 1.411 8.89 2.258 12.417 2.258 4.939 0 7.479-1.27 7.479-3.951 0-.988-.424-1.834-1.13-2.54-.705-.706-2.68-1.693-5.784-2.963-5.503-2.258-9.031-4.233-10.724-5.785C1.654 18.925.525 16.244.525 13.14c0-4.092 1.553-7.337 4.657-9.454S12.378.441 17.317.441c2.822 0 6.773.564 11.993 1.552v7.902c-3.668-1.694-7.196-2.4-10.582-2.4-4.657 0-7.056 1.27-7.056 3.81 0 .988.424 1.694 1.412 2.4.846.423 2.963 1.551 6.49 3.104q7.62 3.386 10.16 5.926c1.975 1.975 2.963 4.515 2.963 7.76 0 4.516-1.976 8.043-5.926 10.301-3.246 1.976-7.338 2.822-12.417 2.822-4.092 0-8.467-.423-12.84-1.41M39.473 1.005h11.57v41.767h-11.57zm22.293 41.767V1.005H91.68v7.62H73.054v9.453H89.28v6.774H73.054V34.87h19.19v7.902zm38.101 0V1.005h15.098l10.442 26.669 10.865-26.669h14.392v41.767h-11.147V13.28l-12.276 29.914h-7.196L108.051 13.28v29.49zm61.52 0V1.005h29.914v7.62h-18.767v9.453h16.368v6.774h-16.368V34.87h19.19v7.902zm38.101 0V1.005h13.546l14.252 27.939V1.005h8.325v41.767h-13.264L207.672 14.41v28.362zm44.302-.565v-8.184c4.657 1.411 8.749 2.258 12.418 2.258 4.938 0 7.478-1.27 7.478-3.95 0-.989-.423-1.835-1.129-2.54-.705-.706-2.681-1.694-5.785-2.964-5.503-2.258-9.031-4.233-10.724-5.785-2.116-2.117-3.245-4.798-3.245-8.043 0-4.092 1.552-7.196 4.656-9.454C250.563 1.43 254.655.3 259.594.3c2.822 0 6.491.423 10.865 1.41l1.411.142v7.902c-3.951-1.552-7.478-2.258-10.865-2.258-4.656 0-7.055 1.27-7.055 3.81 0 .988.423 1.693 1.411 2.399.705.423 2.963 1.552 6.491 3.104q7.619 3.387 10.159 5.926c1.976 1.976 2.963 4.515 2.963 7.76 0 4.516-1.975 8.044-5.926 10.301-3.245 1.976-7.337 2.822-12.417 2.822a58.7 58.7 0 0 1-12.841-1.41" clip-rule="evenodd"/></g><defs><clipPath id="a"><path fill="#fff" d="M.525.3h274.448v43.319H.525z"/></clipPath></defs></svg>