<svg width="384" height="128" viewBox="0 0 384 128" fill="none" xmlns="http://www.w3.org/2000/svg">
<path d="M266.143 67.3661H257.36V76.1726H253.937V67.3661H245.154V64.247H253.937V55.4416H257.36V64.247H266.143V67.3661Z" fill="black"/>
<path d="M339.381 59.807C338.073 55.8867 335.013 53.6541 330.831 53.179C330.468 53.2059 330.104 53.2159 329.739 53.2258C329.004 53.2458 328.27 53.2657 327.557 53.4248C323.433 54.3432 320.294 57.4457 319.433 61.4948L319.322 62.0464L319.21 62.6328C317.481 75.0887 327.931 80.3725 338.598 74.6677L339.305 74.1548L339.828 73.7503V63.8077H330.412V68.0619H334.208V71.329L333.948 71.5119L333.613 71.658C327.328 73.9342 324.449 69.6925 324.978 63.7322L325.053 63.1099L325.166 62.449C325.566 57.9548 330.844 56.1712 333.092 59.5864L333.39 60.137L333.613 60.7245H339.566L339.492 60.2474L339.381 59.807Z" fill="black"/>
<path d="M125.026 53.9367H130.906V67.9893C130.989 70.189 131.973 71.6658 134.33 71.7684L134.851 71.8051L135.372 71.7684C137.733 71.6396 138.717 70.2151 138.758 67.9893L138.796 67.4754V53.9367H144.675V67.0709C146.098 80.1103 123.56 80.1268 125.026 67.0709V53.9367Z" fill="black"/>
<path fill-rule="evenodd" clip-rule="evenodd" d="M302.353 53.9367H308.568L317.648 76.1726H311.135L309.646 72.0248H300.826L299.338 76.1726H293.308L302.353 53.9367ZM308.121 67.7319L305.293 59.807L302.388 67.7319H308.121Z" fill="black"/>
<path d="M367.961 53.9367H373.803V71.4025H384V76.1726H367.961V53.9367Z" fill="black"/>
<path d="M197.594 53.9367H203.622L211.511 67.7338V53.9367H217.019V76.1726H211.027L203.101 62.1935V76.1726H197.594V53.9367Z" fill="black"/>
<path d="M171.656 53.9367H177.536V62.119H185.24V53.9367H191.12V76.1726H185.24V66.9267H177.536V76.1726H171.656V53.9367Z" fill="black"/>
<path d="M223.496 53.9367H240.019V58.4861H229.375V62.45H238.643V66.9616H229.375V71.4025H240.502V76.1726H223.496V53.9367Z" fill="black"/>
<path d="M345.633 53.9367H362.156V58.4861H351.513V62.45H360.78V66.9616H351.513V71.4025H362.641V76.1726H345.633V53.9367Z" fill="black"/>
<path d="M271.129 53.9367H277.158L285.047 67.7338V53.9367H290.592V76.1726H284.563L276.637 62.1935V76.1726H271.129V53.9367Z" fill="black"/>
<path d="M102.4 53.9367H108.391V62.6687L114.979 53.9367H121.714L114.309 62.8157L122.719 76.1726H115.612L110.589 67.2558L108.391 69.8609V76.1726H102.4V53.9367Z" fill="black"/>
<path d="M150.146 53.7161H166.67V58.3022H156.025V62.2651H165.292V66.7419H156.025V71.2187H167.116V75.9509H150.146V53.7161Z" fill="black"/>
<path d="M7.71899 65.6871L7.68032 64.2392L7.75584 62.6051L7.86686 61.01C9.95565 40.6057 30.7812 27.5937 50.0972 34.6514L51.5463 35.2076L52.9254 35.8378C70.5921 44.4115 76.2784 66.4531 64.9795 82.4681L64.1619 83.5442L63.3056 84.5853L68.1807 90.0416L69.3696 88.7044C89.9804 64.1842 73.6218 27.986 41.2794 26.0368L39.2706 26L37.2237 26.0368C4.90132 27.971 -11.4773 64.2042 9.1326 88.7044L10.3237 90.0416L15.1956 84.5853L14.3407 83.5442C10.3424 78.4748 8.02291 72.1264 7.71899 65.6871Z" fill="black"/>
<path fill-rule="evenodd" clip-rule="evenodd" d="M38.787 42.9281H39.7169C48.1426 43.4594 51.3989 53.9523 44.1825 58.8174L43.6602 59.153L43.1024 59.4127V60.1923H49.2423V64.8694H43.1024V95.4615L44.218 95.3121C49.2946 94.5412 54.141 92.4399 58.2472 89.3728L59.1016 88.7044L63.7169 94.0871L62.4507 95.0524C48.6426 104.907 29.8644 104.902 16.0532 95.0524L14.7888 94.0871L19.4023 88.7044L20.2585 89.3728C24.3729 92.4231 29.2029 94.5498 34.2845 95.3121L35.4015 95.4615V64.8694H29.2616V60.1923H35.4015V59.4127L34.8437 59.153L34.3232 58.8174C27.12 53.9392 30.3581 43.4594 38.787 42.9281ZM39.2318 48.2112C39.1045 48.212 38.9771 48.2127 38.8507 48.2069C37.2596 48.4639 36.3569 49.4237 35.8847 50.9107L35.8478 51.2444L35.811 51.6163L35.8847 52.2833C36.7546 56.1145 42.1974 55.8648 42.6579 51.9495L42.6929 51.6163L42.6579 51.2444C42.4513 49.7706 41.4936 48.5769 39.9945 48.2609C39.7451 48.2081 39.4885 48.2096 39.2318 48.2112Z" fill="black"/>
</svg>
