<svg width="384" height="128" viewBox="0 0 384 128" fill="none" xmlns="http://www.w3.org/2000/svg">
<path d="M128.158 45.8385C129.843 47.8724 132.721 49.5778 135.722 49.7315C139.127 49.8876 141.331 47.9772 141.331 45.9387C141.331 43.4807 139.483 42.0503 136.016 40.6035L133.245 39.4875C127.953 37.3092 125.331 34.1454 125.331 29.8796C125.331 24.584 130.43 21.1453 135.769 21.1453C139.826 21.1453 142.92 22.4919 145.486 25.3668L141.639 28.7939C139.893 26.9091 138.206 26.1589 135.785 26.1589C133.406 26.1589 130.938 27.4962 130.938 29.7724C130.938 31.9088 132.655 33.5047 136.169 34.8886L138.88 36.0534C143.682 38.0081 146.942 40.8947 146.942 45.4867C146.942 50.095 143.249 54.8593 135.769 54.8593C130.6 54.8593 126.832 52.5226 123.875 49.5148L128.158 45.8385Z" fill="black"/>
<path d="M166.845 41.5121C166.845 33.9567 172.545 28.1509 180.263 28.1509C187.934 28.1509 193.676 33.9567 193.676 41.5121C193.676 49.0675 187.937 54.8593 180.263 54.8593C172.547 54.857 166.845 49.0675 166.845 41.5121ZM187.813 41.5121C187.813 37.0063 184.653 33.5886 180.263 33.5886C175.801 33.5886 172.699 37.0063 172.699 41.5121C172.699 46.0109 175.798 49.4356 180.263 49.4356C184.649 49.4356 187.813 46.0109 187.813 41.5121Z" fill="black"/>
<path d="M197.335 41.5121C197.335 33.9567 203.039 28.1509 210.685 28.1509C214.847 28.1509 218.193 29.8586 220.589 32.4493L216.692 36.4309C215.341 34.8769 213.374 33.6887 210.685 33.6887C206.29 33.6887 203.174 37.004 203.174 41.5098C203.174 46.0086 206.29 49.3191 210.685 49.3191C213.374 49.3191 215.341 48.1403 216.692 46.5793L220.589 50.5632C218.193 53.1539 214.847 54.857 210.685 54.857C203.039 54.857 197.335 49.0675 197.335 41.5121Z" fill="black"/>
<path d="M230.427 54.454H224.718V18.3076H230.427V40.2657L240.776 28.5633H247.515L236.728 40.8365L248.794 54.454H241.806L230.427 41.5121V54.454Z" fill="black"/>
<path d="M257.211 38.1341V54.4564H251.505V18.3054H257.211V31.0027C259.013 29.0317 261.772 28.1464 264.461 28.1464C270.883 28.1464 274.961 32.6032 274.961 39.285V54.4541H269.285V39.3828C269.285 36.5941 267.197 33.5864 263.382 33.5864C260.423 33.5887 258.193 35.138 257.211 38.1341Z" fill="black"/>
<path d="M279.598 41.5123C279.598 33.9569 285.27 28.1511 293.002 28.1511C300.653 28.1511 306.397 33.9569 306.397 41.5123C306.397 49.0678 300.657 54.8596 293.002 54.8596C285.27 54.8573 279.598 49.0678 279.598 41.5123ZM300.552 41.5123C300.552 37.0066 297.411 33.5888 293.002 33.5888C288.551 33.5888 285.443 37.0066 285.443 41.5123C285.443 46.0111 288.551 49.4359 293.002 49.4359C297.411 49.4359 300.552 46.0111 300.552 41.5123Z" fill="black"/>
<path d="M316.718 18.3076H311.034V54.454H316.718V18.3076Z" fill="black"/>
<path d="M328.001 37.9896V54.4541H322.285V28.5634H328.001V31.005C329.744 28.9804 332.298 28.1487 334.658 28.1487C338.298 28.1487 341.048 29.5955 342.761 32.1326C345.182 28.9222 348.796 28.1487 351.28 28.1487C357.647 28.1487 361.293 32.6032 361.293 39.285V54.4518H355.582V39.3828C355.582 36.5941 353.976 33.5864 350.267 33.5864C347.678 33.5864 345.597 35.138 344.613 38.0851C344.66 38.4998 344.66 38.8679 344.66 39.285V54.4518H338.962V39.3828C338.962 36.5941 337.315 33.5864 333.582 33.5864C331.051 33.5887 328.917 35.138 328.001 37.9896Z" fill="black"/>
<path d="M187.081 95.0876C185.28 96.5321 182.896 97.4197 180.156 97.4197C172.485 97.4197 166.845 91.6116 166.845 84.0725C166.845 76.4984 172.485 70.7229 180.156 70.7229C182.896 70.7229 185.278 71.5826 187.081 73.0527V71.119H192.788V97.0143H187.081V95.0876ZM187.081 88.4641V79.6785C185.739 77.5468 183.111 76.135 180.195 76.135C175.796 76.135 172.697 79.5714 172.697 84.0748C172.697 88.5596 175.796 91.9797 180.195 91.9797C183.113 91.9774 185.739 90.5958 187.081 88.4641Z" fill="black"/>
<path d="M217.569 95.0876C215.77 96.532 213.372 97.4197 210.648 97.4197C202.974 97.4197 197.332 91.6116 197.332 84.0724C197.332 76.4984 202.974 70.7229 210.648 70.7229C213.372 70.7229 215.767 71.5825 217.569 73.0526V60.8633H223.278V97.0143H217.569V95.0876ZM217.569 88.464V79.6785C216.224 77.5468 213.6 76.1349 210.683 76.1349C206.288 76.1349 203.172 79.5713 203.172 84.0748C203.172 88.5596 206.288 91.9797 210.683 91.9797C213.6 91.9773 216.224 90.5958 217.569 88.464Z" fill="black"/>
<path d="M164.133 54.4541H159.892C154.917 54.4541 151.964 51.5023 151.964 46.5818V33.64H147.747V28.5634H151.964V22.4688H157.669V28.5634H164.133V33.64H157.669V45.3867C157.669 48.024 158.391 49.2215 161.344 49.2215H164.133V54.4541Z" fill="black"/>
<path d="M164.133 97.0142H159.892C154.917 97.0142 151.964 94.0647 151.964 89.1513V76.1977H147.747V71.1165H151.964V65.0242H157.669V71.1165H164.133V76.1977H157.669V87.9398C157.669 90.5957 158.391 91.7769 161.344 91.7769H164.133V97.0142Z" fill="black"/>
<path d="M364.477 50.3701L364.922 50.7894C368.012 53.5968 370.99 54.9574 374.611 54.9574C380.775 54.9574 384 51.0946 384 47.2715C384 43.8654 381.819 41.3562 377.3 39.5856L375.133 38.691C371.77 37.4026 371.388 36.1468 371.388 35.3105C371.388 33.9336 373.022 33.0017 374.62 33.0017C376.387 33.0017 377.557 33.6307 378.827 34.9424L379.213 35.3338L383.014 32.0534L382.637 31.6341C380.544 29.3672 378.039 28.186 374.609 28.186C370.298 28.186 365.833 30.8862 365.833 35.3804C365.833 38.8377 368.049 41.4657 372.418 43.2154L374.599 44.0564C377.398 45.1817 378.419 46.1439 378.419 47.6116C378.419 48.7602 377.109 49.9461 374.905 49.9461C374.809 49.9461 374.723 49.9461 374.599 49.9367C372.614 49.8482 370.288 48.8814 368.916 47.2855L368.543 46.8545L364.477 50.3701Z" fill="black"/>
<path d="M125.723 92.8371L126.175 93.2588C129.26 96.0568 132.231 97.4197 135.862 97.4197C142.026 97.4197 145.251 93.5663 145.251 89.7385C145.251 86.3254 143.056 83.8279 138.554 82.0433L136.389 81.1649C133.014 79.8673 132.621 78.5952 132.621 77.7705C132.621 76.3889 134.27 75.4826 135.869 75.4826C137.642 75.4826 138.81 76.1024 140.078 77.4047L140.462 77.8077L144.267 74.5321L143.883 74.1081C141.79 71.8272 139.271 70.6624 135.862 70.6624C131.553 70.6624 127.075 73.3486 127.075 77.8497C127.075 81.2954 129.286 83.9444 133.662 85.6894L135.843 86.5304C138.628 87.658 139.672 88.6179 139.672 90.088C139.672 91.2389 138.36 92.4177 136.149 92.4177C136.048 92.4177 135.953 92.4177 135.862 92.4107C133.844 92.3269 131.525 91.3553 130.15 89.7641L129.78 89.3261L125.723 92.8371Z" fill="black"/>
<path d="M105.328 1H0.0714606C0.0411669 2.11363 -0.646267 30.3691 2.95868 48.1592C8.86829 77.2906 25.1407 103.486 52.7056 126.807C80.2566 103.486 96.5383 77.2906 102.441 48.1592C106.062 30.3691 105.358 2.11363 105.328 1Z" fill="black"/>
<path d="M66.0467 19.228C67.2911 19.228 68.3047 20.2485 68.3047 21.4856C68.3047 22.7297 67.2911 23.7501 66.0467 23.7501C64.8 23.7501 63.7886 22.7273 63.7886 21.4856C63.7886 20.2485 64.7976 19.228 66.0467 19.228Z" fill="white"/>
<path d="M39.3742 19.228C40.6116 19.228 41.6159 20.2485 41.6159 21.4856C41.6159 22.7297 40.6069 23.7501 39.3742 23.7501C38.1229 23.7501 37.1115 22.7273 37.1115 21.4856C37.1115 20.2485 38.1229 19.228 39.3742 19.228Z" fill="white"/>
<path d="M33.1408 79.301C35.0796 79.301 35.1612 78.2922 35.259 77.9707C34.8885 78.3388 34.1335 78.5857 32.9777 78.5857C31.8079 78.5857 30.6707 78.1081 30.0672 76.235C29.7596 75.2635 29.9996 74.1359 29.9996 74.1359C29.9996 74.1359 31.2836 75.147 32.267 75.0934C34.0263 75.0119 35.3406 73.8936 35.3406 71.869C35.3406 69.4927 33.6558 66.9462 30.3445 63.0136C27.385 59.5119 25.9286 55.7354 25.9286 52.0287C25.9286 43.2967 34.6205 37.7915 34.6205 37.7915C34.6205 37.7915 35.527 59.6261 35.7111 61.9722C35.8999 64.3369 36.4452 68.3697 37.8573 71.4753V79.082C37.4775 80.3028 35.9535 80.7967 34.9072 80.7967C34.0706 80.7967 33.0429 80.0186 33.1408 79.301Z" fill="white"/>
<path d="M52.7032 34.8143C39.8261 34.8143 33.2221 36.3426 33.2221 36.3426L31.5303 32.9458C31.5303 32.9458 40.4692 31.2334 52.7032 31.2334C64.9349 31.2334 73.8739 32.9458 73.8739 32.9458L72.1891 36.3426C72.1914 36.3403 65.5851 34.8143 52.7032 34.8143Z" fill="white"/>
<path d="M64.2662 97.0772H41.1521L37.3375 92.8207C37.3375 92.8207 39.754 90.6238 39.754 86.5839V74.6299C39.705 74.6159 44.1932 81.1113 52.7057 81.1113C60.1719 81.1113 65.739 74.7744 65.6644 74.7744V86.5816C65.6644 90.6191 68.0763 92.8184 68.0763 92.8184L64.2662 97.0772Z" fill="white"/>
<path d="M73.1306 75.0982C74.114 75.1471 75.4003 74.1383 75.4003 74.1383C75.4003 74.1383 75.645 75.2636 75.3397 76.2397C74.7385 78.1082 73.5943 78.5858 72.4455 78.5858C71.2757 78.5858 70.5253 78.3412 70.1548 77.9708C70.241 78.2946 70.3412 79.3011 72.2684 79.3011C72.3686 80.0186 71.3456 80.7968 70.509 80.7968C69.4441 80.7968 67.9387 80.3052 67.5519 79.0867V71.4824C68.9524 68.3745 69.5023 64.3393 69.6864 61.9769C69.8705 59.6308 70.7933 37.7986 70.7933 37.7986C70.7933 37.7986 79.4806 43.3015 79.4806 52.0288C79.4806 55.7378 78.0335 59.512 75.0647 63.0137C71.7394 66.9463 70.0546 69.4951 70.0546 71.8714C70.0569 73.8937 71.3735 75.0143 73.1306 75.0982Z" fill="white"/>
<path d="M74.6478 31.4267C74.6478 31.4267 65.3499 29.5466 52.7058 29.5466C40.064 29.5466 30.7755 31.4267 30.7755 31.4267L24.6329 19.1325C24.6329 19.1325 26.4365 17.8698 27.7345 17.8698C30.0158 17.8698 30.5308 19.9246 30.5308 20.6352C30.5308 21.206 30.4632 21.6394 30.1184 22.0377L30.0228 22.1263C29.5032 22.7157 29.382 22.8578 29.382 23.2516C29.382 23.5987 29.6267 24.1555 30.3048 24.1555C30.8897 24.1555 31.0342 23.9668 31.2928 23.2236C31.5748 22.4711 32.3182 21.7186 33.3714 21.7186C34.3944 21.7186 35.5363 22.6085 35.5363 23.8853C35.5363 25.2552 34.4201 26.0729 33.3714 26.0729C32.7609 26.0729 32.4603 25.9028 32.2692 25.7817C32.1364 25.6955 32.0618 25.6605 31.9476 25.6605C31.8148 25.6605 31.7146 25.7421 31.654 25.8143C31.4792 26.0216 31.4163 26.3432 31.4792 26.674C31.654 27.6199 33.4344 29.0597 35.4268 29.0597C38.3932 29.0597 40.1945 26.3991 40.1945 24.463C41.327 27.1726 43.8531 27.755 45.6008 27.755C50.2846 27.755 51.254 23.5777 51.254 22.4711C51.254 21.7186 51.0187 21.1058 50.802 20.9963C50.7647 20.9917 50.6924 20.9428 50.5293 21.0872L50.3382 21.248C49.779 21.7722 48.7047 22.732 47.2063 22.732C45.5402 22.732 43.7948 21.4809 43.7948 19.3632C43.7948 17.1266 45.5122 15.9594 47.197 15.9594C48.6092 15.9594 49.4085 16.7352 49.9398 17.2501C50.1448 17.4458 50.3569 17.6671 50.4711 17.6671C50.7064 17.6671 50.9395 17.5646 51.07 17.4062C51.1911 17.2804 51.2517 17.1173 51.2517 16.9379C51.2517 16.8983 51.2517 16.8703 51.2517 16.8261C51.2307 16.6839 51.0466 16.4976 50.8229 16.2739C50.3662 15.794 49.7254 15.137 49.7254 13.8649C49.7254 12.3972 50.9208 10.8362 52.6942 10.8269C54.4792 10.8362 55.6629 12.3972 55.6629 13.8649C55.6629 15.137 55.0175 15.7963 54.5607 16.2739C54.3417 16.4976 54.1646 16.6839 54.1436 16.8261C54.1436 16.8727 54.1413 16.8983 54.1413 16.9379C54.1413 17.1173 54.2019 17.278 54.323 17.4062C54.4489 17.5623 54.6796 17.6671 54.9173 17.6671C55.0338 17.6671 55.2458 17.4481 55.4509 17.2501C55.9845 16.7352 56.7815 15.9594 58.196 15.9594C59.8877 15.9594 61.5982 17.1266 61.5982 19.3632C61.5982 21.4786 59.8528 22.732 58.1797 22.732C56.6906 22.732 55.614 21.7745 55.0477 21.248L54.8753 21.0872C54.7005 20.9428 54.6283 20.9917 54.598 20.9963C54.386 21.1035 54.1413 21.7186 54.1413 22.4711C54.1413 23.5777 55.1037 27.755 59.7945 27.755C61.5353 27.755 64.0613 27.1749 65.2008 24.463C65.2008 26.3991 66.9975 29.0597 69.9732 29.0597C71.9586 29.0597 73.7413 27.6175 73.9114 26.674C73.9836 26.3432 73.9044 26.024 73.739 25.8143C73.6784 25.7421 73.5735 25.6605 73.4337 25.6605C73.3242 25.6605 73.2496 25.6955 73.1238 25.7817C72.9257 25.9052 72.6344 26.0729 72.0192 26.0729C70.9613 26.0729 69.852 25.2552 69.852 23.8853C69.852 22.6085 71.0009 21.7186 72.0192 21.7186C73.0655 21.7186 73.8112 22.4711 74.0978 23.2236C74.3681 23.9668 74.5056 24.1555 75.0905 24.1555C75.7663 24.1555 76.011 23.5987 76.011 23.2516C76.011 22.8578 75.8875 22.718 75.3585 22.1263L75.2746 22.0377C74.9297 21.6417 74.8575 21.2083 74.8575 20.6352C74.8575 19.9246 75.3865 17.8698 77.6585 17.8698C78.9588 17.8698 80.7578 19.1325 80.7578 19.1325L74.6478 31.4267Z" fill="white"/>
<path d="M52.7034 36.6687C43.5127 36.6687 37.7406 37.4701 36.7153 37.6379C36.7852 39.3642 37.3678 53.457 37.4283 57.4199C37.44 59.0415 37.8921 64.5514 38.3045 66.6319C39.218 71.2122 43.2937 78.9423 52.7034 78.9423C62.1224 78.9423 66.184 71.2122 67.1068 66.6319C67.524 64.556 67.9667 59.0438 67.976 57.4199C68.0413 53.457 68.6192 39.3642 68.7008 37.6379C67.6591 37.4701 61.901 36.6687 52.7034 36.6687ZM43.9601 40.8483C44.2631 40.8157 44.6126 40.7784 44.9505 40.7784C46.358 40.7784 48.7605 41.1675 50.3335 42.9241C52.0322 44.8392 51.925 46.6914 51.5475 47.8935C51.2935 48.7159 50.9813 48.6903 50.8158 47.8353C50.6084 46.8102 50.0445 45.3657 48.5951 43.9026C47.1689 42.4768 45.2511 41.7662 43.9531 41.4401C43.1096 41.2118 43.1445 40.9601 43.9601 40.8483ZM42.0423 48.9419C41.5296 48.8278 41.8046 48.3898 42.2916 48.3898C42.788 48.3898 43.2191 48.0426 43.2191 47.3717C43.2191 46.7007 42.5899 45.813 41.6135 45.813C41.0543 45.813 41.1778 45.4077 41.5529 45.1351C42.273 44.5806 43.1422 44.4455 43.9531 44.4455C46.7355 44.4455 48.2735 46.6122 48.2735 47.4066C48.2735 48.1894 46.7658 49.105 43.9485 49.105C43.1422 49.105 42.5922 49.0444 42.0423 48.9419ZM56.5646 70.6833C56.3293 70.8441 54.8169 71.8435 54.4883 72.0742C54.2157 72.2256 54.0806 72.2513 53.759 72.2513H51.6431C51.3168 72.2513 51.1933 72.2256 50.9253 72.0742C50.5805 71.8435 49.0728 70.8464 48.8421 70.6833C48.5694 70.4899 48.6254 70.1288 49.0238 70.1288H56.3829C56.7744 70.1288 56.8233 70.4899 56.5646 70.6833ZM58.4032 68.512H46.9639C46.5304 68.512 46.4605 68.0577 46.9219 67.848C47.7259 67.4473 50.0002 66.35 50.5432 66.1007C50.8391 65.9539 50.9626 65.9329 51.2912 65.9329H54.0806C54.4021 65.9329 54.521 65.9539 54.8193 66.1007C55.3715 66.35 57.6366 67.4473 58.4498 67.848C58.9066 68.0553 58.839 68.512 58.4032 68.512ZM62.4439 49.105C61.6377 49.105 61.0854 49.0421 60.5424 48.9419C60.0321 48.8278 60.3001 48.3898 60.7988 48.3898C61.2928 48.3898 61.7146 48.0426 61.7146 47.3717C61.7146 46.7007 61.0947 45.813 60.1113 45.813C59.5497 45.813 59.6732 45.4077 60.0554 45.1351C60.7755 44.5806 61.64 44.4455 62.4556 44.4455C65.2333 44.4455 66.7806 46.6122 66.7806 47.4066C66.7806 48.1894 65.2636 49.105 62.4439 49.105ZM64.5459 42.5048C64.3128 42.5048 63.0428 42.5001 61.5911 42.5001C56.1708 42.5001 55.6185 46.0577 55.6185 48.9326V59.9664C55.6185 59.9664 57.0983 61.3969 57.5713 61.8279C57.9069 62.1401 57.7251 62.3241 57.3057 62.3241H49.949C49.385 62.3241 49.3291 62.0422 49.5318 61.8279C49.7183 61.5972 51.0698 60.4207 51.6221 59.9408C51.9763 59.6519 52.3561 59.5703 52.7127 59.5703H53.3675C54.0176 59.5703 54.2623 59.1859 54.2623 58.5615V47.6116C54.2623 43.8654 56.8419 40.7807 60.5634 40.7807C62.3717 40.7807 63.0638 40.7877 64.1544 40.7877C65.238 40.7877 67.5752 40.7807 67.5752 40.7807C67.5752 40.7807 66.5289 42.5048 64.5459 42.5048Z" fill="white"/>
</svg>
