<svg width="384" height="128" viewBox="0 0 384 128" fill="none" xmlns="http://www.w3.org/2000/svg">
<path fill-rule="evenodd" clip-rule="evenodd" d="M47.3508 111.869C73.5012 111.869 94.6929 90.6311 94.6929 64.4345C94.6929 38.2379 73.5012 17 47.3508 17C21.2004 17 0 38.2379 0 64.4345C0 90.6311 21.2004 111.869 47.3508 111.869ZM21.122 61.9422C21.1829 79.8074 34.7192 90.9281 47.7248 90.8839L47.7245 90.8837C63.7836 90.8314 73.2833 77.6198 73.2485 65.5586C73.205 53.5061 66.6631 44.7913 52.2482 41.2705C52.2135 41.1223 52.1876 40.7998 52.1876 40.495C52.1615 31.388 59.0166 23.353 67.629 21.5665C66.82 21.2876 65.489 21.1832 64.2189 21.1832C54.3711 21.218 43.5056 25.4447 35.5717 32.0157C27.4465 38.7609 21.0785 50.1337 21.122 61.9422Z" fill="black"/>
<path d="M125.271 84.0775L110.795 49.4712H120.252L129.282 72.452L138.033 49.4712H147.063L133.014 84.0775H125.271Z" fill="black"/>
<path d="M172.256 66.5959C172.256 65.1579 172.091 63.7897 171.752 62.4912C171.421 61.1927 170.917 60.0772 170.247 59.1448C169.577 58.2035 168.768 57.4627 167.811 56.9137C166.854 56.356 165.732 56.0771 164.444 56.0771C163.157 56.0771 162.026 56.356 161.078 56.9137C160.121 57.4627 159.303 58.2035 158.642 59.1448C157.972 60.0772 157.467 61.1927 157.137 62.4912C156.798 63.7897 156.632 65.1579 156.632 66.5959C156.632 68.0861 156.798 69.4717 157.137 70.744C157.468 72.0164 157.955 73.1319 158.598 74.0905C159.242 75.0492 160.06 75.8073 161.043 76.3651C162.017 76.914 163.157 77.193 164.444 77.193C165.732 77.193 166.854 76.9141 167.811 76.3651C168.768 75.8073 169.577 75.0492 170.247 74.0905C170.917 73.1319 171.421 72.0164 171.752 70.744C172.091 69.4717 172.256 68.0861 172.256 66.5959ZM180.999 66.6338C180.999 68.8909 180.651 71.1044 179.964 73.2831C179.268 75.4618 178.242 77.4052 176.876 79.1307C175.519 80.8563 173.796 82.2419 171.717 83.2965C169.638 84.3509 167.211 84.8738 164.444 84.8738C161.669 84.8738 159.242 84.3508 157.172 83.2965C155.093 82.242 153.37 80.8563 152.004 79.1308C150.647 77.4052 149.621 75.4618 148.925 73.2831C148.237 71.1045 147.889 68.8909 147.889 66.6338C147.889 64.3854 148.237 62.1892 148.925 60.028C149.621 57.8754 150.647 55.9495 152.004 54.2501C153.37 52.5507 155.093 51.1912 157.172 50.1629C159.242 49.1345 161.669 48.6117 164.444 48.6117C167.211 48.6117 169.629 49.1347 171.682 50.1629C173.735 51.1912 175.458 52.5507 176.841 54.2501C178.233 55.9495 179.268 57.8754 179.964 60.028C180.651 62.1892 180.999 64.3854 180.999 66.6338Z" fill="black"/>
<path d="M207.698 57.088C205.984 56.4169 204.392 56.0771 202.913 56.0771C201.399 56.0771 200.086 56.3737 198.998 56.9485C197.902 57.5234 196.997 58.2993 196.284 59.284C195.571 60.2688 195.04 61.3756 194.683 62.6044C194.327 63.8244 194.144 65.0882 194.144 66.3866C194.144 67.8246 194.3 69.2014 194.614 70.5261C194.918 71.842 195.397 73.0012 196.04 73.9859C196.676 74.9706 197.485 75.7637 198.459 76.365C199.433 76.9576 200.59 77.2626 201.921 77.2626C203.017 77.2626 204.131 76.9578 205.271 76.365C206.41 75.7636 207.219 75.0491 207.698 74.2386L207.698 57.088ZM208.411 84.0775L208.054 81.4283C207.245 82.3347 206.175 83.1364 204.836 83.8248C203.505 84.522 201.93 84.8707 200.12 84.8707C197.746 84.8707 195.64 84.3653 193.84 83.363C192.021 82.3608 190.499 81.0187 189.264 79.3455C188.028 77.6723 187.08 75.7288 186.436 73.524C185.801 71.3279 185.479 69.0272 185.479 66.6307C185.479 64.3823 185.81 62.1774 186.471 60.0248C187.141 57.8723 188.15 55.9464 189.507 54.247C190.873 52.5476 192.569 51.1881 194.622 50.1597C196.667 49.1314 199.077 48.6085 201.834 48.6085C203.644 48.6085 205.601 48.9481 207.698 49.6107V36.1899H216.58V84.0775H208.411Z" fill="black"/>
<path d="M241.599 67.8506C240.643 67.9012 239.651 67.9903 238.642 68.1035C237.633 68.2256 236.676 68.3824 235.762 68.5741C233.831 68.9573 232.5 69.6112 231.752 70.5437C231.012 71.4849 230.638 72.4958 230.638 73.6025C230.638 74.7441 231.056 75.668 231.9 76.3652C232.743 77.0536 233.927 77.4021 235.466 77.4021C236.623 77.4021 237.746 77.1668 238.824 76.6875C239.903 76.2082 240.834 75.6069 241.599 74.8923V67.8506ZM242.313 84.0514L241.965 81.4631C240.999 82.5263 239.781 83.363 238.294 83.9643C236.806 84.5657 235.179 84.8706 233.405 84.8706C231.917 84.8706 230.482 84.6176 229.125 84.1124C227.75 83.616 226.541 82.8923 225.488 81.9599C224.436 81.0274 223.583 79.8858 222.939 78.5175C222.287 77.1493 221.965 75.6068 221.965 73.8813C221.965 72.1645 222.296 70.6394 222.974 69.3235C223.644 68.0076 224.549 66.9007 225.706 65.9857C226.854 65.0794 228.176 64.3387 229.664 63.7635C231.143 63.1886 232.709 62.7525 234.335 62.4649C235.484 62.2297 236.745 62.0551 238.111 61.933C239.477 61.811 240.616 61.7067 241.53 61.6105V61.1053C241.53 59.188 241.043 57.8284 240.051 57.0093C239.068 56.1988 237.711 55.7892 235.988 55.7892C234.979 55.7892 234.014 55.9112 233.1 56.1554C232.187 56.3906 231.378 56.6872 230.656 57.0443C229.934 57.4104 229.299 57.7676 228.742 58.125C228.194 58.4823 227.75 58.8046 227.411 59.0922L224.47 52.8524C224.853 52.5128 225.436 52.1117 226.228 51.6324C227.019 51.1531 227.968 50.6824 229.098 50.2293C230.221 49.7758 231.482 49.3927 232.891 49.0789C234.301 48.7652 235.823 48.6084 237.441 48.6084C239.355 48.6084 241.104 48.8614 242.678 49.3667C244.253 49.872 245.619 50.6564 246.767 51.737C247.907 52.809 248.803 54.1685 249.455 55.8243C250.099 57.4714 250.421 59.467 250.421 61.8112V84.0514H242.313Z" fill="black"/>
<path d="M277.876 44.0856C277.589 43.9464 277.032 43.7371 276.197 43.4753C275.353 43.2141 274.248 43.0832 272.856 43.0832C271.621 43.0832 270.577 43.4583 269.742 44.1988C268.907 44.9395 268.489 46.1508 268.489 47.8241V49.4712H275.945V56.6521H268.559V84.0775H259.668V56.6521H255.084V49.4712H259.668V47.6062C259.668 45.3578 259.955 43.458 260.529 41.8981C261.104 40.3468 261.904 39.0744 262.93 38.0984C263.957 37.1136 265.166 36.3903 266.549 35.9371C267.941 35.4837 269.446 35.2573 271.073 35.2573C273.222 35.2573 274.996 35.4578 276.406 35.8676C277.815 36.2774 278.642 36.5473 278.876 36.6955L277.876 44.0856Z" fill="black"/>
<path d="M302.104 66.5959C302.104 65.1579 301.93 63.7897 301.599 62.4912C301.269 61.1927 300.764 60.0772 300.094 59.1448C299.424 58.2035 298.615 57.4627 297.658 56.9137C296.701 56.356 295.579 56.0771 294.292 56.0771C293.004 56.0771 291.873 56.356 290.925 56.9137C289.968 57.4627 289.15 58.2035 288.481 59.1448C287.819 60.0772 287.315 61.1927 286.976 62.4912C286.645 63.7897 286.48 65.1579 286.48 66.5959C286.48 68.0861 286.645 69.4717 286.976 70.744C287.315 72.0164 287.802 73.1319 288.446 74.0905C289.09 75.0492 289.907 75.8073 290.882 76.3651C291.865 76.914 293.004 77.193 294.292 77.193C295.579 77.193 296.701 76.9141 297.658 76.3651C298.615 75.8073 299.424 75.0492 300.094 74.0905C300.764 73.1319 301.269 72.0164 301.599 70.744C301.93 69.4717 302.104 68.0861 302.104 66.5959ZM310.847 66.6338C310.847 68.8909 310.499 71.1044 309.803 73.2831C309.116 75.4618 308.089 77.4052 306.723 79.1307C305.366 80.8563 303.644 82.2419 301.564 83.2965C299.485 84.3509 297.058 84.8738 294.292 84.8738C291.517 84.8738 289.09 84.3508 287.019 83.2965C284.94 82.242 283.217 80.8563 281.852 79.1308C280.495 77.4052 279.468 75.4618 278.772 73.2831C278.076 71.1045 277.737 68.8909 277.737 66.6338C277.737 64.3854 278.076 62.1892 278.772 60.028C279.468 57.8754 280.495 55.9495 281.852 54.2501C283.217 52.5507 284.94 51.1912 287.019 50.1629C289.09 49.1345 291.517 48.6117 294.292 48.6117C297.058 48.6117 299.477 49.1347 301.53 50.1629C303.583 51.1912 305.305 52.5507 306.688 54.2501C308.08 55.9495 309.116 57.8754 309.803 60.028C310.499 62.1892 310.847 64.3854 310.847 66.6338Z" fill="black"/>
<path d="M338.432 84.0776V64.3387C338.432 61.7069 337.884 59.6676 336.788 58.2297C335.683 56.8005 334.161 56.0771 332.195 56.0771C330.812 56.0771 329.533 56.4344 328.367 57.1577C327.193 57.8723 326.175 58.6654 325.314 59.5282V84.0776H316.432V49.4713H324.531L324.957 52.1991C326.349 51.0575 327.906 50.1685 329.655 49.5498C331.394 48.9224 333.152 48.6173 334.918 48.6173C336.736 48.6173 338.406 48.8874 339.937 49.4365C341.468 49.9943 342.782 50.8656 343.878 52.0596C344.983 53.2535 345.827 54.8135 346.427 56.722C347.019 58.6393 347.323 60.9399 347.323 63.6154V84.0776H338.432Z" fill="black"/>
<path d="M374.97 62.6132C374.874 61.4193 374.622 60.3735 374.213 59.4933C373.804 58.6044 373.3 57.8898 372.699 57.3407C372.099 56.7829 371.455 56.3821 370.76 56.1119C370.055 55.8507 369.35 55.7199 368.628 55.7199C367.088 55.7199 365.627 56.2948 364.235 57.4454C362.843 58.5958 362.025 60.3125 361.782 62.6132H374.97ZM361.573 69.0011C361.764 71.9205 362.669 74.0296 364.305 75.3193C365.931 76.6092 368.045 77.2627 370.629 77.2627C371.83 77.2627 372.96 77.1495 374.013 76.9402C375.066 76.7226 376.005 76.452 376.823 76.1123C377.641 75.7809 378.337 75.4413 378.911 75.1101C379.485 74.7705 379.911 74.4565 380.207 74.169L382.573 81.4283C382.234 81.6635 381.695 81.9861 380.955 82.3956C380.216 82.8054 379.294 83.18 378.197 83.546C377.101 83.9033 375.805 84.2083 374.326 84.4784C372.847 84.7396 371.221 84.8705 369.455 84.8705C367.201 84.8705 365.07 84.5132 363.034 83.7986C361.007 83.0753 359.224 81.9598 357.702 80.4522C356.171 78.9445 354.953 77.0708 354.048 74.8224C353.135 72.574 352.682 69.8899 352.682 66.7787C352.682 63.8592 353.1 61.271 353.935 59.0226C354.77 56.7742 355.918 54.883 357.371 53.3492C358.833 51.8241 360.529 50.6476 362.46 49.8284C364.4 49.018 366.462 48.6084 368.663 48.6084C370.864 48.6084 372.891 48.9745 374.761 49.689C376.623 50.4036 378.232 51.5192 379.598 53.0268C380.955 54.5345 382.034 56.4865 382.817 58.883C383.609 61.2709 384 64.1208 384 67.4236V69.001L361.573 69.0011Z" fill="black"/>
</svg>
