<svg width="384" height="128" viewBox="0 0 384 128" fill="none" xmlns="http://www.w3.org/2000/svg">
<g clip-path="url(#clip0_474_3142)">
<path fill-rule="evenodd" clip-rule="evenodd" d="M73.3525 13.7719C69.4836 24.3847 67.4719 30.9173 66.3801 35.8464C65.6919 39.0494 65.4115 41.405 65.5022 43.4269C65.6689 49.2277 69.1774 50.8945 72.1861 51.5335C75.1935 52.1725 78.6059 52.1563 82.6821 51.9774C86.7284 51.7837 91.2909 51.3277 95.9212 50.7707C102.497 49.9703 115.453 47.9174 121.753 46.9448C112.36 48.1945 101.59 49.4833 92.5318 49.6084C88.6114 49.6609 85.0107 49.4968 81.8164 48.9573C78.633 48.3896 75.7855 47.5999 73.3457 45.4368C71.6659 43.9045 70.6107 41.9727 69.9902 40.0396C69.3671 38.0862 69.13 36.0845 69.1016 34.0478C69.046 28.8927 70.3032 23.4592 71.6971 18.7319C72.1739 17.1539 72.7443 15.4697 73.3647 13.7692C73.3783 13.7329 73.5841 13.1719 73.599 13.1343L73.3525 13.7719Z" fill="black" fill-opacity="0.5"/>
<path fill-rule="evenodd" clip-rule="evenodd" d="M69.1014 34.0476C69.1298 36.0843 69.3669 38.0861 69.99 40.0407C70.6105 41.9725 71.6658 43.9043 73.3455 45.4366C75.7866 47.5998 78.6328 48.3908 81.8162 48.9571C85.0105 49.4966 88.6112 49.6607 92.5316 49.6082C101.59 49.4845 112.361 48.1944 121.753 46.9446C122.396 46.8639 123.037 46.7724 123.663 46.685C123.513 46.0177 123.345 45.3384 123.135 44.6536C122.41 42.2496 121.32 39.8927 120.142 38.0511C114.997 38.7425 109.656 39.395 104.325 40.0797C92.644 41.6537 82.0872 41.877 78.5082 38.2838C75.1337 34.8897 77.503 23.6245 79.8886 15.3659C78.2995 14.1404 76.296 12.896 73.9578 12.1776C73.8955 12.3552 73.8183 12.5408 73.7492 12.7332C73.0949 14.4726 72.3675 16.5161 71.6983 18.7317C70.303 23.459 69.0458 28.8925 69.1014 34.0476Z" fill="black"/>
<path fill-rule="evenodd" clip-rule="evenodd" d="M30.0446 116.651C33.3798 108.35 38.9881 95.187 44.9743 86.5114C47.1228 83.42 49.2591 80.7739 51.6325 78.7923C52.9519 77.7134 54.3676 76.769 56.2072 76.2592C57.2706 75.9525 58.3435 75.8126 59.3744 75.8126C62.379 75.8273 64.579 76.7273 67.0391 78.0578C69.4951 79.4017 71.7817 81.1331 73.9045 82.9828C78.1459 86.6903 86.1967 97.1592 86.1967 97.1592H86.2049C86.2049 97.1592 78.1853 86.2195 73.3518 81.0375C70.9161 78.4452 68.3843 75.6888 65.8104 73.7341C64.5099 72.7642 63.2122 71.9046 61.8196 71.2265C60.4243 70.5862 58.903 70.0602 57.0945 70.0494C56.5025 70.0494 55.8591 70.1033 55.1831 70.2835C52.8192 70.9629 51.7084 72.2247 50.5027 73.5108C48.5006 75.8273 46.6569 79.208 44.6831 82.9223C39.2265 93.2606 33.2985 108.251 30.046 116.648L30.0446 116.651Z" fill="black" fill-opacity="0.5"/>
<path fill-rule="evenodd" clip-rule="evenodd" d="M78.6887 98.8443C80.8115 98.7394 83.8337 98.1501 86.1963 97.1587C86.1963 97.1587 78.1469 86.6898 73.9041 82.9823C71.7813 81.1325 69.4946 79.4012 67.0386 78.0573C64.5786 76.7268 62.3786 75.8268 59.3753 75.812C58.3431 75.812 57.2702 75.9519 56.2081 76.2586C54.3671 76.7698 52.9515 77.7129 51.6321 78.7918C49.2587 80.7733 47.1238 83.4195 44.9753 86.5109C38.9877 95.1865 33.3807 108.35 30.0442 116.65C31.8256 117.265 35.2759 117.956 39.199 117.779C39.493 117.039 51.9436 85.2181 60.3073 83.9065C66.7555 82.8948 76.8044 96.2251 78.6887 98.8443Z" fill="black"/>
<path fill-rule="evenodd" clip-rule="evenodd" d="M96.4068 53.8632C110.158 50.4113 120.636 49.0929 123.944 48.5414C119.574 49.0647 103.177 51.5332 88.3872 54.4457C73.597 57.369 66.3048 60.3743 69.6888 69.7858C72.8573 78.5556 86.0436 94.0086 87.8033 96.0386C86.5855 94.4526 80.0695 85.7635 77.833 80.4887C70.0031 64.02 82.4565 57.3542 96.4068 53.8632Z" fill="black" fill-opacity="0.5"/>
<path fill-rule="evenodd" clip-rule="evenodd" d="M123.932 55.7609C123.932 55.7609 124.725 52.1099 123.994 48.5342C123.973 48.5382 123.96 48.5396 123.944 48.5409C120.636 49.0925 110.159 50.4109 96.4075 53.8628C82.4572 57.3551 70.0038 64.0195 77.8324 80.4896C80.0703 85.763 86.5862 94.4521 87.804 96.0382C87.9205 96.1767 88.0018 96.2817 88.0018 96.2817C88.0018 96.2817 91.9818 93.8683 94.3538 90.002L94.4947 89.7773C94.79 90.1392 83.8999 75.8027 84.9755 69.5055C86.1622 62.5707 114.637 57.269 123.932 55.7609Z" fill="black"/>
<path fill-rule="evenodd" clip-rule="evenodd" d="M20.3672 17.3067C20.4024 17.3498 20.5108 17.4856 20.5528 17.5381C22.9681 20.5596 27.043 25.4819 32.2747 31.28C35.4554 34.7844 38.5684 37.9875 41.5825 40.4399C43.1038 41.66 44.5872 42.712 46.1654 43.5165C50.1467 45.5465 53.6932 45.5532 57.405 42.5614C59.7364 40.6336 61.3701 38.1475 62.9022 35.34C65.1631 31.128 67.061 26.0967 68.8207 21.1757C69.8394 18.2807 70.8148 15.4274 71.7373 12.8485C70.51 15.8283 69.2258 19.0004 67.7451 22.0918C65.5289 26.7061 62.932 31.1845 59.0455 34.5369C56.4635 36.7687 53.1771 38.4314 49.338 38.8188C49.0074 38.8457 48.6715 38.8592 48.3355 38.8592C44.8202 38.8188 41.7979 37.3767 38.8746 35.5054C35.9566 33.5938 33.0983 31.0876 30.2494 28.2599C27.0728 25.0958 23.6726 21.2268 20.5609 17.5327C20.5338 17.5031 20.5054 17.4708 20.4783 17.4399L20.3672 17.3067Z" fill="black" fill-opacity="0.5"/>
<path fill-rule="evenodd" clip-rule="evenodd" d="M38.8743 35.5058C41.799 37.3771 44.8199 38.8178 48.3352 38.8595C48.6712 38.8595 49.0071 38.846 49.339 38.8178C53.1768 38.4304 56.4632 36.769 59.0452 34.5359C62.9317 31.1848 65.5286 26.7051 67.7448 22.0908C69.2268 18.9994 70.5828 15.8569 71.737 12.8475C71.9348 12.3336 71.989 12.1682 72.161 11.6718C71.9524 11.6166 71.7411 11.5682 71.5203 11.5184C68.2826 10.8256 65.1994 10.8525 62.6432 11.4484C61.0108 15.4116 55.6477 29.7857 48.3149 30.8727C42.0144 31.8077 33.6818 22.0989 25.3791 12.3148C23.2862 12.7453 20.4495 14.0892 18.7115 15.3134C18.8334 15.4479 18.7657 15.3847 18.8917 15.5286C22.4978 19.9021 26.3667 24.3926 30.2491 28.2602C33.098 31.0866 35.9563 33.5942 38.8743 35.5058Z" fill="black"/>
<path fill-rule="evenodd" clip-rule="evenodd" d="M40.1047 46.8086C38.9627 44.1907 37.3995 41.7517 35.7942 39.3814C34.2865 37.1482 32.6825 34.9743 31.0339 32.8407C27.505 28.2668 23.7662 23.8449 19.885 19.5629C18.9801 18.5795 18.059 17.5841 17.1364 16.6141C17.1107 16.5872 17.0971 16.5724 17.0809 16.559C21.065 20.9042 27.6784 28.4941 32.4482 38.6388C33.7907 41.4961 37.2911 49.7924 31.1355 55.2003C24.7822 60.7845 12.1296 62.5724 0.224854 64.297C5.8196 63.6862 11.4157 63.0203 16.9834 62.2051C20.9877 61.6226 24.9935 60.9836 28.9288 60.0863C32.2084 59.3236 35.8497 58.4343 38.5022 56.2886C39.8975 55.1653 40.9297 53.5847 41.118 51.7847C41.2914 50.0359 40.7482 48.3906 40.1047 46.8086" fill="black" fill-opacity="0.5"/>
<path fill-rule="evenodd" clip-rule="evenodd" d="M11.4854 23.6119C17.618 30.6302 20.1566 32.9171 24.6744 41.9411C28.1816 48.9486 24.3371 50.9786 19.5511 52.8929C15.5047 54.5261 0.839132 56.8682 0.839132 56.8682L0.831004 56.8695C0.072394 59.1013 -0.124032 61.43 0.210569 64.2994L0.224116 64.2981C12.1289 62.5721 24.7814 60.7842 31.1361 55.2001C37.2904 49.7921 33.7913 41.4959 32.4474 38.6385C27.6777 28.4939 21.0656 20.9039 17.0802 16.5587C17.0544 16.5291 17.0233 16.5022 17.0233 16.5022C15.9179 17.304 14.9683 18.4273 13.6312 20.09C12.4323 21.5779 11.587 23.1626 11.4895 23.6119" fill="black"/>
<path fill-rule="evenodd" clip-rule="evenodd" d="M39.8394 67.0703C38.054 65.2811 35.5546 64.4779 33.1149 64.0744C30.7415 63.7004 28.3153 63.6587 25.9162 63.6869C17.4238 63.8268 8.96396 64.9407 0.548804 66.0761L0.495972 66.0842C7.74341 65.1896 13.2718 64.8089 17.5417 64.8089C22.0988 64.817 25.3161 65.2246 27.9103 66.0963C28.0958 66.1555 28.276 66.2174 28.4535 66.2806C28.5524 66.3143 28.6472 66.3506 28.7434 66.3856C28.7921 66.4044 28.8396 66.4219 28.8856 66.4407C35.1116 68.8218 36.8009 73.8424 36.8971 79.9431C36.87 85.8475 35.2918 93.2465 33.2693 100.715C31.7887 106.146 30.0547 111.562 28.4657 116.14C30.602 110.58 32.8344 105.051 34.8583 99.4548C37.0027 93.4953 39.0862 87.525 40.5804 81.357C41.2293 78.6813 41.7874 75.9517 41.828 73.1939C41.8646 71.0133 41.4189 68.6913 39.8394 67.0703" fill="black" fill-opacity="0.5"/>
<path fill-rule="evenodd" clip-rule="evenodd" d="M36.8963 79.9428C36.8001 73.842 35.1108 68.8215 28.8848 66.4404C28.8388 66.4229 28.7914 66.4041 28.7426 66.3852C28.6478 66.3503 28.5516 66.3153 28.454 66.2803C28.2752 66.2171 28.095 66.1552 27.9095 66.0974C25.3153 65.2256 22.0993 64.8167 17.5409 64.8086C13.271 64.8086 7.74262 65.1893 0.495178 66.0839C1.2267 70.5932 3.088 73.5326 3.87777 74.586C9.75564 73.9147 14.2206 73.651 17.5409 73.651C30.1067 73.5972 30.44 77.2025 29.7802 87.0176C29.2316 95.1591 23.6951 109.403 22.2443 112.409C22.2443 112.409 23.3036 113.421 24.6447 114.248C26.3868 115.325 28.2535 116.063 28.45 116.134C28.4581 116.137 28.4649 116.14 28.4649 116.14C30.0552 111.562 31.7879 106.146 33.2685 100.715C35.291 93.2462 36.8692 85.8472 36.8963 79.9428" fill="black"/>
<path fill-rule="evenodd" clip-rule="evenodd" d="M211.078 81.7978L211.07 90.1398H206.182L206.197 80.8709C206.215 79.9655 206.166 79.157 206.027 78.483C205.76 77.1674 204.992 76.3575 203.202 76.3575C202.467 76.3575 201.681 76.492 200.864 76.8015L200.849 90.1398H195.937V74.1459C198.277 73.3616 200.784 72.6742 203.687 72.6742C207.77 72.6742 210.169 75.0647 210.844 78.3579C210.997 79.1382 211.07 80.3086 211.078 81.7978" fill="black"/>
<path fill-rule="evenodd" clip-rule="evenodd" d="M331.721 81.7978L331.716 90.1398H326.818L326.835 80.8709C326.847 79.9655 326.818 79.157 326.676 78.483C326.408 77.1674 325.625 76.3575 323.853 76.3575C323.1 76.3575 322.321 76.492 321.507 76.8015L321.481 90.1398H316.57L316.58 74.1459C318.91 73.3616 321.427 72.6742 324.331 72.6742C328.403 72.6742 330.817 75.0647 331.476 78.3579C331.636 79.1382 331.716 80.3086 331.721 81.7978" fill="black"/>
<path fill-rule="evenodd" clip-rule="evenodd" d="M186.925 76.3065C184.822 76.3065 182.586 78.9539 183.308 83.2077C183.747 85.7933 185.225 86.6341 186.181 86.6341C186.967 86.6341 187.622 86.3704 188.187 85.8699L188.172 76.3818C187.843 76.3495 187.342 76.3065 186.925 76.3065H186.925ZM193.13 90.1398H189.412C189.412 90.1398 189.098 89.6219 188.927 88.9708C188.565 89.2533 187.435 90.3497 185.191 90.3497C182.101 90.3497 179.207 87.5058 178.415 83.6449C176.937 76.3751 182.244 72.7052 187.342 72.7052C189.381 72.7052 191.812 73.2191 193.114 73.5958L193.13 90.1398Z" fill="black"/>
<path fill-rule="evenodd" clip-rule="evenodd" d="M255.306 76.3065C253.205 76.3065 250.963 78.9539 251.698 83.2077C252.121 85.7933 253.611 86.6341 254.566 86.6341C255.336 86.6341 256.012 86.3704 256.578 85.8699L256.554 76.3818C256.218 76.3495 255.73 76.3065 255.306 76.3065H255.306ZM261.503 90.1398H257.786C257.786 90.1398 257.472 89.6219 257.318 88.9708C256.94 89.2533 255.808 90.3497 253.581 90.3497C250.481 90.3497 247.584 87.5058 246.796 83.6449C245.314 76.3751 250.615 72.7052 255.73 72.7052C257.767 72.7052 260.204 73.2635 261.503 73.6402V90.1398Z" fill="black"/>
<path fill-rule="evenodd" clip-rule="evenodd" d="M342.491 76.3065C340.389 76.3065 338.16 78.9539 338.882 83.2077C339.324 85.7933 340.798 86.6341 341.77 86.6341C342.539 86.6341 343.198 86.3704 343.763 85.8699L343.75 76.3818C343.416 76.3495 342.915 76.3065 342.491 76.3065H342.491ZM348.695 90.1398H344.97C344.97 90.1398 344.672 89.6219 344.497 88.9708C344.122 89.2533 343 90.3497 340.768 90.3497C337.667 90.3497 334.772 87.5058 333.989 83.6449C332.499 76.3751 337.807 72.7052 342.915 72.7052C344.939 72.7052 347.384 73.2191 348.69 73.5958L348.695 90.1398Z" fill="black"/>
<path fill-rule="evenodd" clip-rule="evenodd" d="M289.698 81.8189L289.713 90.1394H284.803V80.9001C284.816 79.9813 284.803 79.1567 284.679 78.4733C284.41 77.2235 283.657 76.3504 281.815 76.3504C281.068 76.3504 279.757 76.5859 278.95 77.058C279 77.163 279.509 78.7571 279.509 80.7279L279.523 90.1394H274.573L274.58 80.8705C274.591 79.9181 274.542 79.088 274.4 78.4087C274.148 77.1307 273.363 76.3504 271.623 76.3504C270.854 76.3504 270.1 76.493 269.286 76.7971L269.271 90.1394H264.359V74.1254C266.343 73.407 269.271 72.6752 272.11 72.6752C273.944 72.6752 275.437 73.142 276.581 73.9814C278.027 73.2752 280.002 72.6752 282.307 72.6752C286.371 72.6752 288.77 75.0644 289.446 78.3589C289.603 79.1741 289.713 80.3553 289.698 81.8189" fill="black"/>
<path fill-rule="evenodd" clip-rule="evenodd" d="M301.871 83.2082C301.165 87.8964 297.386 86.8821 296.939 86.5417V76.381C297.276 76.3352 297.833 76.2962 298.249 76.2962C300.351 76.2962 302.531 78.9222 301.871 83.2082ZM297.839 72.7043C295.799 72.7043 293.369 73.0783 292.069 73.4375V98.1002H296.979L296.939 89.8107C297.449 89.9991 298.828 90.3502 299.691 90.3502C303.48 90.3502 305.921 87.6408 306.633 84.1256C308.258 76.0796 302.781 72.7043 297.839 72.7043" fill="black"/>
<path fill-rule="evenodd" clip-rule="evenodd" d="M168.702 84.654C168.246 82.472 166.615 81.0877 164.828 80.1138C162.945 79.0779 161.739 78.5169 161.579 77.7824C161.455 77.13 161.781 75.9771 163.212 75.9448C164.536 75.9138 165.454 76.2717 167.179 77.2241V73.6255C165.264 72.9045 164.129 72.6744 162.647 72.6744C159.367 72.6744 156.639 74.4811 157.358 78.0353C157.766 80.0451 158.927 81.1509 160.418 82.1316C162.066 83.1715 163.909 84.0944 164.154 85.3105C164.341 86.2441 163.782 87.506 161.625 87.506C160.31 87.506 158.881 86.7284 157.686 86.1029V89.844C158.927 90.3095 160.355 90.6431 162.097 90.6431C166.426 90.6431 169.55 88.8311 168.702 84.654Z" fill="black"/>
<path fill-rule="evenodd" clip-rule="evenodd" d="M133.025 72.9164C128.976 72.9164 126.654 73.7209 124.678 74.3881L124.725 90.1398H129.634L129.606 76.9441C130.42 76.632 131.791 76.5042 132.537 76.5042C132.804 76.5042 133.039 76.5365 133.276 76.5688V72.9218C133.181 72.9218 133.102 72.9164 133.025 72.9164" fill="black"/>
<path fill-rule="evenodd" clip-rule="evenodd" d="M140.037 90.1393H135.236L135.269 72.9697C135.269 72.9697 135.892 72.7814 137.652 72.7679C139.646 72.7464 140.067 72.9697 140.067 72.9697L140.037 90.1393Z" fill="black"/>
<path fill-rule="evenodd" clip-rule="evenodd" d="M177.391 86.3527C177.238 86.3836 177.048 86.3836 176.814 86.3836C175.815 86.3836 175.34 85.9195 175.34 84.2958V67.4853C175.34 67.4853 174.897 67.2513 172.876 67.2661C171.071 67.2836 170.444 67.4853 170.444 67.4853H170.428V84.507C170.428 89.7979 173.49 90.6696 175.557 90.6696C176.798 90.6696 177.659 90.4974 178.429 90.2633L177.391 86.3527Z" fill="black"/>
<path fill-rule="evenodd" clip-rule="evenodd" d="M313.701 90.1394H308.9L308.932 73.2644C308.932 73.2644 309.576 72.9227 311.323 72.9159C313.31 72.8944 313.733 73.2644 313.733 73.2644L313.701 90.1394Z" fill="black"/>
<path fill-rule="evenodd" clip-rule="evenodd" d="M245.044 85.9933C244.089 86.2893 242.788 86.6659 241.577 86.6659C238.176 86.6659 236.901 83.3001 236.901 79.0464C236.901 75.0402 237.891 71.3784 241.389 71.3784C242.425 71.3784 243.775 71.5828 244.888 72.6443L247.382 69.3699C246.071 68.0663 244.276 67.3157 241.389 67.3157C235.984 67.3157 231.568 70.8134 231.568 79.0464C231.568 87.457 235.599 90.7932 241.474 90.7932C243.1 90.7932 245.72 90.2632 246.976 89.7654L245.044 85.9933Z" fill="black"/>
<path fill-rule="evenodd" clip-rule="evenodd" d="M221.21 86.819C220.209 86.819 218.796 85.9782 218.345 83.3617C217.887 80.6671 218.532 77.9295 220.24 76.677C221.307 75.9546 222.516 76.1658 223.427 76.4309L223.441 85.9338C222.814 86.5096 221.999 86.819 221.21 86.819H221.21ZM225.845 67.2656C224.055 67.2844 223.427 67.4848 223.427 67.4848L223.441 72.8309C223.05 72.7973 222.516 72.6749 222.107 72.6749C217.088 72.6749 211.878 75.8672 213.509 83.8459C214.311 87.7539 217.182 90.583 220.617 90.583C221.842 90.583 223.096 89.9992 224.162 89.1893L224.634 90.1391H228.383V67.4848C228.383 67.4848 227.874 67.2508 225.845 67.2656" fill="black"/>
<path fill-rule="evenodd" clip-rule="evenodd" d="M149.646 76.0063C149.67 75.9995 149.685 76.0063 149.685 76.0063H149.704C150.973 75.9081 152.026 77.3785 152.102 79.543L152.079 80.556H146.722C146.722 80.556 146.327 76.1946 149.646 76.0063H149.646ZM151.273 83.4806C152.229 83.4806 153.578 83.455 154.426 83.3958L155.514 83.346C155.514 83.2842 155.86 81.8192 155.83 80.1578C155.742 74.3409 152.919 72.7682 149.422 72.6741H149.403H149.397H149.403H149.372C145.059 72.736 141.907 75.3148 141.922 81.5864V81.6631C142.092 88.146 144.997 90.5916 149.626 90.6818C149.67 90.6818 149.67 90.6993 149.67 90.6993C150.772 90.6993 152.919 90.5123 155.047 89.4549V85.8711C153.058 86.7563 152.151 87.2231 150.111 87.1155C146.252 86.9164 146.629 83.4806 146.629 83.4806L151.273 83.4806Z" fill="black"/>
<path fill-rule="evenodd" clip-rule="evenodd" d="M115.452 71.4568C116.174 70.8649 117.87 70.6308 119.487 70.6308C123.202 70.6308 124.617 71.4286 124.617 71.4286L125.698 67.7654C125.698 67.7654 122.89 66.3193 117.211 66.8237C111.892 67.2973 110.245 68.695 110.245 68.695V90.2623H115.439L115.452 80.6369H119.79H122.952V76.6482H119.79H115.452V73.4626V71.4568Z" fill="black"/>
<path fill-rule="evenodd" clip-rule="evenodd" d="M372.02 69.6209C372.02 71.02 370.872 72.1406 369.477 72.1406C368.064 72.1406 366.936 71.02 366.936 69.6209C366.936 68.2326 368.064 67.0958 369.477 67.0958C370.872 67.0958 372.02 68.2326 372.02 69.6209Z" fill="black"/>
<path fill-rule="evenodd" clip-rule="evenodd" d="M384.053 76.7701C384.053 75.1679 383.426 74.0756 382.509 73.4689C381.591 72.8769 380.459 72.7465 379.409 72.7465C378.995 72.7465 378.594 72.768 378.216 72.7976C376.144 72.9617 374.294 73.4379 373.446 73.7783V85.2803H377.211V76.6491C377.949 76.5051 378.545 76.4311 378.986 76.4311C379.503 76.4311 379.817 76.5293 379.944 76.6491C380.082 76.7567 380.161 76.9101 380.179 77.3163C380.179 77.6688 380.082 78.1719 379.885 78.8136C379.614 79.7001 379.268 80.6835 378.923 81.601V85.2803H381.526C381.556 85.1834 383.456 80.323 383.768 78.9051C383.957 78.11 384.053 77.4038 384.053 76.7701Z" fill="black"/>
<path fill-rule="evenodd" clip-rule="evenodd" d="M358.119 90.1236H380.823V89.6568V86.8519H358.119V90.1236Z" fill="black"/>
<path fill-rule="evenodd" clip-rule="evenodd" d="M371.516 73.8511C371.516 73.8511 371.044 73.7206 369.477 73.7206C368.281 73.7206 367.422 73.8511 367.422 73.8511V85.2804H371.516V73.8511Z" fill="black"/>
<path fill-rule="evenodd" clip-rule="evenodd" d="M360.033 81.6015C359.686 80.6827 359.344 79.6993 359.06 78.8127C358.872 78.1724 358.777 77.6693 358.777 77.3155C358.784 76.9105 358.872 76.7558 358.995 76.6482C359.137 76.5298 359.452 76.4303 359.969 76.4303C360.409 76.4303 361.007 76.5043 361.726 76.6482V85.2794H365.51V73.7788C364.66 73.4384 362.811 72.9622 360.738 72.7981C360.361 72.7685 359.953 72.7469 359.548 72.7469C358.495 72.7469 357.364 72.8774 356.439 73.4694C355.515 74.0761 354.901 75.1671 354.901 76.7706C354.901 77.4043 354.995 78.1092 355.183 78.9056C355.499 80.3235 357.395 85.1839 357.429 85.2794H360.033V81.6015Z" fill="black"/>
</g>
<defs>
<clipPath id="clip0_474_3142">
<rect width="384" height="128" fill="white"/>
</clipPath>
</defs>
</svg>
