<svg xmlns="http://www.w3.org/2000/svg" width="210mm" height="50mm" fill="none" viewBox="0 0 60 14"><path fill="#fff" d="m59.678 4.607-.162 2.07h-.86c-1.343 0-2.042 1.074-2.042 2.122v4.675h-2.391V4.607h2.257l.054 1.102c.483-.752 1.316-1.102 2.337-1.102zm-16.606 8.867h-2.391V8.772c0-.994-.08-2.23-1.478-2.23-1.344 0-1.854.967-1.854 2.069v4.836H34.93V4.58h2.23l.053 1.129c.484-.752 1.37-1.344 2.66-1.344 2.419 0 3.171 1.72 3.171 3.52v5.59zm-9.19-2.069-.16 2.016c-.565.16-1.075.214-1.693.214-2.257 0-2.902-1.047-2.902-3.117v-8.41h2.391v2.5h2.392l-.162 2.068h-2.23v3.654c0 .833.242 1.29 1.075 1.29.376 0 .78-.027 1.29-.215m-5.561-6.798-.188 2.07h-.645c-1.344 0-2.015 1.074-2.015 2.122v4.675H23.08V4.607h2.284l.054 1.102c.483-.752 1.316-1.102 2.337-1.102zm-16.068 7.9c-1.64.86-3.252 1.37-5.401 1.316C2.875 13.69 0 11.244 0 7.054 0 2.887 2.902.253 6.852.172c2.015-.026 3.788.484 5.186 1.72l-1.693 1.72c-.86-.752-2.15-1.182-3.654-1.102-2.5.108-3.977 1.935-4.03 4.407-.028 2.687 1.611 4.541 4.19 4.622 1.21.026 2.097-.135 2.849-.484v-2.74H7.013l.188-2.258h5.025v6.449zM53.148 9.9h-6.583c.188 1.128 1.075 1.827 2.177 1.854 1.074.026 1.692-.296 2.472-1.102l1.558 1.182c-1.102 1.37-2.445 1.881-3.977 1.881-2.687 0-4.675-1.88-4.675-4.648 0-2.795 1.988-4.649 4.568-4.649 2.848 0 4.406 1.72 4.406 4.783V9.9zM50.73 8.02c-.08-1.129-.914-1.827-2.069-1.774-1.155.054-1.935.806-2.096 1.774zm-29.18-.35v5.804h-2.123l-.054-.886c-.645.806-1.693 1.101-2.794 1.101-1.64 0-3.171-.806-3.198-2.687-.054-2.955 3.305-3.144 5.428-3.144h.43v-.107c0-.967-.645-1.505-1.854-1.505-.86 0-1.72.35-2.365.94L13.65 5.79c1.263-1.02 2.552-1.397 3.95-1.397 2.74 0 3.95 1.263 3.95 3.278m-2.311 1.935h-.323c-1.128 0-3.117.054-3.117 1.236 0 1.666 3.467 1.129 3.467-.887v-.349zm38.558 2.848c0-.564.43-.994.967-.994s.967.43.967.994-.43.994-.967.994-.967-.43-.967-.994m.994 1.182c.645 0 1.209-.51 1.209-1.209 0-.698-.564-1.182-1.21-1.182-.644 0-1.208.51-1.208 1.182-.027.726.537 1.21 1.209 1.21m-.269-1.101h.242l.35.59h.241l-.403-.617c.215-.027.35-.134.35-.376q0-.403-.484-.403h-.538v1.37h.215zm0-.162v-.43h.296c.134 0 .295.027.295.216 0 .215-.16.215-.322.215z"/></svg>