<svg xmlns="http://www.w3.org/2000/svg" width="133" height="40" fill="none" class="attachment-247286 logo-mendix-siemens-tagline" viewBox="0 0 133 40"><path fill="currentColor" fill-rule="evenodd" d="M99.034 2.401a.248.248 0 0 1 .291.244v26.859c0 .136-.11.247-.247.247h-4.403a.25.25 0 0 1-.243-.201l-.468-2.466a.08.08 0 0 0-.147-.028c-1.187 1.863-3 3.138-6.276 3.138-5.596 0-9.116-4.468-9.116-10.488 0-6.204 3.706-11.079 9.264-11.079 2.435 0 4.467.952 5.618 2.565a.05.05 0 0 0 .04.02.05.05 0 0 0 .049-.048V3.62c0-.12.085-.222.203-.243zm-5.416 17.01c0-3.14-1.816-5.355-4.484-5.355s-4.595 2.253-4.595 5.392 1.816 5.096 4.521 5.096 4.558-1.773 4.558-5.133" clip-rule="evenodd"/><path fill="currentColor" d="M17.586 12.246a.09.09 0 0 0 .08-.05c.943-1.9 3.304-3.569 6.794-3.569 6.374 0 7.522 5.207 7.522 7.386v13.491c0 .136-.11.247-.247.247h-5.657a.247.247 0 0 1-.247-.247V18.34c0-3.25-1.112-4.284-3.039-4.284-2.594 0-3.743 2.179-3.743 5.392v10.056c0 .136-.11.247-.247.247h-5.62a.247.247 0 0 1-.247-.247V18.34c0-3.25-1.112-4.284-3.039-4.284-2.594 0-3.743 2.216-3.743 5.392v10.056c0 .136-.11.247-.247.247H.25a.247.247 0 0 1-.247-.247v-19.17c0-.116.08-.216.194-.24l4.432-.966a.247.247 0 0 1 .298.212l.293 2.395a.077.077 0 0 0 .142.032c1.407-2.19 3.4-3.14 5.943-3.14 3.124 0 5.227 1.598 6.202 3.57a.09.09 0 0 0 .08.05"/><path fill="currentColor" fill-rule="evenodd" d="M34.2 19.522c0-6.685 4.372-10.895 10.08-10.895 5.854 0 9.708 4.432 9.708 11.005 0 .455-.02 1.22-.03 1.608a.246.246 0 0 1-.246.239H40.464a.234.234 0 0 0-.237.26c.236 1.852 1.87 3.1 4.349 3.1 2.621 0 4.384-.998 5.64-1.944a.25.25 0 0 1 .15-.05h.043c.102 0 .194.063.231.158l1.838 4.769a.24.24 0 0 1-.079.28c-1.323.977-4.07 2.142-7.712 2.142-6.077 0-10.487-3.877-10.487-10.672m13.879-2.475a.232.232 0 0 0 .233-.273c-.307-1.525-1.718-2.94-3.922-2.94-2.166 0-3.542 1.38-3.909 2.93a.233.233 0 0 0 .233.283z" clip-rule="evenodd"/><path fill="currentColor" d="M68.056 8.627c-2.798 0-5.084 1.313-6.277 3.14a.078.078 0 0 1-.142-.032l-.293-2.395a.247.247 0 0 0-.297-.212l-4.432.965a.25.25 0 0 0-.195.242v19.169c0 .136.11.247.247.247h5.657c.137 0 .248-.11.248-.247V19.448c0-3.62 2.186-5.392 4.335-5.392 1.853 0 3.261 1.219 3.261 3.656v11.792c0 .136.11.247.247.247h5.657c.137 0 .248-.11.248-.247V15.902c0-3.951-2.668-7.275-8.264-7.275m34.913.867c0-.192.21-.312.382-.229.765.37 1.673.573 2.716.573 1.001 0 1.879-.188 2.624-.53.172-.079.377.042.377.231v19.954c0 .137-.11.247-.247.247h-5.62a.247.247 0 0 1-.247-.247zm29.048-.44c.192 0 .311.209.212.374l-5.812 9.724a.25.25 0 0 0 .004.26l6.381 9.942a.247.247 0 0 1-.208.38h-6.634a.25.25 0 0 1-.212-.12l-3.273-5.524a.248.248 0 0 0-.426 0l-3.273 5.524a.25.25 0 0 1-.212.12h-6.633a.247.247 0 0 1-.208-.38l6.38-9.942a.25.25 0 0 0 .004-.26l-5.812-9.724a.247.247 0 0 1 .212-.374h6.567c.092 0 .176.05.219.132l2.75 5.234a.248.248 0 0 0 .438 0l2.75-5.234a.25.25 0 0 1 .219-.132zM102.213 3.82c0-2.252 1.371-3.766 3.854-3.766s3.854 1.514 3.854 3.767c0 2.215-1.371 3.84-3.854 3.84s-3.854-1.625-3.854-3.84M62.252 39.282l-2.035-5.763h-.972l-2.035 5.763h.7l.602-1.761h2.438l.601 1.761zm-2.537-5.236h.024l1.03 2.914h-2.084zm7.135-.626c-1.088 0-1.78.667-1.78 1.548 0 .864.618 1.293 1.738 1.606 1.153.32 1.672.535 1.672 1.185 0 .618-.428 1.005-1.326 1.005-.89 0-1.54-.601-1.928-1.186h-.032l-.363.61c.362.56 1.22 1.193 2.34 1.193 1.21 0 1.96-.593 1.96-1.638 0-1.013-.775-1.367-1.862-1.672-1.26-.354-1.54-.584-1.54-1.12 0-.485.362-.93 1.137-.93.692 0 1.26.47 1.598 1.037h.032l.363-.576c-.346-.543-1.07-1.062-2.01-1.062m3.588-.362c-.322 0-.495.197-.495.494 0 .288.173.485.495.485.321 0 .494-.197.494-.485 0-.297-.173-.494-.494-.494m.313 6.224v-4.61h-.618v4.61zm3.06-4.709c-1.128 0-2.067.988-2.067 2.387 0 1.408.716 2.421 2.125 2.421.766 0 1.441-.379 1.787-.873l-.313-.576h-.024c-.24.37-.717.865-1.458.865-.89 0-1.458-.65-1.508-1.614h3.443s.008-.149.008-.272c0-1.45-.864-2.339-1.993-2.339m0 .56c.741 0 1.318.51 1.376 1.506h-2.81c.083-.856.652-1.507 1.434-1.507m7.496-.558c-.692 0-1.162.353-1.384.782h-.025c-.156-.428-.576-.782-1.194-.782-.626 0-1.03.28-1.277.708h-.016l-.074-.61H76.8v4.611h.618V36.64c0-.955.494-1.507 1.129-1.507.527 0 .856.297.856 1.096v3.054h.618V36.64c0-.988.51-1.507 1.137-1.507.535 0 .865.297.865 1.096v3.054h.618v-3.285c0-.898-.503-1.425-1.335-1.425m4.321 0c-1.128 0-2.067.988-2.067 2.387 0 1.408.716 2.421 2.125 2.421.766 0 1.441-.379 1.787-.873l-.313-.576h-.025c-.238.37-.716.865-1.457.865-.89 0-1.458-.65-1.508-1.614h3.443s.009-.149.009-.272c0-1.45-.865-2.339-1.994-2.339m0 .56c.742 0 1.318.51 1.376 1.506h-2.809c.082-.856.65-1.507 1.433-1.507m5.074-.558c-.667 0-1.161.304-1.45.732h-.024l-.074-.634h-.536v4.611h.618v-2.47c0-1.02.577-1.68 1.351-1.68.708 0 1.07.453 1.07 1.26v2.89h.618V36.27c0-.947-.527-1.697-1.573-1.697m4.159 0c-.98 0-1.507.625-1.507 1.26 0 .683.42 1.053 1.458 1.317 1.194.304 1.35.56 1.35.955 0 .362-.304.7-1.02.7-.71 0-1.237-.428-1.574-.988h-.025l-.354.535c.296.51 1.046 1.03 1.977 1.03.93 0 1.606-.52 1.606-1.277 0-.75-.445-1.136-1.54-1.424-1.129-.297-1.269-.528-1.269-.857 0-.313.255-.692.89-.692.659 0 1.12.404 1.4.865h.033l.338-.519c-.247-.379-.832-.906-1.763-.906m5.1-1.053v5.763h2.003c1.532 0 1.952-.798 1.952-1.54 0-.74-.363-1.193-.906-1.399v-.017c.601-.255.906-.667.906-1.325 0-.93-.61-1.482-1.746-1.482zm.66.6h1.499c.799 0 1.129.38 1.129.931 0 .643-.503 1.013-1.203 1.013h-1.425zm0 2.529h1.442c.831 0 1.194.378 1.194 1.012 0 .626-.379 1.021-1.269 1.021h-1.367zm7.745 2.634v-4.61h-.618v2.692c0 .864-.569 1.44-1.31 1.44-.634 0-.947-.378-.947-1.119v-3.014h-.618v3.105c0 .946.494 1.605 1.499 1.605.643 0 1.112-.337 1.343-.74h.025l.09.641zm2.575-4.709c-.98 0-1.507.625-1.507 1.26 0 .683.42 1.053 1.458 1.317 1.194.304 1.351.56 1.351.955 0 .362-.305.7-1.022.7-.708 0-1.235-.428-1.573-.988h-.025l-.354.535c.297.51 1.046 1.03 1.977 1.03s1.606-.52 1.606-1.277c0-.75-.445-1.136-1.54-1.424-1.129-.297-1.269-.528-1.269-.857 0-.313.256-.692.89-.692.659 0 1.12.404 1.4.865h.033l.338-.519c-.247-.379-.832-.906-1.763-.906m3.216-1.514c-.321 0-.494.197-.494.494 0 .288.173.485.494.485.322 0 .494-.197.494-.485 0-.297-.172-.494-.494-.494m.313 6.224v-4.61h-.617v4.61zm3.325-4.709c-.668 0-1.162.304-1.45.732h-.025l-.074-.634h-.536v4.611h.618v-2.47c0-1.02.577-1.68 1.351-1.68.709 0 1.071.453 1.071 1.26v2.89h.618V36.27c0-.947-.527-1.697-1.573-1.697m4.562 0c-1.128 0-2.067.988-2.067 2.387 0 1.408.716 2.421 2.125 2.421.766 0 1.441-.379 1.787-.873l-.313-.576h-.025c-.238.37-.716.865-1.458.865-.889 0-1.457-.65-1.507-1.614h3.443s.009-.149.009-.272c0-1.45-.865-2.339-1.994-2.339m0 .56c.742 0 1.318.51 1.376 1.506h-2.809c.082-.856.651-1.507 1.433-1.507m4.407-.558c-.98 0-1.507.625-1.507 1.26 0 .683.42 1.053 1.458 1.317 1.194.304 1.35.56 1.35.955 0 .362-.304.7-1.021.7-.709 0-1.236-.428-1.573-.988h-.025l-.354.535c.296.51 1.046 1.03 1.977 1.03.93 0 1.606-.52 1.606-1.277 0-.75-.445-1.136-1.54-1.424-1.129-.297-1.269-.528-1.269-.857 0-.313.255-.692.89-.692.659 0 1.12.404 1.4.865h.033l.338-.519c-.247-.379-.832-.906-1.763-.906m4.328.001c-.981 0-1.508.625-1.508 1.26 0 .683.42 1.053 1.458 1.317 1.195.304 1.351.56 1.351.955 0 .362-.305.7-1.021.7-.709 0-1.236-.428-1.574-.988h-.024l-.355.535c.297.51 1.047 1.03 1.977 1.03s1.607-.52 1.607-1.277c0-.75-.445-1.136-1.541-1.424-1.128-.297-1.268-.528-1.268-.857 0-.313.255-.692.889-.692.659 0 1.121.404 1.401.865h.033l.337-.519c-.247-.379-.832-.906-1.762-.906"/></svg>