<svg width="540" height="856" viewBox="0 0 540 856" fill="none" xmlns="http://www.w3.org/2000/svg">
<rect width="540" height="856" rx="24" fill="#29292E"/>
<path d="M458.54 46V88H448.82V53.8H440.42V46H458.54Z" fill="#EBEBEB" fill-opacity="0.86"/>
<path d="M483.836 88.72C480.356 88.72 477.256 87.86 474.536 86.14C471.816 84.42 469.676 81.94 468.116 78.7C466.596 75.42 465.836 71.52 465.836 67C465.836 62.48 466.596 58.6 468.116 55.36C469.676 52.08 471.816 49.58 474.536 47.86C477.256 46.14 480.356 45.28 483.836 45.28C487.316 45.28 490.416 46.14 493.136 47.86C495.856 49.58 497.976 52.08 499.496 55.36C501.056 58.6 501.836 62.48 501.836 67C501.836 71.52 501.056 75.42 499.496 78.7C497.976 81.94 495.856 84.42 493.136 86.14C490.416 87.86 487.316 88.72 483.836 88.72ZM483.836 80.5C486.396 80.5 488.396 79.4 489.836 77.2C491.316 75 492.056 71.6 492.056 67C492.056 62.4 491.316 59 489.836 56.8C488.396 54.6 486.396 53.5 483.836 53.5C481.316 53.5 479.316 54.6 477.836 56.8C476.396 59 475.676 62.4 475.676 67C475.676 71.6 476.396 75 477.836 77.2C479.316 79.4 481.316 80.5 483.836 80.5Z" fill="#EBEBEB" fill-opacity="0.86"/>
<path d="M424.21 66.57C426.57 66.57 428.55 65.73 430.15 64.05L432.07 65.94C431.13 67.02 429.97 67.84 428.59 68.4C427.21 68.96 425.7 69.24 424.06 69.24C422.32 69.24 420.71 68.92 419.23 68.28C417.75 67.62 416.5 66.7 415.48 65.52C414.46 64.34 413.74 62.97 413.32 61.41H409.9V59.73H413.02C412.98 59.21 412.96 58.8 412.96 58.5C412.96 58.2 412.98 57.79 413.02 57.27H409.9V55.59H413.32C413.74 54.03 414.46 52.66 415.48 51.48C416.5 50.3 417.75 49.39 419.23 48.75C420.71 48.09 422.32 47.76 424.06 47.76C425.72 47.76 427.23 48.04 428.59 48.6C429.97 49.16 431.13 49.97 432.07 51.03L430.15 52.92C428.57 51.26 426.59 50.43 424.21 50.43C422.39 50.43 420.79 50.9 419.41 51.84C418.03 52.78 417.06 54.03 416.5 55.59H426.01V57.27H416.08C416.02 57.65 415.99 58.06 415.99 58.5C415.99 58.92 416.02 59.33 416.08 59.73H426.01V61.41H416.5C417.06 62.97 418.03 64.22 419.41 65.16C420.79 66.1 422.39 66.57 424.21 66.57Z" fill="#EBEBEB" fill-opacity="0.86"/>
<path d="M248.144 476.19C245.953 479.709 243.671 481.463 241.287 480.909C239.185 480.188 237.445 478.549 235.949 476.654C234.273 474.512 233.229 474.576 231.41 475.932C230.251 476.783 228.716 477.183 227.804 478.227C226.875 479.257 227.492 482.08 225.096 481.669C224.605 481.63 224.502 478.6 224.411 476.95C223.988 469.279 223.6 461.623 223.289 453.951C223.252 452.857 223.664 450.794 223.987 450.767C226.114 450.6 226.101 452.559 226.244 453.913C226.644 457.96 226.797 462.033 227.107 466.082C227.416 468.131 227.713 470.013 228.05 472.772C234.158 470.026 236.118 464.896 237.819 459.933C239.522 454.97 241.209 449.736 240.192 444.219C240.167 443.845 240.27 443.459 240.489 443.148C241.056 443.084 241.636 443.2 242.137 443.494C243.786 445.235 244.482 447.674 244.007 450.031C243.403 456 241.481 461.761 238.4 466.905C235.846 471.21 236.336 472.978 239.933 476.202C240.538 476.806 241.261 477.258 242.035 477.553C243.671 478.639 245.772 477.927 248.169 476.085C248.3 475.35 248.493 474.306 248.581 473.096C248.503 472.025 248.581 470.955 248.839 469.912C249.186 469.114 250.348 467.912 250.953 468.004C252.346 468.235 252.463 469.641 252.486 470.492C252.436 471.987 252.178 473.456 251.713 474.873C251.599 475.183 251.519 475.505 251.495 475.841C251.365 477.517 252.487 479.05 254.136 479.424C254.576 479.49 255.013 479.49 255.438 479.438C258.016 479.411 259.682 477.325 260.956 474.347C259.912 480.804 257.448 482.828 254.316 482.776C252.912 482.634 251.441 482.003 249.881 480.932C249.456 480.661 248.039 478.199 248.012 477.079C248.015 476.912 248.066 476.615 248.144 476.19ZM263.524 479.645C262.249 478.252 261.706 469.395 261.746 467.888C261.913 466.508 261.579 464.587 263.731 464.704C264.117 464.73 264.532 466.766 264.685 467.912C265.06 470.854 265.188 473.816 265.652 476.73C265.807 477.62 266.709 479.14 267.34 479.207C267.986 479.257 269.119 477.915 269.468 477.052C270.589 474.32 271.841 471.613 272.473 468.739C272.768 467.373 274.804 467.475 274.588 468.701C273.207 471.421 275.529 473.11 276.558 474.965C277.254 476.32 278.917 477.841 280.206 477.851C282.514 477.956 284.06 476.009 284.512 473.765C284.966 471.522 284.885 469.073 285.246 466.739C285.465 465.965 285.788 465.218 286.201 464.535C287.914 463.993 288.74 465.18 288.455 466.247C287.826 468.709 287.309 471.289 287.221 473.843C287.221 475.234 288.263 476.935 289.722 477.425C292.906 476.742 293.383 475.079 293.241 476.367C293.098 477.708 290.649 478.597 289.617 478.907C288.199 479.152 286.163 478.366 286.123 476.29C285.634 477.529 284.202 479.101 284.061 479.229C279.408 483.124 276.325 480.108 273.348 476.625C272.767 477.632 272.136 478.612 271.465 479.553C268.448 483.358 266.913 483.46 263.524 479.645ZM299.98 481.139C295.571 481.861 293.341 472.286 293.869 471.574C293.997 470.363 293.702 469.178 293.727 467.965C293.636 466.793 293.764 465.606 294.113 464.472C294.592 463.675 295.378 463.095 296.279 462.861C296.562 462.758 297.567 463.84 297.684 464.434C297.942 466.214 298.095 468.005 298.137 469.798C298.058 471.382 298.085 472.982 298.239 474.566C298.908 477.829 300.38 478.692 303.871 478.408C306.023 478.214 308.19 478.111 310.355 477.996C310.433 478.023 310.536 478.318 311.027 479.143C308.048 479.942 305.251 480.755 302.416 481.412C301.591 481.448 300.778 481.36 299.98 481.139ZM257.736 453.734L259.685 455.81C258.174 456.816 256.55 457.651 254.887 458.324C254.359 458.491 253.894 456.828 253.392 455.978L257.736 453.734ZM301.038 450.473C300.599 452.356 300.83 453.593 300.044 454.184C298.355 455.216 296.525 456.118 294.63 456.853C294.527 455.693 293.753 454.327 294.604 453.464C295.456 452.599 298.176 451.789 301.038 450.473Z" fill="#F9EF77"/>
<path d="M188.229 394.33C178.716 394.33 171.2 401.472 171.2 410.665C171.2 419.803 178.716 427.087 188.229 427.087C197.693 427.087 205.207 419.803 205.207 410.665C205.206 401.523 197.691 394.33 188.229 394.33ZM393.301 394.33C383.877 394.33 376.361 401.523 376.361 410.612C376.361 419.803 383.786 427.085 393.159 427.085C397.67 427.085 402.028 425.102 405.225 422.084L402.957 419.52C400.405 421.943 396.925 423.426 393.355 423.426C386.019 423.426 380.129 417.715 380.129 410.612C380.129 403.469 386.019 397.811 393.355 397.811C396.926 397.811 400.444 399.332 402.957 401.897L405.187 399.064C402.079 396.136 397.76 394.33 393.301 394.33ZM290.223 394.281C283.506 394.281 278.995 397.58 278.995 402.686C278.995 414.326 297.289 409.789 297.236 418.321C297.236 421.427 294.309 423.336 289.629 423.336C285.955 423.336 281.831 421.66 278.813 418.734L277.138 422.086C280.206 425 284.846 427.049 289.577 427.049C296.538 427.049 301.321 423.569 301.321 418.13C301.373 406.347 283.081 410.703 283.081 402.362C283.081 399.615 285.816 398.043 290.005 398.043C292.595 398.043 296.024 398.829 298.95 400.776L300.537 397.295C297.84 395.492 293.987 394.281 290.223 394.281ZM130.774 409.093H150.354V394.423H154.066V426.908H150.354V412.611H130.774V426.908H127.06V394.423H130.774V409.093ZM222.338 394.423H226.052V423.376H240.297V426.908H222.338V394.423ZM256.68 394.423H260.391V426.908H256.68V394.423ZM339.788 394.423V397.993H329.167V426.909H325.455V397.993H314.87V394.423H339.788ZM355.529 394.423H359.241V426.908H355.529V394.423ZM188.229 397.851C195.462 397.851 201.403 403.511 201.403 410.666C201.403 417.808 195.462 423.517 188.229 423.517C180.985 423.517 174.953 417.806 174.953 410.666C174.952 403.511 180.984 397.851 188.229 397.851Z" fill="#F9EF77"/>
<path d="M269.89 356.792C269.425 356.883 268.949 356.973 268.46 357.038C264.98 357.978 261.524 358.313 258.146 357.463C256.342 357.013 254.472 356.755 252.719 356.161C252.151 355.954 251.777 355.04 251.185 354.343C251.418 354.381 251.65 354.434 251.883 354.487C251.391 354.176 251.045 353.816 250.837 353.404L252.745 354.693C253.057 354.757 253.35 354.836 253.66 354.912L253.608 354.873C251.262 353.352 249.264 351.444 247.692 349.213C246.802 346.803 245.809 343.889 245.706 342.549L245.333 343.026C245.217 343.617 245.269 344.353 245.448 345.126C245.32 344.816 245.203 344.495 245.087 344.173C245.087 344.753 245.102 345.346 245.114 345.94C245.087 345.797 245.063 345.667 245.036 345.528C244.481 342.832 243.965 338.489 242.51 336.285C241.491 334.661 239.931 333.771 237.471 334.029C237.147 334.054 236.825 334.118 236.515 334.196C237.651 334.246 238.773 334.378 239.879 334.584C240.407 334.803 240.872 335.188 241.208 335.73C242.162 337.046 242.407 338.801 242.537 340.606C242.499 341.005 242.407 341.417 242.265 341.803L241.982 341.817C241.879 341.095 241.788 340.361 241.687 339.651C241.198 336.647 239.405 335.54 237.135 335.358C235.95 335.256 234.74 335.371 233.538 335.68C231.128 337.448 229.116 340.206 227.364 342.113C223.47 346.341 219.926 351.009 216.472 355.699C217.091 354.282 217.991 352.98 218.752 351.626L218.416 351.395C216.418 354.102 214.317 356.719 213.079 360.124C213.156 360.085 213.234 360.031 213.323 359.994C208.876 366.028 201.992 375.283 200.743 376.109C200.612 375.438 200.161 374.587 200.394 374.15C203.616 367.782 206.956 361.491 210.204 355.135L209.868 356.515C211.185 355.367 211.659 354.221 211.298 352.957C211.944 351.682 212.575 350.417 213.206 349.14C216.236 342.966 219.059 336.649 221.688 330.281C221.739 330.151 221.791 330.023 221.843 329.893C221.688 328.515 221.354 327.06 221.315 324.957C221.391 322.984 221.766 320.986 222.423 319.066C224.021 313.574 223.402 315.868 227.488 311.847L228.559 310.775L228.803 311.034C228.623 311.446 228.416 311.847 228.184 312.233C228.674 311.884 229.178 311.55 229.707 311.24C232.542 309.553 235.713 308.791 238.834 309.049C240.6 309.488 242.043 310.093 243.279 310.827C243.266 310.749 243.266 310.673 243.254 310.582L249.814 313.134L249.7 313.638C249.131 313.587 248.55 313.599 247.996 313.471C247.327 313.264 246.656 313.083 245.974 312.927C246.799 313.739 247.521 314.617 248.205 315.546C248.217 315.701 248.254 315.868 248.305 316.011C248.823 316.976 249.415 317.88 250.33 318.342C250.676 318.534 251.051 318.625 251.437 318.6C252.186 318.382 252.934 318.124 253.668 317.815C255.317 317.222 256.724 315.83 257.548 313.987C257.277 314.05 257.032 314.191 256.815 314.412C255.757 315.792 254.428 316.809 252.959 317.364C251.902 317.775 250.884 317.829 250.008 317.247C250.678 317.492 251.413 317.338 252.212 316.771C254.649 314.991 257.278 313.623 260 312.696C263.892 311.987 267.773 311.653 271.601 312.22C271.822 312.284 272.066 311.989 272.672 311.653C273.125 311.42 276.758 312.169 278.562 312.876C277.481 312.915 276.384 313.057 275.276 313.277C281.257 313.109 286.235 316.501 291.003 320.612L291.261 319.915L288.399 317.596C288.682 317.777 288.966 317.955 289.249 318.151C292.033 318.048 294.689 318.471 297.216 320.031C298.054 320.547 299.101 320.6 300.013 320.935C300.35 321.062 300.606 321.514 300.904 321.823L300.686 322.274L298.146 321.605L303.109 326.531L302.799 327.2C298.92 323.101 294.819 319.568 289.792 318.512C290.037 318.679 290.281 318.846 290.526 319.014C290.902 319.283 291.288 319.556 291.661 319.824C291.907 319.927 292.153 320.018 292.396 320.109L292.357 320.16L295.723 323.293L295.335 323.588C295.543 324.22 295.824 324.801 296.161 325.317C296.483 325.69 296.844 326.011 297.205 326.334L297.347 326.463C297.708 326.784 298.069 327.106 298.391 327.48C300.492 329.867 301.654 333.025 302.647 336.297C304.206 341.454 303.664 347.012 301.77 352.658C300.404 356.807 298.081 360.456 295.517 363.989C292.05 366.941 287.923 368.99 283.103 370.396C280.577 371.582 277.766 372.253 274.762 372.356C275.871 371.622 276.992 370.833 278.114 369.983C279.068 369.273 280.989 368.538 282.833 367.509C279.752 368.708 275.69 369.622 274.427 368.745C280.164 368.681 284.288 366.695 286.869 363.951C286.918 363.873 286.957 363.796 286.997 363.705C287.099 363.627 287.203 363.549 287.306 363.473C287.834 362.854 288.736 362.004 288.709 362.262C292.718 358.485 294.937 353.2 294.549 347.076C294.408 344.835 294.097 342.654 293.659 340.643C293.364 337.486 292.435 334.534 291.391 331.646C290.952 330.575 289.249 330.15 288.527 329.286C288.478 329.197 288.426 329.121 288.362 329.029C288.414 329.121 288.463 329.197 288.527 329.286C289.291 330.408 289.856 331.415 290.306 332.357C289.534 331.324 288.683 330.588 287.792 330.253C285.124 326.517 280.998 323.782 275.302 323.202C274.411 323.111 273.534 323.086 272.645 323.111H272.658V323.742C271.886 323.95 271.098 324.091 270.326 324.167C270.081 324.167 269.874 323.704 269.656 323.379C266.678 323.858 263.818 324.902 261.457 326.384L263.649 325.585L263.944 326.165C263.364 326.694 262.747 327.17 262.103 327.584L262.025 327.609C261.779 327.635 261.394 327.286 261.081 327.131L261.136 326.589C260.734 326.847 260.361 327.118 260 327.401L259.77 327.184L258.568 328.214C258.246 328.393 257.976 328.626 257.757 328.924L258.568 328.214C258.814 328.072 259.086 327.968 259.381 327.894C258.725 328.459 258.13 329.078 257.614 329.722L257.486 329.283C256.364 330.845 255.513 332.506 254.997 334.169C255.152 334.916 255.32 335.639 255.513 336.321C255.526 336.437 255.541 336.567 255.565 336.682C255.435 337.481 255.435 338.397 255.592 339.453C255.642 339.79 255.707 340.124 255.771 340.446C255.074 338.577 254.649 336.643 254.715 335.264C254.111 338.112 254.56 340.949 256.455 343.435C256.7 343.745 256.931 344.041 257.175 344.326C261.289 352.072 271.434 353.452 274.54 346.079C274.247 346.439 273.884 346.789 273.485 347.097C271.267 348.838 266.407 349.829 264.575 348.774C270.208 348.284 273.147 346.272 275.367 342.417C275.392 340.498 274.773 337.996 272.699 335.444C272.465 335.289 272.195 335.083 271.886 334.85C271.987 334.85 272.078 334.84 272.168 334.84C272.361 335.045 272.721 335.085 272.888 335.289C273.674 335.83 273.751 336 273.043 334.827C274.244 334.851 275.429 335.085 276.652 335.547L276.846 335.329C281.615 335.56 283.472 341.105 281.937 346.763C281.615 347.974 281.089 349.136 280.392 350.217C280.34 350.244 280.3 350.281 280.249 350.321C278.727 354.123 267.218 361.368 263.412 360.659L266.815 359.538L266.751 359.269L264.869 359.642C265.269 359.075 265.358 358.702 265.579 358.65C267.067 358.146 268.499 357.516 269.89 356.792ZM261.654 356.445C261.718 356.445 261.782 356.458 261.848 356.458C261.848 356.431 261.834 356.406 261.834 356.394L261.654 356.445ZM302.814 354.742C302.905 354.511 302.995 354.278 303.086 354.045C305.625 347.497 305.74 341.103 304.079 335.085C302.995 331.153 300.971 328.005 298.987 324.81C297.93 323.108 296.472 322.052 294.939 321.098C296.266 321.678 297.529 322.413 298.598 323.599C301.125 326.422 303.691 329.18 305.431 332.906C305.74 333.577 306.023 334.245 306.281 334.928C306.153 334.992 306.05 335.071 306.023 335.147C305.883 335.623 306.308 336.372 306.926 336.81C307.054 337.235 307.185 337.66 307.285 338.085C307.208 340.109 306.976 342.068 306.602 343.953C306.538 343.706 306.46 343.475 306.358 343.23L306.384 343.282C306.229 340.318 305.61 337.506 304.413 334.914C305.251 337.415 305.816 340.11 306.192 342.844L306.217 342.895C306.074 342.613 305.921 342.328 305.727 342.059C305.792 343.191 305.792 344.34 305.754 345.499C305.651 346.61 305.509 347.718 305.342 348.827C304.645 350.942 303.782 352.913 302.814 354.742ZM306.334 343.178L306.347 343.191L306.311 343.102L306.334 343.178ZM287.228 330.096C284.78 326.032 279.353 323.508 275.768 324.953L275.69 325.184C276.543 325.415 278.914 325.235 279.727 325.673C281.054 325.854 282.974 326.909 284.276 327.4C285.824 327.98 285.824 328.316 286.417 330.211L286.481 330.044C286.726 330.031 286.984 330.044 287.228 330.096ZM222.683 321.961C222.426 323.676 222.323 325.429 222.194 327.103C222.13 327.658 222.167 328.135 222.258 328.573C222.683 327 222.839 325.363 222.723 323.764C222.683 323.133 222.657 322.541 222.683 321.961ZM227.248 314.599L226.332 315.218L226.114 314.986C226.642 314.511 227.081 313.904 227.688 313.593C229.146 312.858 230.666 312.239 232.187 311.622C233.141 311.234 233.889 311.441 234.329 312.15C233.426 312.305 232.445 312.278 231.688 312.666C230.5 313.349 229.365 314.123 228.283 314.973C227.817 315.322 227.369 315.631 226.905 315.966L226.66 315.733L227.355 314.728L227.248 314.599ZM289.498 315.282L284.82 312.833C286.25 312.035 288.647 313.182 289.498 315.282ZM264.72 310.306C269.877 308.927 277.858 308.669 280.075 310.435L276.621 309.892L276.545 310.165L278.334 310.693C277.742 311.015 277.486 311.312 277.277 311.261C276.078 311.082 274.879 310.99 273.68 310.964C271.826 310.153 268.266 309.986 264.72 310.306Z" fill="#4AA52D"/>
<path d="M137.25 545.272C136.143 544.852 135.28 544.307 134.659 543.638L135.208 542.731C135.797 543.351 136.591 543.858 137.584 544.248C138.577 544.637 139.624 544.832 140.721 544.832C142.313 544.832 143.515 544.528 144.326 543.924C145.137 543.32 145.543 542.532 145.543 541.562C145.543 540.814 145.327 540.217 144.897 539.772C144.468 539.326 143.934 538.983 143.3 538.745C142.662 538.508 141.803 538.261 140.721 538.005C139.496 537.705 138.516 537.41 137.775 537.122C137.034 536.837 136.406 536.394 135.887 535.798C135.369 535.201 135.11 534.4 135.11 533.4C135.11 532.589 135.326 531.843 135.755 531.167C136.185 530.492 136.843 529.955 137.724 529.556C138.608 529.158 139.709 528.962 141.03 528.962C141.953 528.962 142.86 529.096 143.75 529.366C144.642 529.639 145.413 530.004 146.066 530.463L145.613 531.443C144.945 530.981 144.208 530.63 143.406 530.393C142.602 530.153 141.812 530.035 141.03 530.035C139.487 530.035 138.317 530.345 137.523 530.966C136.725 531.585 136.327 532.39 136.327 533.376C136.327 534.123 136.543 534.721 136.972 535.167C137.403 535.613 137.936 535.953 138.571 536.193C139.206 536.433 140.076 536.687 141.173 536.958C142.398 537.261 143.377 537.553 144.108 537.842C144.84 538.127 145.465 538.56 145.983 539.143C146.5 539.723 146.76 540.507 146.76 541.493C146.76 542.304 146.541 543.044 146.102 543.713C145.665 544.38 144.994 544.914 144.086 545.312C143.181 545.71 142.065 545.909 140.745 545.909C139.519 545.906 138.355 545.694 137.25 545.272Z" fill="#F9EF77"/>
<path d="M161.226 537.552L157.479 541.393V545.787H156.262V529.078H157.479V539.818L167.909 529.078H169.39L162.037 536.669L169.891 545.787H168.41L161.226 537.552Z" fill="#F9EF77"/>
<path d="M179.49 529.078H178.274V545.787H179.49V529.078Z" fill="#F9EF77"/>
<path d="M204.17 529.078V545.787H203.166L191.781 531.272V545.787H190.564V529.078H191.59L202.954 543.591V529.078H204.17Z" fill="#F9EF77"/>
<path d="M238.466 546.023L236.056 543.496C235.372 544.292 234.56 544.891 233.622 545.297C232.681 545.701 231.64 545.906 230.494 545.906C229.445 545.906 228.504 545.731 227.678 545.379C226.85 545.032 226.206 544.538 225.744 543.9C225.281 543.263 225.052 542.537 225.052 541.727C225.052 540.759 225.378 539.87 226.03 539.066C226.682 538.264 227.797 537.401 229.371 536.478L229.347 536.428C228.518 535.568 227.954 534.849 227.651 534.269C227.35 533.687 227.199 533.063 227.199 532.394C227.199 531.362 227.556 530.533 228.271 529.913C228.987 529.292 229.951 528.981 231.162 528.981C232.292 528.981 233.185 529.264 233.847 529.829C234.507 530.393 234.838 531.168 234.838 532.156C234.838 532.985 234.556 533.729 233.991 534.388C233.426 535.049 232.434 535.792 231.018 536.619L235.959 541.846C236.499 540.892 236.897 539.763 237.152 538.459L238.132 538.77C237.811 540.313 237.336 541.593 236.699 542.612L239.18 545.238L238.466 546.023ZM235.34 542.729L230.065 537.168C228.601 538.029 227.594 538.785 227.047 539.436C226.497 540.089 226.222 540.822 226.222 541.635C226.222 542.603 226.624 543.391 227.429 543.997C228.231 544.602 229.269 544.902 230.543 544.902C232.58 544.902 234.179 544.179 235.34 542.729ZM228.729 533.913C229.001 534.396 229.532 535.062 230.328 535.905C231.649 535.14 232.556 534.494 233.048 533.959C233.543 533.427 233.788 532.833 233.788 532.181C233.788 531.48 233.558 530.928 233.097 530.523C232.634 530.117 231.991 529.914 231.163 529.914C230.271 529.914 229.576 530.141 229.075 530.594C228.574 531.048 228.324 531.647 228.324 532.396C228.324 532.921 228.458 533.427 228.729 533.913Z" fill="#F9EF77"/>
<path d="M275.206 545.787L275.182 531.489L268.189 543.566H267.594L260.598 531.536V545.787H259.405V529.078H260.433L267.903 541.991L275.374 529.078H276.376L276.4 545.787H275.206Z" fill="#F9EF77"/>
<path d="M297.043 541.081H287.353L285.224 545.785H283.912L291.598 529.076H292.815L300.5 545.785H299.188L297.043 541.081ZM296.588 540.058L292.198 530.414L287.828 540.058H296.588Z" fill="#F9EF77"/>
<path d="M309.872 545.272C308.765 544.852 307.905 544.307 307.284 543.638L307.83 542.731C308.421 543.351 309.213 543.858 310.209 544.248C311.202 544.637 312.246 544.832 313.345 544.832C314.938 544.832 316.138 544.528 316.95 543.924C317.761 543.32 318.166 542.532 318.166 541.562C318.166 540.814 317.95 540.217 317.522 539.772C317.093 539.326 316.559 538.983 315.923 538.745C315.285 538.508 314.426 538.261 313.345 538.005C312.12 537.705 311.139 537.41 310.398 537.122C309.657 536.837 309.029 536.394 308.51 535.798C307.993 535.201 307.735 534.4 307.735 533.4C307.735 532.589 307.949 531.843 308.379 531.167C308.81 530.492 309.466 529.955 310.347 529.556C311.232 529.158 312.334 528.962 313.654 528.962C314.577 528.962 315.487 529.096 316.375 529.366C317.267 529.639 318.04 530.004 318.691 530.463L318.238 531.443C317.568 530.981 316.833 530.63 316.031 530.393C315.225 530.153 314.435 530.035 313.654 530.035C312.11 530.035 310.942 530.345 310.146 530.966C309.35 531.585 308.95 532.39 308.95 533.376C308.95 534.123 309.166 534.721 309.596 535.167C310.027 535.613 310.559 535.953 311.195 536.193C311.833 536.431 312.699 536.687 313.797 536.958C315.021 537.261 316.001 537.553 316.732 537.842C317.464 538.127 318.089 538.56 318.606 539.143C319.124 539.723 319.383 540.507 319.383 541.493C319.383 542.304 319.165 543.044 318.726 543.713C318.292 544.38 317.619 544.914 316.709 545.312C315.804 545.71 314.69 545.909 313.369 545.909C312.142 545.906 310.977 545.694 309.872 545.272Z" fill="#F9EF77"/>
<path d="M329.779 545.272C328.672 544.852 327.812 544.307 327.191 543.638L327.739 542.731C328.328 543.351 329.12 543.858 330.116 544.248C331.109 544.637 332.153 544.832 333.254 544.832C334.845 544.832 336.045 544.528 336.857 543.924C337.669 543.32 338.074 542.532 338.074 541.562C338.074 540.814 337.859 540.217 337.429 539.772C337 539.326 336.466 538.983 335.831 538.745C335.192 538.508 334.336 538.261 333.252 538.005C332.026 537.705 331.045 537.41 330.304 537.122C329.563 536.837 328.935 536.394 328.416 535.798C327.898 535.201 327.64 534.4 327.64 533.4C327.64 532.589 327.855 531.843 328.285 531.167C328.716 530.492 329.372 529.955 330.253 529.556C331.137 529.158 332.239 528.962 333.561 528.962C334.482 528.962 335.392 529.096 336.281 529.366C337.173 529.639 337.945 530.004 338.597 530.463L338.144 531.443C337.474 530.981 336.739 530.63 335.936 530.393C335.131 530.153 334.341 530.035 333.561 530.035C332.016 530.035 330.848 530.345 330.052 530.966C329.255 531.585 328.857 532.39 328.857 533.376C328.857 534.123 329.074 534.721 329.502 535.167C329.933 535.613 330.465 535.953 331.103 536.193C331.738 536.431 332.605 536.687 333.702 536.958C334.927 537.261 335.907 537.553 336.64 537.842C337.371 538.127 337.995 538.56 338.514 539.143C339.03 539.723 339.29 540.507 339.29 541.493C339.29 542.304 339.071 543.044 338.634 543.713C338.197 544.38 337.525 544.914 336.617 545.312C335.708 545.71 334.596 545.909 333.274 545.909C332.052 545.906 330.885 545.694 329.779 545.272Z" fill="#F9EF77"/>
<path d="M358.938 541.081H349.247L347.122 545.785H345.81L353.496 529.076H354.713L362.398 545.785H361.084L358.938 541.081ZM358.484 540.058L354.094 530.414L349.724 540.058H358.484Z" fill="#F9EF77"/>
<path d="M382.586 537.504H383.757V543.757C383.025 544.458 382.137 544.992 381.096 545.355C380.053 545.722 378.951 545.903 377.789 545.903C376.135 545.903 374.644 545.537 373.315 544.807C371.985 544.075 370.942 543.065 370.188 541.775C369.43 540.486 369.053 539.04 369.053 537.432C369.053 535.824 369.43 534.376 370.188 533.088C370.942 531.798 371.985 530.788 373.315 530.056C374.644 529.324 376.142 528.96 377.814 528.96C379.039 528.96 380.166 529.155 381.194 529.544C382.22 529.935 383.096 530.503 383.83 531.252L383.067 532.064C382.367 531.363 381.581 530.857 380.715 530.548C379.848 530.237 378.891 530.083 377.84 530.083C376.406 530.083 375.113 530.4 373.959 531.037C372.805 531.674 371.903 532.552 371.251 533.675C370.599 534.798 370.273 536.051 370.273 537.435C370.273 538.804 370.604 540.049 371.263 541.171C371.925 542.291 372.827 543.175 373.973 543.819C375.116 544.465 376.406 544.784 377.84 544.784C379.748 544.784 381.331 544.276 382.588 543.259V537.504H382.586Z" fill="#F9EF77"/>
<path d="M405.479 544.686V545.787H393.951V529.078H405.121V530.177H395.167V536.764H404.07V537.838H395.167V544.686H405.479Z" fill="#F9EF77"/>
<path d="M435.462 504.481H103.964C103.433 504.481 103 504.052 103 503.518C103 502.986 103.431 502.555 103.964 502.555H435.462C435.993 502.555 436.425 502.984 436.425 503.518C436.425 504.052 435.993 504.481 435.462 504.481Z" fill="#F9EF77"/>
</svg>
